<?xml version="1.0" encoding="UTF-8" standalone="no"?>
<!DOCTYPE svg PUBLIC "-//W3C//DTD SVG 1.1//EN"
 "http://www.w3.org/Graphics/SVG/1.1/DTD/svg11.dtd">
<!-- Generated by graphviz version 2.38.0 (20140413.2041)
 -->
<!-- Title: Comm/I2C.h Pages: 1 -->
<svg width="298pt" height="84pt"
 viewBox="0.00 0.00 297.50 84.00" xmlns="http://www.w3.org/2000/svg" xmlns:xlink="http://www.w3.org/1999/xlink">
<g id="graph0" class="graph" transform="scale(1 1) rotate(0) translate(4 80)">
<title>Comm/I2C.h</title>
<polygon fill="white" stroke="none" points="-4,4 -4,-80 293.5,-80 293.5,4 -4,4"/>
<!-- Node1 -->
<g id="node1" class="node"><title>Node1</title>
<g id="a_node1"><a xlink:title="I2C function to read&#45;write the I2C bus, based on DRAMCO code.">
<polygon fill="#bfbfbf" stroke="black" points="114,-56.5 114,-75.5 185,-75.5 185,-56.5 114,-56.5"/>
<text text-anchor="middle" x="149.5" y="-63.5" font-family="Helvetica,sans-Serif" font-size="10.00">Comm/I2C.h</text>
</a>
</g>
</g>
<!-- Node2 -->
<g id="node2" class="node"><title>Node2</title>
<g id="a_node2"><a xlink:href="_i2_c_8c.html" target="_top" xlink:title="I2C function to read&#45;write the I2C bus, based on DRAMCO code.">
<polygon fill="white" stroke="black" points="0,-0.5 0,-19.5 71,-19.5 71,-0.5 0,-0.5"/>
<text text-anchor="middle" x="35.5" y="-7.5" font-family="Helvetica,sans-Serif" font-size="10.00">Comm/I2C.c</text>
</a>
</g>
</g>
<!-- Node1&#45;&gt;Node2 -->
<g id="edge1" class="edge"><title>Node1&#45;&gt;Node2</title>
<path fill="none" stroke="midnightblue" d="M122.258,-52.096C100.96,-42.0073 71.9583,-28.2697 53.4791,-19.5164"/>
<polygon fill="midnightblue" stroke="midnightblue" points="120.901,-55.3257 131.436,-56.4435 123.897,-48.9995 120.901,-55.3257"/>
</g>
<!-- Node3 -->
<g id="node3" class="node"><title>Node3</title>
<g id="a_node3"><a xlink:href="_i_c_m20948_8c.html" target="_top" xlink:title="Advanced funcions to control and read data from the ICM&#45;20948.">
<polygon fill="white" stroke="black" points="89.5,-0.5 89.5,-19.5 209.5,-19.5 209.5,-0.5 89.5,-0.5"/>
<text text-anchor="middle" x="149.5" y="-7.5" font-family="Helvetica,sans-Serif" font-size="10.00">ICM_20948/ICM20948.c</text>
</a>
</g>
</g>
<!-- Node1&#45;&gt;Node3 -->
<g id="edge2" class="edge"><title>Node1&#45;&gt;Node3</title>
<path fill="none" stroke="midnightblue" d="M149.5,-45.8045C149.5,-36.9102 149.5,-26.7798 149.5,-19.7511"/>
<polygon fill="midnightblue" stroke="midnightblue" points="146,-46.083 149.5,-56.083 153,-46.083 146,-46.083"/>
</g>
<!-- Node4 -->
<g id="node4" class="node"><title>Node4</title>
<g id="a_node4"><a xlink:href="main_8c.html" target="_top" xlink:title="Code used in master thesis, MAIN FILE.">
<polygon fill="white" stroke="black" points="227.5,-0.5 227.5,-19.5 289.5,-19.5 289.5,-0.5 227.5,-0.5"/>
<text text-anchor="middle" x="258.5" y="-7.5" font-family="Helvetica,sans-Serif" font-size="10.00">src/main.c</text>
</a>
</g>
</g>
<!-- Node1&#45;&gt;Node4 -->
<g id="edge3" class="edge"><title>Node1&#45;&gt;Node4</title>
<path fill="none" stroke="midnightblue" d="M176.019,-51.8622C196.23,-41.8492 223.487,-28.3458 241.031,-19.6545"/>
<polygon fill="midnightblue" stroke="midnightblue" points="174.42,-48.7485 167.013,-56.324 177.527,-55.0209 174.42,-48.7485"/>
</g>
</g>
</svg>
