<?xml version="1.0" encoding="UTF-8" standalone="no"?>
<!DOCTYPE svg PUBLIC "-//W3C//DTD SVG 1.1//EN"
 "http://www.w3.org/Graphics/SVG/1.1/DTD/svg11.dtd">
<!-- Generated by graphviz version 2.38.0 (20140413.2041)
 -->
<!-- Title: ICM_20948/ICM20948.h Pages: 1 -->
<svg width="208pt" height="84pt"
 viewBox="0.00 0.00 208.00 84.00" xmlns="http://www.w3.org/2000/svg" xmlns:xlink="http://www.w3.org/1999/xlink">
<g id="graph0" class="graph" transform="scale(1 1) rotate(0) translate(4 80)">
<title>ICM_20948/ICM20948.h</title>
<polygon fill="white" stroke="none" points="-4,4 -4,-80 204,-80 204,4 -4,4"/>
<!-- Node1 -->
<g id="node1" class="node"><title>Node1</title>
<g id="a_node1"><a xlink:title=" ">
<polygon fill="#bfbfbf" stroke="black" points="54,-56.5 54,-75.5 174,-75.5 174,-56.5 54,-56.5"/>
<text text-anchor="middle" x="114" y="-63.5" font-family="Helvetica,sans-Serif" font-size="10.00">ICM_20948/ICM20948.h</text>
</a>
</g>
</g>
<!-- Node2 -->
<g id="node2" class="node"><title>Node2</title>
<g id="a_node2"><a xlink:href="_i_c_m20948_8c.html" target="_top" xlink:title="Advanced funcions to control and read data from the ICM&#45;20948.">
<polygon fill="white" stroke="black" points="0,-0.5 0,-19.5 120,-19.5 120,-0.5 0,-0.5"/>
<text text-anchor="middle" x="60" y="-7.5" font-family="Helvetica,sans-Serif" font-size="10.00">ICM_20948/ICM20948.c</text>
</a>
</g>
</g>
<!-- Node1&#45;&gt;Node2 -->
<g id="edge1" class="edge"><title>Node1&#45;&gt;Node2</title>
<path fill="none" stroke="midnightblue" d="M98.0024,-49.0024C88.4329,-39.4329 76.6389,-27.6389 68.7511,-19.7511"/>
<polygon fill="midnightblue" stroke="midnightblue" points="95.537,-51.4868 105.083,-56.083 100.487,-46.537 95.537,-51.4868"/>
</g>
<!-- Node3 -->
<g id="node3" class="node"><title>Node3</title>
<g id="a_node3"><a xlink:href="main_8c.html" target="_top" xlink:title="Code used in master thesis, MAIN FILE.">
<polygon fill="white" stroke="black" points="138,-0.5 138,-19.5 200,-19.5 200,-0.5 138,-0.5"/>
<text text-anchor="middle" x="169" y="-7.5" font-family="Helvetica,sans-Serif" font-size="10.00">src/main.c</text>
</a>
</g>
</g>
<!-- Node1&#45;&gt;Node3 -->
<g id="edge2" class="edge"><title>Node1&#45;&gt;Node3</title>
<path fill="none" stroke="midnightblue" d="M130.294,-49.0024C140.041,-39.4329 152.053,-27.6389 160.087,-19.7511"/>
<polygon fill="midnightblue" stroke="midnightblue" points="127.766,-46.5796 123.082,-56.083 132.67,-51.5746 127.766,-46.5796"/>
</g>
</g>
</svg>
