<?xml version="1.0" encoding="UTF-8" standalone="no"?>
<!DOCTYPE svg PUBLIC "-//W3C//DTD SVG 1.1//EN"
 "http://www.w3.org/Graphics/SVG/1.1/DTD/svg11.dtd">
<!-- Generated by graphviz version 2.38.0 (20140413.2041)
 -->
<!-- Title: ICM_20948/ICM20948.c Pages: 1 -->
<svg width="1388pt" height="140pt"
 viewBox="0.00 0.00 1387.87 140.00" xmlns="http://www.w3.org/2000/svg" xmlns:xlink="http://www.w3.org/1999/xlink">
<g id="graph0" class="graph" transform="scale(1 1) rotate(0) translate(4 136)">
<title>ICM_20948/ICM20948.c</title>
<polygon fill="white" stroke="none" points="-4,4 -4,-136 1383.87,-136 1383.87,4 -4,4"/>
<!-- Node1 -->
<g id="node1" class="node"><title>Node1</title>
<g id="a_node1"><a xlink:title="Advanced funcions to control and read data from the ICM&#45;20948.">
<polygon fill="#bfbfbf" stroke="black" points="591.371,-112.5 591.371,-131.5 711.371,-131.5 711.371,-112.5 591.371,-112.5"/>
<text text-anchor="middle" x="651.371" y="-119.5" font-family="Helvetica,sans-Serif" font-size="10.00">ICM_20948/ICM20948.c</text>
</a>
</g>
</g>
<!-- Node2 -->
<g id="node2" class="node"><title>Node2</title>
<g id="a_node2"><a xlink:href="_i_c_m20948_8h.html" target="_top" xlink:title=" ">
<polygon fill="white" stroke="black" points="80.3714,-56.5 80.3714,-75.5 148.371,-75.5 148.371,-56.5 80.3714,-56.5"/>
<text text-anchor="middle" x="114.371" y="-63.5" font-family="Helvetica,sans-Serif" font-size="10.00">ICM20948.h</text>
</a>
</g>
</g>
<!-- Node1&#45;&gt;Node2 -->
<g id="edge1" class="edge"><title>Node1&#45;&gt;Node2</title>
<path fill="none" stroke="midnightblue" d="M591.029,-117.755C499.597,-112.343 320.351,-99.7951 158.704,-76.0376"/>
<polygon fill="midnightblue" stroke="midnightblue" points="158.981,-72.5404 148.575,-74.5306 157.951,-79.4642 158.981,-72.5404"/>
</g>
<!-- Node3 -->
<g id="node3" class="node"><title>Node3</title>
<g id="a_node3"><a xlink:title=" ">
<polygon fill="white" stroke="#bfbfbf" points="15.8714,-0.5 15.8714,-19.5 64.8714,-19.5 64.8714,-0.5 15.8714,-0.5"/>
<text text-anchor="middle" x="40.3714" y="-7.5" font-family="Helvetica,sans-Serif" font-size="10.00">stdint.h</text>
</a>
</g>
</g>
<!-- Node1&#45;&gt;Node3 -->
<g id="edge13" class="edge"><title>Node1&#45;&gt;Node3</title>
<path fill="none" stroke="midnightblue" d="M591.31,-121.367C438.619,-121.673 44.8399,-118.313 5.37141,-76 -8.12711,-61.5285 7.39024,-40.8676 21.8323,-26.7482"/>
<polygon fill="midnightblue" stroke="midnightblue" points="24.5553,-28.9995 29.5539,-19.6579 19.8208,-23.8435 24.5553,-28.9995"/>
</g>
<!-- Node5 -->
<g id="node5" class="node"><title>Node5</title>
<g id="a_node5"><a xlink:title=" ">
<polygon fill="white" stroke="#bfbfbf" points="288.871,-56.5 288.871,-75.5 359.871,-75.5 359.871,-56.5 288.871,-56.5"/>
<text text-anchor="middle" x="324.371" y="-63.5" font-family="Helvetica,sans-Serif" font-size="10.00">em_device.h</text>
</a>
</g>
</g>
<!-- Node1&#45;&gt;Node5 -->
<g id="edge4" class="edge"><title>Node1&#45;&gt;Node5</title>
<path fill="none" stroke="midnightblue" d="M593.74,-112.479C538.841,-104.209 453.63,-90.9771 370.118,-76.0765"/>
<polygon fill="midnightblue" stroke="midnightblue" points="370.67,-72.6196 360.209,-74.299 369.434,-79.5096 370.67,-72.6196"/>
</g>
<!-- Node6 -->
<g id="node6" class="node"><title>Node6</title>
<g id="a_node6"><a xlink:title=" ">
<polygon fill="white" stroke="#bfbfbf" points="378.371,-56.5 378.371,-75.5 440.371,-75.5 440.371,-56.5 378.371,-56.5"/>
<text text-anchor="middle" x="409.371" y="-63.5" font-family="Helvetica,sans-Serif" font-size="10.00">em_chip.h</text>
</a>
</g>
</g>
<!-- Node1&#45;&gt;Node6 -->
<g id="edge5" class="edge"><title>Node1&#45;&gt;Node6</title>
<path fill="none" stroke="midnightblue" d="M613.017,-112.481C574.444,-103.908 512.987,-90.2335 450.426,-76.2326"/>
<polygon fill="midnightblue" stroke="midnightblue" points="450.902,-72.7527 440.379,-73.9835 449.373,-79.5836 450.902,-72.7527"/>
</g>
<!-- Node7 -->
<g id="node7" class="node"><title>Node7</title>
<g id="a_node7"><a xlink:title=" ">
<polygon fill="white" stroke="#bfbfbf" points="458.371,-56.5 458.371,-75.5 520.371,-75.5 520.371,-56.5 458.371,-56.5"/>
<text text-anchor="middle" x="489.371" y="-63.5" font-family="Helvetica,sans-Serif" font-size="10.00">em_cmu.h</text>
</a>
</g>
</g>
<!-- Node1&#45;&gt;Node7 -->
<g id="edge6" class="edge"><title>Node1&#45;&gt;Node7</title>
<path fill="none" stroke="midnightblue" d="M625.702,-112.444C598.449,-103.359 555.188,-88.9388 524.721,-78.7831"/>
<polygon fill="midnightblue" stroke="midnightblue" points="525.514,-75.3584 514.921,-75.5164 523.301,-81.9992 525.514,-75.3584"/>
</g>
<!-- Node8 -->
<g id="node8" class="node"><title>Node8</title>
<g id="a_node8"><a xlink:title=" ">
<polygon fill="white" stroke="#bfbfbf" points="538.371,-56.5 538.371,-75.5 600.371,-75.5 600.371,-56.5 538.371,-56.5"/>
<text text-anchor="middle" x="569.371" y="-63.5" font-family="Helvetica,sans-Serif" font-size="10.00">em_gpio.h</text>
</a>
</g>
</g>
<!-- Node1&#45;&gt;Node8 -->
<g id="edge7" class="edge"><title>Node1&#45;&gt;Node8</title>
<path fill="none" stroke="midnightblue" d="M638.197,-112.324C625.525,-103.979 606.138,-91.2122 591.166,-81.3524"/>
<polygon fill="midnightblue" stroke="midnightblue" points="592.79,-78.2313 582.513,-75.6545 588.94,-84.0776 592.79,-78.2313"/>
</g>
<!-- Node9 -->
<g id="node9" class="node"><title>Node9</title>
<g id="a_node9"><a xlink:title=" ">
<polygon fill="white" stroke="#bfbfbf" points="618.871,-56.5 618.871,-75.5 683.871,-75.5 683.871,-56.5 618.871,-56.5"/>
<text text-anchor="middle" x="651.371" y="-63.5" font-family="Helvetica,sans-Serif" font-size="10.00">em_usart.h</text>
</a>
</g>
</g>
<!-- Node1&#45;&gt;Node9 -->
<g id="edge8" class="edge"><title>Node1&#45;&gt;Node9</title>
<path fill="none" stroke="midnightblue" d="M651.371,-112.083C651.371,-105.006 651.371,-94.8611 651.371,-85.9865"/>
<polygon fill="midnightblue" stroke="midnightblue" points="654.872,-85.751 651.371,-75.7511 647.872,-85.7511 654.872,-85.751"/>
</g>
<!-- Node10 -->
<g id="node10" class="node"><title>Node10</title>
<g id="a_node10"><a xlink:href="debug__dbprint_8h.html" target="_top" xlink:title="Enable or disable printing to UART with dbprint.">
<polygon fill="white" stroke="black" points="702.371,-56.5 702.371,-75.5 788.371,-75.5 788.371,-56.5 702.371,-56.5"/>
<text text-anchor="middle" x="745.371" y="-63.5" font-family="Helvetica,sans-Serif" font-size="10.00">debug_dbprint.h</text>
</a>
</g>
</g>
<!-- Node1&#45;&gt;Node10 -->
<g id="edge9" class="edge"><title>Node1&#45;&gt;Node10</title>
<path fill="none" stroke="midnightblue" d="M666.474,-112.324C681.275,-103.822 704.066,-90.7288 721.354,-80.7975"/>
<polygon fill="midnightblue" stroke="midnightblue" points="723.379,-83.6707 730.306,-75.6545 719.892,-77.6009 723.379,-83.6707"/>
</g>
<!-- Node11 -->
<g id="node11" class="node"><title>Node11</title>
<g id="a_node11"><a xlink:href="delay_8h.html" target="_top" xlink:title="Delay functionality.">
<polygon fill="white" stroke="black" points="14.3714,-56.5 14.3714,-75.5 62.3714,-75.5 62.3714,-56.5 14.3714,-56.5"/>
<text text-anchor="middle" x="38.3714" y="-63.5" font-family="Helvetica,sans-Serif" font-size="10.00">delay.h</text>
</a>
</g>
</g>
<!-- Node1&#45;&gt;Node11 -->
<g id="edge10" class="edge"><title>Node1&#45;&gt;Node11</title>
<path fill="none" stroke="midnightblue" d="M591.209,-120.064C487.16,-117.632 266.89,-108.903 72.5181,-75.8634"/>
<polygon fill="midnightblue" stroke="midnightblue" points="72.8532,-72.3695 62.4037,-74.1179 71.6627,-79.2676 72.8532,-72.3695"/>
</g>
<!-- Node12 -->
<g id="node12" class="node"><title>Node12</title>
<g id="a_node12"><a xlink:href="pinout_8h.html" target="_top" xlink:title="File to keep track of most the pins used, pins for BLE are in own file BLE.h.">
<polygon fill="white" stroke="black" points="806.871,-56.5 806.871,-75.5 857.871,-75.5 857.871,-56.5 806.871,-56.5"/>
<text text-anchor="middle" x="832.371" y="-63.5" font-family="Helvetica,sans-Serif" font-size="10.00">pinout.h</text>
</a>
</g>
</g>
<!-- Node1&#45;&gt;Node12 -->
<g id="edge14" class="edge"><title>Node1&#45;&gt;Node12</title>
<path fill="none" stroke="midnightblue" d="M680.051,-112.444C711.669,-103.011 762.571,-87.8245 796.729,-77.6337"/>
<polygon fill="midnightblue" stroke="midnightblue" points="798.17,-80.8562 806.752,-74.6433 796.169,-74.1484 798.17,-80.8562"/>
</g>
<!-- Node13 -->
<g id="node13" class="node"><title>Node13</title>
<g id="a_node13"><a xlink:href="timer_8h.html" target="_top" xlink:title=" ">
<polygon fill="white" stroke="black" points="223.871,-56.5 223.871,-75.5 270.871,-75.5 270.871,-56.5 223.871,-56.5"/>
<text text-anchor="middle" x="247.371" y="-63.5" font-family="Helvetica,sans-Serif" font-size="10.00">timer.h</text>
</a>
</g>
</g>
<!-- Node1&#45;&gt;Node13 -->
<g id="edge15" class="edge"><title>Node1&#45;&gt;Node13</title>
<path fill="none" stroke="midnightblue" d="M591.192,-116.412C519.541,-110.345 396.166,-97.9952 281.105,-75.8657"/>
<polygon fill="midnightblue" stroke="midnightblue" points="281.552,-72.387 271.067,-73.9058 280.211,-79.2573 281.552,-72.387"/>
</g>
<!-- Node15 -->
<g id="node15" class="node"><title>Node15</title>
<g id="a_node15"><a xlink:href="_i2_c_8h.html" target="_top" xlink:title="I2C function to read&#45;write the I2C bus, based on DRAMCO code.">
<polygon fill="white" stroke="black" points="166.871,-56.5 166.871,-75.5 205.871,-75.5 205.871,-56.5 166.871,-56.5"/>
<text text-anchor="middle" x="186.371" y="-63.5" font-family="Helvetica,sans-Serif" font-size="10.00">I2C.h</text>
</a>
</g>
</g>
<!-- Node1&#45;&gt;Node15 -->
<g id="edge19" class="edge"><title>Node1&#45;&gt;Node15</title>
<path fill="none" stroke="midnightblue" d="M591.21,-118.559C508.561,-114.375 355.284,-103.641 215.9,-75.6766"/>
<polygon fill="midnightblue" stroke="midnightblue" points="216.388,-72.2041 205.89,-73.6333 214.988,-79.0626 216.388,-72.2041"/>
</g>
<!-- Node16 -->
<g id="node16" class="node"><title>Node16</title>
<g id="a_node16"><a xlink:title=" ">
<polygon fill="white" stroke="#bfbfbf" points="876.371,-56.5 876.371,-75.5 932.371,-75.5 932.371,-56.5 876.371,-56.5"/>
<text text-anchor="middle" x="904.371" y="-63.5" font-family="Helvetica,sans-Serif" font-size="10.00">em_i2c.h</text>
</a>
</g>
</g>
<!-- Node1&#45;&gt;Node16 -->
<g id="edge21" class="edge"><title>Node1&#45;&gt;Node16</title>
<path fill="none" stroke="midnightblue" d="M694.494,-112.455C736.026,-104.127 800.869,-90.8688 866.071,-76.2394"/>
<polygon fill="midnightblue" stroke="midnightblue" points="867.127,-79.5894 876.112,-73.9761 865.587,-72.7607 867.127,-79.5894"/>
</g>
<!-- Node17 -->
<g id="node17" class="node"><title>Node17</title>
<g id="a_node17"><a xlink:title=" ">
<polygon fill="white" stroke="#bfbfbf" points="950.371,-56.5 950.371,-75.5 1006.37,-75.5 1006.37,-56.5 950.371,-56.5"/>
<text text-anchor="middle" x="978.371" y="-63.5" font-family="Helvetica,sans-Serif" font-size="10.00">i2cspm.h</text>
</a>
</g>
</g>
<!-- Node1&#45;&gt;Node17 -->
<g id="edge22" class="edge"><title>Node1&#45;&gt;Node17</title>
<path fill="none" stroke="midnightblue" d="M711.617,-113.167C768.214,-105.466 855.46,-92.7167 940.104,-76.1165"/>
<polygon fill="midnightblue" stroke="midnightblue" points="941.016,-79.5041 950.144,-74.1267 939.655,-72.6376 941.016,-79.5041"/>
</g>
<!-- Node18 -->
<g id="node18" class="node"><title>Node18</title>
<g id="a_node18"><a xlink:title=" ">
<polygon fill="white" stroke="#bfbfbf" points="1024.37,-56.5 1024.37,-75.5 1086.37,-75.5 1086.37,-56.5 1024.37,-56.5"/>
<text text-anchor="middle" x="1055.37" y="-63.5" font-family="Helvetica,sans-Serif" font-size="10.00">em_core.h</text>
</a>
</g>
</g>
<!-- Node1&#45;&gt;Node18 -->
<g id="edge23" class="edge"><title>Node1&#45;&gt;Node18</title>
<path fill="none" stroke="midnightblue" d="M711.54,-115.392C781.818,-108.432 901.752,-95.2884 1013.86,-76.1198"/>
<polygon fill="midnightblue" stroke="midnightblue" points="1014.73,-79.5213 1023.99,-74.3678 1013.54,-72.6237 1014.73,-79.5213"/>
</g>
<!-- Node19 -->
<g id="node19" class="node"><title>Node19</title>
<g id="a_node19"><a xlink:title=" ">
<polygon fill="white" stroke="#bfbfbf" points="1104.37,-56.5 1104.37,-75.5 1170.37,-75.5 1170.37,-56.5 1104.37,-56.5"/>
<text text-anchor="middle" x="1137.37" y="-63.5" font-family="Helvetica,sans-Serif" font-size="10.00">em_wdog.h</text>
</a>
</g>
</g>
<!-- Node1&#45;&gt;Node19 -->
<g id="edge24" class="edge"><title>Node1&#45;&gt;Node19</title>
<path fill="none" stroke="midnightblue" d="M711.607,-117.008C795.236,-110.999 951.407,-98.0876 1093.74,-76.1044"/>
<polygon fill="midnightblue" stroke="midnightblue" points="1094.62,-79.5088 1103.96,-74.5059 1093.54,-72.5928 1094.62,-79.5088"/>
</g>
<!-- Node20 -->
<g id="node20" class="node"><title>Node20</title>
<g id="a_node20"><a xlink:title=" ">
<polygon fill="white" stroke="#bfbfbf" points="1188.87,-56.5 1188.87,-75.5 1247.87,-75.5 1247.87,-56.5 1188.87,-56.5"/>
<text text-anchor="middle" x="1218.37" y="-63.5" font-family="Helvetica,sans-Serif" font-size="10.00">rtcdriver.h</text>
</a>
</g>
</g>
<!-- Node1&#45;&gt;Node20 -->
<g id="edge25" class="edge"><title>Node1&#45;&gt;Node20</title>
<path fill="none" stroke="midnightblue" d="M711.487,-118.652C808.004,-114.274 1003.58,-102.897 1178.73,-75.8669"/>
<polygon fill="midnightblue" stroke="midnightblue" points="1179.31,-79.32 1188.65,-74.317 1178.23,-72.4041 1179.31,-79.32"/>
</g>
<!-- Node21 -->
<g id="node21" class="node"><title>Node21</title>
<g id="a_node21"><a xlink:title=" ">
<polygon fill="white" stroke="#bfbfbf" points="1265.87,-56.5 1265.87,-75.5 1320.87,-75.5 1320.87,-56.5 1265.87,-56.5"/>
<text text-anchor="middle" x="1293.37" y="-63.5" font-family="Helvetica,sans-Serif" font-size="10.00">em_rtc.h</text>
</a>
</g>
</g>
<!-- Node1&#45;&gt;Node21 -->
<g id="edge26" class="edge"><title>Node1&#45;&gt;Node21</title>
<path fill="none" stroke="midnightblue" d="M711.547,-119.93C819.13,-117.276 1051.56,-108.187 1255.56,-76.0492"/>
<polygon fill="midnightblue" stroke="midnightblue" points="1256.24,-79.4855 1265.56,-74.4516 1255.13,-72.5732 1256.24,-79.4855"/>
</g>
<!-- Node22 -->
<g id="node22" class="node"><title>Node22</title>
<g id="a_node22"><a xlink:title=" ">
<polygon fill="white" stroke="#bfbfbf" points="1338.87,-56.5 1338.87,-75.5 1379.87,-75.5 1379.87,-56.5 1338.87,-56.5"/>
<text text-anchor="middle" x="1359.37" y="-63.5" font-family="Helvetica,sans-Serif" font-size="10.00">bsp.h</text>
</a>
</g>
</g>
<!-- Node1&#45;&gt;Node22 -->
<g id="edge27" class="edge"><title>Node1&#45;&gt;Node22</title>
<path fill="none" stroke="midnightblue" d="M711.447,-121.72C828.893,-122.11 1097.01,-118.005 1328.65,-75.9207"/>
<polygon fill="midnightblue" stroke="midnightblue" points="1329.41,-79.3398 1338.61,-74.0837 1328.14,-72.4559 1329.41,-79.3398"/>
</g>
<!-- Node2&#45;&gt;Node3 -->
<g id="edge2" class="edge"><title>Node2&#45;&gt;Node3</title>
<path fill="none" stroke="midnightblue" d="M102.482,-56.324C91.2212,-48.1066 74.0848,-35.6017 60.6623,-25.8069"/>
<polygon fill="midnightblue" stroke="midnightblue" points="62.6182,-22.9014 52.4771,-19.8339 58.4919,-28.5559 62.6182,-22.9014"/>
</g>
<!-- Node4 -->
<g id="node4" class="node"><title>Node4</title>
<g id="a_node4"><a xlink:title=" ">
<polygon fill="white" stroke="#bfbfbf" points="118.371,-0.5 118.371,-19.5 174.371,-19.5 174.371,-0.5 118.371,-0.5"/>
<text text-anchor="middle" x="146.371" y="-7.5" font-family="Helvetica,sans-Serif" font-size="10.00">stdbool.h</text>
</a>
</g>
</g>
<!-- Node2&#45;&gt;Node4 -->
<g id="edge3" class="edge"><title>Node2&#45;&gt;Node4</title>
<path fill="none" stroke="midnightblue" d="M119.656,-56.083C124.082,-48.6127 130.535,-37.7244 135.989,-28.5199"/>
<polygon fill="midnightblue" stroke="midnightblue" points="139.099,-30.1383 141.186,-19.7511 133.076,-26.5697 139.099,-30.1383"/>
</g>
<!-- Node11&#45;&gt;Node3 -->
<g id="edge11" class="edge"><title>Node11&#45;&gt;Node3</title>
<path fill="none" stroke="midnightblue" d="M38.7017,-56.083C38.9638,-49.0059 39.3395,-38.8611 39.6682,-29.9865"/>
<polygon fill="midnightblue" stroke="midnightblue" points="43.1747,-29.8738 40.0473,-19.7511 36.1795,-29.6147 43.1747,-29.8738"/>
</g>
<!-- Node11&#45;&gt;Node4 -->
<g id="edge12" class="edge"><title>Node11&#45;&gt;Node4</title>
<path fill="none" stroke="midnightblue" d="M55.7235,-56.324C73.0433,-47.6641 99.8867,-34.2424 119.873,-24.249"/>
<polygon fill="midnightblue" stroke="midnightblue" points="121.683,-27.2572 129.062,-19.6545 118.553,-20.9962 121.683,-27.2572"/>
</g>
<!-- Node13&#45;&gt;Node3 -->
<g id="edge16" class="edge"><title>Node13&#45;&gt;Node3</title>
<path fill="none" stroke="midnightblue" d="M223.622,-58.2565C220.843,-57.4864 218.046,-56.72 215.371,-56 166.709,-42.9021 110.209,-28.5227 74.8702,-19.6277"/>
<polygon fill="midnightblue" stroke="midnightblue" points="75.6028,-16.2031 65.0513,-17.1604 73.8968,-22.992 75.6028,-16.2031"/>
</g>
<!-- Node13&#45;&gt;Node4 -->
<g id="edge17" class="edge"><title>Node13&#45;&gt;Node4</title>
<path fill="none" stroke="midnightblue" d="M231.144,-56.324C215.02,-47.7034 190.071,-34.3643 171.407,-24.3855"/>
<polygon fill="midnightblue" stroke="midnightblue" points="173.027,-21.283 162.559,-19.6545 169.727,-27.456 173.027,-21.283"/>
</g>
<!-- Node14 -->
<g id="node14" class="node"><title>Node14</title>
<g id="a_node14"><a xlink:title=" ">
<polygon fill="white" stroke="#bfbfbf" points="224.371,-0.5 224.371,-19.5 270.371,-19.5 270.371,-0.5 224.371,-0.5"/>
<text text-anchor="middle" x="247.371" y="-7.5" font-family="Helvetica,sans-Serif" font-size="10.00">stdio.h</text>
</a>
</g>
</g>
<!-- Node13&#45;&gt;Node14 -->
<g id="edge18" class="edge"><title>Node13&#45;&gt;Node14</title>
<path fill="none" stroke="midnightblue" d="M247.371,-56.083C247.371,-49.0059 247.371,-38.8611 247.371,-29.9865"/>
<polygon fill="midnightblue" stroke="midnightblue" points="250.872,-29.751 247.371,-19.7511 243.872,-29.7511 250.872,-29.751"/>
</g>
<!-- Node15&#45;&gt;Node4 -->
<g id="edge20" class="edge"><title>Node15&#45;&gt;Node4</title>
<path fill="none" stroke="midnightblue" d="M179.766,-56.083C174.116,-48.4554 165.827,-37.2645 158.92,-27.9408"/>
<polygon fill="midnightblue" stroke="midnightblue" points="161.618,-25.7034 152.854,-19.7511 155.994,-29.87 161.618,-25.7034"/>
</g>
</g>
</svg>
