<?xml version="1.0" encoding="UTF-8" standalone="no"?>
<!DOCTYPE svg PUBLIC "-//W3C//DTD SVG 1.1//EN"
 "http://www.w3.org/Graphics/SVG/1.1/DTD/svg11.dtd">
<!-- Generated by graphviz version 2.38.0 (20140413.2041)
 -->
<!-- Title: sensorfusion/MadgwickAHRS.c Pages: 1 -->
<svg width="299pt" height="84pt"
 viewBox="0.00 0.00 298.50 84.00" xmlns="http://www.w3.org/2000/svg" xmlns:xlink="http://www.w3.org/1999/xlink">
<g id="graph0" class="graph" transform="scale(1 1) rotate(0) translate(4 80)">
<title>sensorfusion/MadgwickAHRS.c</title>
<polygon fill="white" stroke="none" points="-4,4 -4,-80 294.5,-80 294.5,4 -4,4"/>
<!-- Node1 -->
<g id="node1" class="node"><title>Node1</title>
<g id="a_node1"><a xlink:title=" ">
<polygon fill="#bfbfbf" stroke="black" points="92,-56.5 92,-75.5 245,-75.5 245,-56.5 92,-56.5"/>
<text text-anchor="middle" x="168.5" y="-63.5" font-family="Helvetica,sans-Serif" font-size="10.00">sensorfusion/MadgwickAHRS.c</text>
</a>
</g>
</g>
<!-- Node2 -->
<g id="node2" class="node"><title>Node2</title>
<g id="a_node2"><a xlink:href="_madgwick_a_h_r_s_8h.html" target="_top" xlink:title=" ">
<polygon fill="white" stroke="black" points="0,-0.5 0,-19.5 95,-19.5 95,-0.5 0,-0.5"/>
<text text-anchor="middle" x="47.5" y="-7.5" font-family="Helvetica,sans-Serif" font-size="10.00">MadgwickAHRS.h</text>
</a>
</g>
</g>
<!-- Node1&#45;&gt;Node2 -->
<g id="edge1" class="edge"><title>Node1&#45;&gt;Node2</title>
<path fill="none" stroke="midnightblue" d="M149.327,-56.4435C129.591,-47.6356 98.6148,-33.8116 76.0066,-23.722"/>
<polygon fill="midnightblue" stroke="midnightblue" points="77.1414,-20.3957 66.5831,-19.5164 74.2886,-26.788 77.1414,-20.3957"/>
</g>
<!-- Node3 -->
<g id="node3" class="node"><title>Node3</title>
<g id="a_node3"><a xlink:title=" ">
<polygon fill="white" stroke="#bfbfbf" points="113,-0.5 113,-19.5 160,-19.5 160,-0.5 113,-0.5"/>
<text text-anchor="middle" x="136.5" y="-7.5" font-family="Helvetica,sans-Serif" font-size="10.00">math.h</text>
</a>
</g>
</g>
<!-- Node1&#45;&gt;Node3 -->
<g id="edge2" class="edge"><title>Node1&#45;&gt;Node3</title>
<path fill="none" stroke="midnightblue" d="M163.216,-56.083C158.789,-48.6127 152.337,-37.7244 146.882,-28.5199"/>
<polygon fill="midnightblue" stroke="midnightblue" points="149.795,-26.5697 141.686,-19.7511 143.773,-30.1383 149.795,-26.5697"/>
</g>
<!-- Node4 -->
<g id="node4" class="node"><title>Node4</title>
<g id="a_node4"><a xlink:title=" ">
<polygon fill="white" stroke="#bfbfbf" points="178.5,-0.5 178.5,-19.5 224.5,-19.5 224.5,-0.5 178.5,-0.5"/>
<text text-anchor="middle" x="201.5" y="-7.5" font-family="Helvetica,sans-Serif" font-size="10.00">stdio.h</text>
</a>
</g>
</g>
<!-- Node1&#45;&gt;Node4 -->
<g id="edge3" class="edge"><title>Node1&#45;&gt;Node4</title>
<path fill="none" stroke="midnightblue" d="M173.949,-56.083C178.514,-48.6127 185.168,-37.7244 190.793,-28.5199"/>
<polygon fill="midnightblue" stroke="midnightblue" points="193.924,-30.109 196.152,-19.7511 187.951,-26.4588 193.924,-30.109"/>
</g>
<!-- Node5 -->
<g id="node5" class="node"><title>Node5</title>
<g id="a_node5"><a xlink:title=" ">
<polygon fill="white" stroke="#bfbfbf" points="242.5,-0.5 242.5,-19.5 290.5,-19.5 290.5,-0.5 242.5,-0.5"/>
<text text-anchor="middle" x="266.5" y="-7.5" font-family="Helvetica,sans-Serif" font-size="10.00">stdlib.h</text>
</a>
</g>
</g>
<!-- Node1&#45;&gt;Node5 -->
<g id="edge4" class="edge"><title>Node1&#45;&gt;Node5</title>
<path fill="none" stroke="midnightblue" d="M184.245,-56.324C199.819,-47.7428 223.877,-34.486 241.959,-24.5224"/>
<polygon fill="midnightblue" stroke="midnightblue" points="243.724,-27.546 250.794,-19.6545 240.346,-21.4152 243.724,-27.546"/>
</g>
</g>
</svg>
