<?xml version="1.0" encoding="UTF-8" standalone="no"?>
<!DOCTYPE svg PUBLIC "-//W3C//DTD SVG 1.1//EN"
 "http://www.w3.org/Graphics/SVG/1.1/DTD/svg11.dtd">
<!-- Generated by graphviz version 2.38.0 (20140413.2041)
 -->
<!-- Title: sensorfusion/MadgwickAHRS.h Pages: 1 -->
<svg width="242pt" height="84pt"
 viewBox="0.00 0.00 241.50 84.00" xmlns="http://www.w3.org/2000/svg" xmlns:xlink="http://www.w3.org/1999/xlink">
<g id="graph0" class="graph" transform="scale(1 1) rotate(0) translate(4 80)">
<title>sensorfusion/MadgwickAHRS.h</title>
<polygon fill="white" stroke="none" points="-4,4 -4,-80 237.5,-80 237.5,4 -4,4"/>
<!-- Node1 -->
<g id="node1" class="node"><title>Node1</title>
<g id="a_node1"><a xlink:title="Sensor fusion.">
<polygon fill="#bfbfbf" stroke="black" points="63,-56.5 63,-75.5 216,-75.5 216,-56.5 63,-56.5"/>
<text text-anchor="middle" x="139.5" y="-63.5" font-family="Helvetica,sans-Serif" font-size="10.00">sensorfusion/MadgwickAHRS.h</text>
</a>
</g>
</g>
<!-- Node2 -->
<g id="node2" class="node"><title>Node2</title>
<g id="a_node2"><a xlink:href="_madgwick_a_h_r_s_8c.html" target="_top" xlink:title="Sensor fusion.">
<polygon fill="white" stroke="black" points="0,-0.5 0,-19.5 153,-19.5 153,-0.5 0,-0.5"/>
<text text-anchor="middle" x="76.5" y="-7.5" font-family="Helvetica,sans-Serif" font-size="10.00">sensorfusion/MadgwickAHRS.c</text>
</a>
</g>
</g>
<!-- Node1&#45;&gt;Node2 -->
<g id="edge1" class="edge"><title>Node1&#45;&gt;Node2</title>
<path fill="none" stroke="midnightblue" d="M121.46,-49.5372C110.227,-39.9087 96.1809,-27.8694 86.8062,-19.8339"/>
<polygon fill="midnightblue" stroke="midnightblue" points="119.508,-52.4734 129.378,-56.324 124.063,-47.1586 119.508,-52.4734"/>
</g>
<!-- Node3 -->
<g id="node3" class="node"><title>Node3</title>
<g id="a_node3"><a xlink:href="main_8c.html" target="_top" xlink:title="Code used in master thesis, MAIN FILE.">
<polygon fill="white" stroke="black" points="171.5,-0.5 171.5,-19.5 233.5,-19.5 233.5,-0.5 171.5,-0.5"/>
<text text-anchor="middle" x="202.5" y="-7.5" font-family="Helvetica,sans-Serif" font-size="10.00">src/main.c</text>
</a>
</g>
</g>
<!-- Node1&#45;&gt;Node3 -->
<g id="edge2" class="edge"><title>Node1&#45;&gt;Node3</title>
<path fill="none" stroke="midnightblue" d="M157.54,-49.5372C168.773,-39.9087 182.819,-27.8694 192.194,-19.8339"/>
<polygon fill="midnightblue" stroke="midnightblue" points="154.937,-47.1586 149.622,-56.324 159.492,-52.4734 154.937,-47.1586"/>
</g>
</g>
</svg>
