<?xml version="1.0" encoding="UTF-8" standalone="no"?>
<!DOCTYPE svg PUBLIC "-//W3C//DTD SVG 1.1//EN"
 "http://www.w3.org/Graphics/SVG/1.1/DTD/svg11.dtd">
<!-- Generated by graphviz version 2.38.0 (20140413.2041)
 -->
<!-- Title: adc/adc.c Pages: 1 -->
<svg width="315pt" height="140pt"
 viewBox="0.00 0.00 314.50 140.00" xmlns="http://www.w3.org/2000/svg" xmlns:xlink="http://www.w3.org/1999/xlink">
<g id="graph0" class="graph" transform="scale(1 1) rotate(0) translate(4 136)">
<title>adc/adc.c</title>
<polygon fill="white" stroke="none" points="-4,4 -4,-136 310.5,-136 310.5,4 -4,4"/>
<!-- Node1 -->
<g id="node1" class="node"><title>Node1</title>
<g id="a_node1"><a xlink:title="Read battery voltage.">
<polygon fill="#bfbfbf" stroke="black" points="102,-112.5 102,-131.5 161,-131.5 161,-112.5 102,-112.5"/>
<text text-anchor="middle" x="131.5" y="-119.5" font-family="Helvetica,sans-Serif" font-size="10.00">adc/adc.c</text>
</a>
</g>
</g>
<!-- Node2 -->
<g id="node2" class="node"><title>Node2</title>
<g id="a_node2"><a xlink:href="adc_8h.html" target="_top" xlink:title="Read battery voltage.">
<polygon fill="white" stroke="black" points="4,-56.5 4,-75.5 45,-75.5 45,-56.5 4,-56.5"/>
<text text-anchor="middle" x="24.5" y="-63.5" font-family="Helvetica,sans-Serif" font-size="10.00">adc.h</text>
</a>
</g>
</g>
<!-- Node1&#45;&gt;Node2 -->
<g id="edge1" class="edge"><title>Node1&#45;&gt;Node2</title>
<path fill="none" stroke="midnightblue" d="M114.309,-112.324C97.1491,-103.664 70.5543,-90.2424 50.7527,-80.249"/>
<polygon fill="midnightblue" stroke="midnightblue" points="52.1532,-77.0354 41.6487,-75.6545 48.9993,-83.2847 52.1532,-77.0354"/>
</g>
<!-- Node4 -->
<g id="node4" class="node"><title>Node4</title>
<g id="a_node4"><a xlink:title=" ">
<polygon fill="white" stroke="#bfbfbf" points="63,-56.5 63,-75.5 122,-75.5 122,-56.5 63,-56.5"/>
<text text-anchor="middle" x="92.5" y="-63.5" font-family="Helvetica,sans-Serif" font-size="10.00">em_adc.h</text>
</a>
</g>
</g>
<!-- Node1&#45;&gt;Node4 -->
<g id="edge3" class="edge"><title>Node1&#45;&gt;Node4</title>
<path fill="none" stroke="midnightblue" d="M125.06,-112.083C119.551,-104.455 111.469,-93.2645 104.735,-83.9408"/>
<polygon fill="midnightblue" stroke="midnightblue" points="107.513,-81.8087 98.8202,-75.7511 101.838,-85.9071 107.513,-81.8087"/>
</g>
<!-- Node5 -->
<g id="node5" class="node"><title>Node5</title>
<g id="a_node5"><a xlink:title=" ">
<polygon fill="white" stroke="#bfbfbf" points="140.5,-56.5 140.5,-75.5 202.5,-75.5 202.5,-56.5 140.5,-56.5"/>
<text text-anchor="middle" x="171.5" y="-63.5" font-family="Helvetica,sans-Serif" font-size="10.00">em_cmu.h</text>
</a>
</g>
</g>
<!-- Node1&#45;&gt;Node5 -->
<g id="edge4" class="edge"><title>Node1&#45;&gt;Node5</title>
<path fill="none" stroke="midnightblue" d="M138.105,-112.083C143.755,-104.455 152.045,-93.2645 158.951,-83.9408"/>
<polygon fill="midnightblue" stroke="midnightblue" points="161.878,-85.87 165.018,-75.7511 156.253,-81.7034 161.878,-85.87"/>
</g>
<!-- Node6 -->
<g id="node6" class="node"><title>Node6</title>
<g id="a_node6"><a xlink:href="debug__dbprint_8h.html" target="_top" xlink:title="Enable or disable printing to UART with dbprint.">
<polygon fill="white" stroke="black" points="220.5,-56.5 220.5,-75.5 306.5,-75.5 306.5,-56.5 220.5,-56.5"/>
<text text-anchor="middle" x="263.5" y="-63.5" font-family="Helvetica,sans-Serif" font-size="10.00">debug_dbprint.h</text>
</a>
</g>
</g>
<!-- Node1&#45;&gt;Node6 -->
<g id="edge5" class="edge"><title>Node1&#45;&gt;Node6</title>
<path fill="none" stroke="midnightblue" d="M152.416,-112.444C174.236,-103.517 208.65,-89.4387 233.392,-79.3168"/>
<polygon fill="midnightblue" stroke="midnightblue" points="234.752,-82.5422 242.682,-75.5164 232.101,-76.0634 234.752,-82.5422"/>
</g>
<!-- Node3 -->
<g id="node3" class="node"><title>Node3</title>
<g id="a_node3"><a xlink:title=" ">
<polygon fill="white" stroke="#bfbfbf" points="0,-0.5 0,-19.5 49,-19.5 49,-0.5 0,-0.5"/>
<text text-anchor="middle" x="24.5" y="-7.5" font-family="Helvetica,sans-Serif" font-size="10.00">stdint.h</text>
</a>
</g>
</g>
<!-- Node2&#45;&gt;Node3 -->
<g id="edge2" class="edge"><title>Node2&#45;&gt;Node3</title>
<path fill="none" stroke="midnightblue" d="M24.5,-56.083C24.5,-49.0059 24.5,-38.8611 24.5,-29.9865"/>
<polygon fill="midnightblue" stroke="midnightblue" points="28.0001,-29.751 24.5,-19.7511 21.0001,-29.7511 28.0001,-29.751"/>
</g>
</g>
</svg>
