<?xml version="1.0" encoding="UTF-8" standalone="no"?>
<!DOCTYPE svg PUBLIC "-//W3C//DTD SVG 1.1//EN"
 "http://www.w3.org/Graphics/SVG/1.1/DTD/svg11.dtd">
<!-- Generated by graphviz version 2.38.0 (20140413.2041)
 -->
<!-- Title: adc/adc.h Pages: 1 -->
<svg width="219pt" height="84pt"
 viewBox="0.00 0.00 218.50 84.00" xmlns="http://www.w3.org/2000/svg" xmlns:xlink="http://www.w3.org/1999/xlink">
<g id="graph0" class="graph" transform="scale(1 1) rotate(0) translate(4 80)">
<title>adc/adc.h</title>
<polygon fill="white" stroke="none" points="-4,4 -4,-80 214.5,-80 214.5,4 -4,4"/>
<!-- Node1 -->
<g id="node1" class="node"><title>Node1</title>
<g id="a_node1"><a xlink:title="Read battery voltage.">
<polygon fill="#bfbfbf" stroke="black" points="74,-56.5 74,-75.5 133,-75.5 133,-56.5 74,-56.5"/>
<text text-anchor="middle" x="103.5" y="-63.5" font-family="Helvetica,sans-Serif" font-size="10.00">adc/adc.h</text>
</a>
</g>
</g>
<!-- Node2 -->
<g id="node2" class="node"><title>Node2</title>
<g id="a_node2"><a xlink:href="adc_8c.html" target="_top" xlink:title="Read battery voltage.">
<polygon fill="white" stroke="black" points="0,-0.5 0,-19.5 59,-19.5 59,-0.5 0,-0.5"/>
<text text-anchor="middle" x="29.5" y="-7.5" font-family="Helvetica,sans-Serif" font-size="10.00">adc/adc.c</text>
</a>
</g>
</g>
<!-- Node1&#45;&gt;Node2 -->
<g id="edge1" class="edge"><title>Node1&#45;&gt;Node2</title>
<path fill="none" stroke="midnightblue" d="M83.4657,-50.3804C70.0909,-40.6204 52.9412,-28.1057 41.6057,-19.8339"/>
<polygon fill="midnightblue" stroke="midnightblue" points="81.4695,-53.2565 91.6106,-56.324 85.5958,-47.602 81.4695,-53.2565"/>
</g>
<!-- Node3 -->
<g id="node3" class="node"><title>Node3</title>
<g id="a_node3"><a xlink:href="ble_8c.html" target="_top" xlink:title="Send data via BLE wirelessly.">
<polygon fill="white" stroke="black" points="77,-0.5 77,-19.5 130,-19.5 130,-0.5 77,-0.5"/>
<text text-anchor="middle" x="103.5" y="-7.5" font-family="Helvetica,sans-Serif" font-size="10.00">ble/ble.c</text>
</a>
</g>
</g>
<!-- Node1&#45;&gt;Node3 -->
<g id="edge2" class="edge"><title>Node1&#45;&gt;Node3</title>
<path fill="none" stroke="midnightblue" d="M103.5,-45.8045C103.5,-36.9102 103.5,-26.7798 103.5,-19.7511"/>
<polygon fill="midnightblue" stroke="midnightblue" points="100,-46.083 103.5,-56.083 107,-46.083 100,-46.083"/>
</g>
<!-- Node4 -->
<g id="node4" class="node"><title>Node4</title>
<g id="a_node4"><a xlink:href="main_8c.html" target="_top" xlink:title="Code used in master thesis, MAIN FILE.">
<polygon fill="white" stroke="black" points="148.5,-0.5 148.5,-19.5 210.5,-19.5 210.5,-0.5 148.5,-0.5"/>
<text text-anchor="middle" x="179.5" y="-7.5" font-family="Helvetica,sans-Serif" font-size="10.00">src/main.c</text>
</a>
</g>
</g>
<!-- Node1&#45;&gt;Node4 -->
<g id="edge3" class="edge"><title>Node1&#45;&gt;Node4</title>
<path fill="none" stroke="midnightblue" d="M124.076,-50.3804C137.812,-40.6204 155.425,-28.1057 167.067,-19.8339"/>
<polygon fill="midnightblue" stroke="midnightblue" points="121.835,-47.6787 115.711,-56.324 125.89,-53.385 121.835,-47.6787"/>
</g>
</g>
</svg>
