<?xml version="1.0" encoding="UTF-8" standalone="no"?>
<!DOCTYPE svg PUBLIC "-//W3C//DTD SVG 1.1//EN"
 "http://www.w3.org/Graphics/SVG/1.1/DTD/svg11.dtd">
<!-- Generated by graphviz version 2.38.0 (20140413.2041)
 -->
<!-- Title: ble/ble.h Pages: 1 -->
<svg width="217pt" height="84pt"
 viewBox="0.00 0.00 216.50 84.00" xmlns="http://www.w3.org/2000/svg" xmlns:xlink="http://www.w3.org/1999/xlink">
<g id="graph0" class="graph" transform="scale(1 1) rotate(0) translate(4 80)">
<title>ble/ble.h</title>
<polygon fill="white" stroke="none" points="-4,4 -4,-80 212.5,-80 212.5,4 -4,4"/>
<!-- Node1 -->
<g id="node1" class="node"><title>Node1</title>
<g id="a_node1"><a xlink:title=" ">
<polygon fill="#bfbfbf" stroke="black" points="73,-56.5 73,-75.5 126,-75.5 126,-56.5 73,-56.5"/>
<text text-anchor="middle" x="99.5" y="-63.5" font-family="Helvetica,sans-Serif" font-size="10.00">ble/ble.h</text>
</a>
</g>
</g>
<!-- Node2 -->
<g id="node2" class="node"><title>Node2</title>
<g id="a_node2"><a xlink:href="ble_8c.html" target="_top" xlink:title="Send data via BLE wirelessly.">
<polygon fill="white" stroke="black" points="0,-0.5 0,-19.5 53,-19.5 53,-0.5 0,-0.5"/>
<text text-anchor="middle" x="26.5" y="-7.5" font-family="Helvetica,sans-Serif" font-size="10.00">ble/ble.c</text>
</a>
</g>
</g>
<!-- Node1&#45;&gt;Node2 -->
<g id="edge1" class="edge"><title>Node1&#45;&gt;Node2</title>
<path fill="none" stroke="midnightblue" d="M79.3584,-50.1008C66.2207,-40.3824 49.5179,-28.0269 38.4421,-19.8339"/>
<polygon fill="midnightblue" stroke="midnightblue" points="77.6503,-53.1907 87.7713,-56.324 81.8133,-47.5631 77.6503,-53.1907"/>
</g>
<!-- Node3 -->
<g id="node3" class="node"><title>Node3</title>
<g id="a_node3"><a xlink:href="uart_8c.html" target="_top" xlink:title=" ">
<polygon fill="white" stroke="black" points="71,-0.5 71,-19.5 128,-19.5 128,-0.5 71,-0.5"/>
<text text-anchor="middle" x="99.5" y="-7.5" font-family="Helvetica,sans-Serif" font-size="10.00">ble/uart.c</text>
</a>
</g>
</g>
<!-- Node1&#45;&gt;Node3 -->
<g id="edge2" class="edge"><title>Node1&#45;&gt;Node3</title>
<path fill="none" stroke="midnightblue" d="M99.5,-45.8045C99.5,-36.9102 99.5,-26.7798 99.5,-19.7511"/>
<polygon fill="midnightblue" stroke="midnightblue" points="96.0001,-46.083 99.5,-56.083 103,-46.083 96.0001,-46.083"/>
</g>
<!-- Node4 -->
<g id="node4" class="node"><title>Node4</title>
<g id="a_node4"><a xlink:href="main_8c.html" target="_top" xlink:title="Code used in master thesis, MAIN FILE.">
<polygon fill="white" stroke="black" points="146.5,-0.5 146.5,-19.5 208.5,-19.5 208.5,-0.5 146.5,-0.5"/>
<text text-anchor="middle" x="177.5" y="-7.5" font-family="Helvetica,sans-Serif" font-size="10.00">src/main.c</text>
</a>
</g>
</g>
<!-- Node1&#45;&gt;Node4 -->
<g id="edge3" class="edge"><title>Node1&#45;&gt;Node4</title>
<path fill="none" stroke="midnightblue" d="M120.268,-50.6221C134.517,-40.7574 152.956,-27.9919 164.999,-19.6545"/>
<polygon fill="midnightblue" stroke="midnightblue" points="118.262,-47.7541 112.032,-56.324 122.246,-53.5095 118.262,-47.7541"/>
</g>
</g>
</svg>
