<?xml version="1.0" encoding="UTF-8" standalone="no"?>
<!DOCTYPE svg PUBLIC "-//W3C//DTD SVG 1.1//EN"
 "http://www.w3.org/Graphics/SVG/1.1/DTD/svg11.dtd">
<!-- Generated by graphviz version 2.38.0 (20140413.2041)
 -->
<!-- Title: ble/ble.c Pages: 1 -->
<svg width="1422pt" height="140pt"
 viewBox="0.00 0.00 1422.44 140.00" xmlns="http://www.w3.org/2000/svg" xmlns:xlink="http://www.w3.org/1999/xlink">
<g id="graph0" class="graph" transform="scale(1 1) rotate(0) translate(4 136)">
<title>ble/ble.c</title>
<polygon fill="white" stroke="none" points="-4,4 -4,-136 1418.44,-136 1418.44,4 -4,4"/>
<!-- Node1 -->
<g id="node1" class="node"><title>Node1</title>
<g id="a_node1"><a xlink:title="Send data via BLE wirelessly.">
<polygon fill="#bfbfbf" stroke="black" points="589.435,-112.5 589.435,-131.5 642.435,-131.5 642.435,-112.5 589.435,-112.5"/>
<text text-anchor="middle" x="615.935" y="-119.5" font-family="Helvetica,sans-Serif" font-size="10.00">ble/ble.c</text>
</a>
</g>
</g>
<!-- Node2 -->
<g id="node2" class="node"><title>Node2</title>
<g id="a_node2"><a xlink:href="ble_8h.html" target="_top" xlink:title="Send data via BLE wirelessly.">
<polygon fill="white" stroke="black" points="74.9352,-56.5 74.9352,-75.5 112.935,-75.5 112.935,-56.5 74.9352,-56.5"/>
<text text-anchor="middle" x="93.9352" y="-63.5" font-family="Helvetica,sans-Serif" font-size="10.00">ble.h</text>
</a>
</g>
</g>
<!-- Node1&#45;&gt;Node2 -->
<g id="edge1" class="edge"><title>Node1&#45;&gt;Node2</title>
<path fill="none" stroke="midnightblue" d="M589.397,-120.628C516.26,-119.175 305.677,-112.097 123.114,-75.7962"/>
<polygon fill="midnightblue" stroke="midnightblue" points="123.562,-72.3161 113.067,-73.7627 122.174,-79.177 123.562,-72.3161"/>
</g>
<!-- Node3 -->
<g id="node3" class="node"><title>Node3</title>
<g id="a_node3"><a xlink:title=" ">
<polygon fill="white" stroke="#bfbfbf" points="69.4352,-0.5 69.4352,-19.5 118.435,-19.5 118.435,-0.5 69.4352,-0.5"/>
<text text-anchor="middle" x="93.9352" y="-7.5" font-family="Helvetica,sans-Serif" font-size="10.00">stdint.h</text>
</a>
</g>
</g>
<!-- Node1&#45;&gt;Node3 -->
<g id="edge23" class="edge"><title>Node1&#45;&gt;Node3</title>
<path fill="none" stroke="midnightblue" d="M589.397,-121.113C477.254,-121.32 46.1372,-119.277 5.93521,-76 -15.2105,-53.2369 26.5967,-33.025 59.5395,-21.398"/>
<polygon fill="midnightblue" stroke="midnightblue" points="61.0425,-24.5849 69.399,-18.0719 58.8049,-17.9521 61.0425,-24.5849"/>
</g>
<!-- Node4 -->
<g id="node4" class="node"><title>Node4</title>
<g id="a_node4"><a xlink:title=" ">
<polygon fill="white" stroke="#bfbfbf" points="162.935,-0.5 162.935,-19.5 218.935,-19.5 218.935,-0.5 162.935,-0.5"/>
<text text-anchor="middle" x="190.935" y="-7.5" font-family="Helvetica,sans-Serif" font-size="10.00">stdbool.h</text>
</a>
</g>
</g>
<!-- Node1&#45;&gt;Node4 -->
<g id="edge24" class="edge"><title>Node1&#45;&gt;Node4</title>
<path fill="none" stroke="midnightblue" d="M589.34,-121.401C532.05,-121.409 393.54,-116.804 286.935,-76 256.727,-64.4374 226.614,-41.7773 208.382,-26.5089"/>
<polygon fill="midnightblue" stroke="midnightblue" points="210.304,-23.5467 200.437,-19.6884 205.745,-28.8579 210.304,-23.5467"/>
</g>
<!-- Node5 -->
<g id="node5" class="node"><title>Node5</title>
<g id="a_node5"><a xlink:title=" ">
<polygon fill="white" stroke="#bfbfbf" points="295.435,-56.5 295.435,-75.5 366.435,-75.5 366.435,-56.5 295.435,-56.5"/>
<text text-anchor="middle" x="330.935" y="-63.5" font-family="Helvetica,sans-Serif" font-size="10.00">em_device.h</text>
</a>
</g>
</g>
<!-- Node1&#45;&gt;Node5 -->
<g id="edge4" class="edge"><title>Node1&#45;&gt;Node5</title>
<path fill="none" stroke="midnightblue" d="M589.279,-116.11C546.652,-108.268 460.256,-92.2769 376.698,-76.1295"/>
<polygon fill="midnightblue" stroke="midnightblue" points="377.272,-72.6757 366.789,-74.2112 375.941,-79.5481 377.272,-72.6757"/>
</g>
<!-- Node6 -->
<g id="node6" class="node"><title>Node6</title>
<g id="a_node6"><a xlink:title=" ">
<polygon fill="white" stroke="#bfbfbf" points="384.935,-56.5 384.935,-75.5 446.935,-75.5 446.935,-56.5 384.935,-56.5"/>
<text text-anchor="middle" x="415.935" y="-63.5" font-family="Helvetica,sans-Serif" font-size="10.00">em_chip.h</text>
</a>
</g>
</g>
<!-- Node1&#45;&gt;Node6 -->
<g id="edge5" class="edge"><title>Node1&#45;&gt;Node6</title>
<path fill="none" stroke="midnightblue" d="M589.377,-113.829C555.556,-104.698 496.756,-88.8215 457.105,-78.1158"/>
<polygon fill="midnightblue" stroke="midnightblue" points="457.781,-74.6731 447.214,-75.4454 455.956,-81.4311 457.781,-74.6731"/>
</g>
<!-- Node7 -->
<g id="node7" class="node"><title>Node7</title>
<g id="a_node7"><a xlink:title=" ">
<polygon fill="white" stroke="#bfbfbf" points="464.935,-56.5 464.935,-75.5 526.935,-75.5 526.935,-56.5 464.935,-56.5"/>
<text text-anchor="middle" x="495.935" y="-63.5" font-family="Helvetica,sans-Serif" font-size="10.00">em_cmu.h</text>
</a>
</g>
</g>
<!-- Node1&#45;&gt;Node7 -->
<g id="edge6" class="edge"><title>Node1&#45;&gt;Node7</title>
<path fill="none" stroke="midnightblue" d="M596.921,-112.444C577.348,-103.636 546.628,-89.8116 524.206,-79.722"/>
<polygon fill="midnightblue" stroke="midnightblue" points="525.416,-76.4284 514.861,-75.5164 522.544,-82.8119 525.416,-76.4284"/>
</g>
<!-- Node8 -->
<g id="node8" class="node"><title>Node8</title>
<g id="a_node8"><a xlink:title=" ">
<polygon fill="white" stroke="#bfbfbf" points="544.935,-56.5 544.935,-75.5 606.935,-75.5 606.935,-56.5 544.935,-56.5"/>
<text text-anchor="middle" x="575.935" y="-63.5" font-family="Helvetica,sans-Serif" font-size="10.00">em_emu.h</text>
</a>
</g>
</g>
<!-- Node1&#45;&gt;Node8 -->
<g id="edge7" class="edge"><title>Node1&#45;&gt;Node8</title>
<path fill="none" stroke="midnightblue" d="M609.33,-112.083C603.68,-104.455 595.39,-93.2645 588.484,-83.9408"/>
<polygon fill="midnightblue" stroke="midnightblue" points="591.182,-81.7034 582.417,-75.7511 585.557,-85.87 591.182,-81.7034"/>
</g>
<!-- Node9 -->
<g id="node9" class="node"><title>Node9</title>
<g id="a_node9"><a xlink:title=" ">
<polygon fill="white" stroke="#bfbfbf" points="624.935,-56.5 624.935,-75.5 686.935,-75.5 686.935,-56.5 624.935,-56.5"/>
<text text-anchor="middle" x="655.935" y="-63.5" font-family="Helvetica,sans-Serif" font-size="10.00">em_gpio.h</text>
</a>
</g>
</g>
<!-- Node1&#45;&gt;Node9 -->
<g id="edge8" class="edge"><title>Node1&#45;&gt;Node9</title>
<path fill="none" stroke="midnightblue" d="M622.54,-112.083C628.19,-104.455 636.48,-93.2645 643.386,-83.9408"/>
<polygon fill="midnightblue" stroke="midnightblue" points="646.313,-85.87 649.453,-75.7511 640.688,-81.7034 646.313,-85.87"/>
</g>
<!-- Node10 -->
<g id="node10" class="node"><title>Node10</title>
<g id="a_node10"><a xlink:title=" ">
<polygon fill="white" stroke="#bfbfbf" points="705.435,-56.5 705.435,-75.5 770.435,-75.5 770.435,-56.5 705.435,-56.5"/>
<text text-anchor="middle" x="737.935" y="-63.5" font-family="Helvetica,sans-Serif" font-size="10.00">em_usart.h</text>
</a>
</g>
</g>
<!-- Node1&#45;&gt;Node10 -->
<g id="edge9" class="edge"><title>Node1&#45;&gt;Node10</title>
<path fill="none" stroke="midnightblue" d="M635.266,-112.444C655.255,-103.596 686.678,-89.6875 709.499,-79.5865"/>
<polygon fill="midnightblue" stroke="midnightblue" points="710.967,-82.7645 718.694,-75.5164 708.133,-76.3635 710.967,-82.7645"/>
</g>
<!-- Node11 -->
<g id="node11" class="node"><title>Node11</title>
<g id="a_node11"><a xlink:title=" ">
<polygon fill="white" stroke="#bfbfbf" points="788.435,-56.5 788.435,-75.5 843.435,-75.5 843.435,-56.5 788.435,-56.5"/>
<text text-anchor="middle" x="815.935" y="-63.5" font-family="Helvetica,sans-Serif" font-size="10.00">em_rtc.h</text>
</a>
</g>
</g>
<!-- Node1&#45;&gt;Node11 -->
<g id="edge10" class="edge"><title>Node1&#45;&gt;Node11</title>
<path fill="none" stroke="midnightblue" d="M642.494,-113.829C677.39,-104.407 738.879,-87.8053 778.488,-77.1108"/>
<polygon fill="midnightblue" stroke="midnightblue" points="779.561,-80.4466 788.302,-74.4608 777.736,-73.6886 779.561,-80.4466"/>
</g>
<!-- Node12 -->
<g id="node12" class="node"><title>Node12</title>
<g id="a_node12"><a xlink:title=" ">
<polygon fill="white" stroke="#bfbfbf" points="861.435,-56.5 861.435,-75.5 920.435,-75.5 920.435,-56.5 861.435,-56.5"/>
<text text-anchor="middle" x="890.935" y="-63.5" font-family="Helvetica,sans-Serif" font-size="10.00">em_adc.h</text>
</a>
</g>
</g>
<!-- Node1&#45;&gt;Node12 -->
<g id="edge11" class="edge"><title>Node1&#45;&gt;Node12</title>
<path fill="none" stroke="midnightblue" d="M642.671,-116.328C684.93,-108.855 769.97,-93.4667 851.208,-76.3031"/>
<polygon fill="midnightblue" stroke="midnightblue" points="852.039,-79.7046 861.093,-74.2015 850.584,-72.8576 852.039,-79.7046"/>
</g>
<!-- Node13 -->
<g id="node13" class="node"><title>Node13</title>
<g id="a_node13"><a xlink:title=" ">
<polygon fill="white" stroke="#bfbfbf" points="938.935,-56.5 938.935,-75.5 1004.94,-75.5 1004.94,-56.5 938.935,-56.5"/>
<text text-anchor="middle" x="971.935" y="-63.5" font-family="Helvetica,sans-Serif" font-size="10.00">em_wdog.h</text>
</a>
</g>
</g>
<!-- Node1&#45;&gt;Node13 -->
<g id="edge12" class="edge"><title>Node1&#45;&gt;Node13</title>
<path fill="none" stroke="midnightblue" d="M642.499,-117.819C695.128,-111.384 816.556,-95.8718 928.406,-76.1749"/>
<polygon fill="midnightblue" stroke="midnightblue" points="929.272,-79.576 938.505,-74.3802 928.047,-72.684 929.272,-79.576"/>
</g>
<!-- Node14 -->
<g id="node14" class="node"><title>Node14</title>
<g id="a_node14"><a xlink:title=" ">
<polygon fill="white" stroke="#bfbfbf" points="1023.44,-56.5 1023.44,-75.5 1082.44,-75.5 1082.44,-56.5 1023.44,-56.5"/>
<text text-anchor="middle" x="1052.94" y="-63.5" font-family="Helvetica,sans-Serif" font-size="10.00">rtcdriver.h</text>
</a>
</g>
</g>
<!-- Node1&#45;&gt;Node14 -->
<g id="edge13" class="edge"><title>Node1&#45;&gt;Node14</title>
<path fill="none" stroke="midnightblue" d="M642.632,-119.041C705.451,-114.207 867.639,-100.419 1013.19,-75.9361"/>
<polygon fill="midnightblue" stroke="midnightblue" points="1013.93,-79.3613 1023.2,-74.2315 1012.75,-72.4608 1013.93,-79.3613"/>
</g>
<!-- Node15 -->
<g id="node15" class="node"><title>Node15</title>
<g id="a_node15"><a xlink:title=" ">
<polygon fill="white" stroke="#bfbfbf" points="1100.94,-56.5 1100.94,-75.5 1162.94,-75.5 1162.94,-56.5 1100.94,-56.5"/>
<text text-anchor="middle" x="1131.94" y="-63.5" font-family="Helvetica,sans-Serif" font-size="10.00">em_core.h</text>
</a>
</g>
</g>
<!-- Node1&#45;&gt;Node15 -->
<g id="edge14" class="edge"><title>Node1&#45;&gt;Node15</title>
<path fill="none" stroke="midnightblue" d="M642.662,-119.667C713.91,-115.86 914.412,-103.502 1090.6,-76.0284"/>
<polygon fill="midnightblue" stroke="midnightblue" points="1091.23,-79.4717 1100.57,-74.454 1090.14,-72.5575 1091.23,-79.4717"/>
</g>
<!-- Node16 -->
<g id="node16" class="node"><title>Node16</title>
<g id="a_node16"><a xlink:href="debug__dbprint_8h.html" target="_top" xlink:title="Enable or disable printing to UART with dbprint.">
<polygon fill="white" stroke="black" points="1180.94,-56.5 1180.94,-75.5 1266.94,-75.5 1266.94,-56.5 1180.94,-56.5"/>
<text text-anchor="middle" x="1223.94" y="-63.5" font-family="Helvetica,sans-Serif" font-size="10.00">debug_dbprint.h</text>
</a>
</g>
</g>
<!-- Node1&#45;&gt;Node16 -->
<g id="edge15" class="edge"><title>Node1&#45;&gt;Node16</title>
<path fill="none" stroke="midnightblue" d="M642.644,-119.699C721.701,-115.667 961.562,-102.125 1170.91,-76.0192"/>
<polygon fill="midnightblue" stroke="midnightblue" points="1171.37,-79.4889 1180.85,-74.7666 1170.49,-72.5438 1171.37,-79.4889"/>
</g>
<!-- Node17 -->
<g id="node17" class="node"><title>Node17</title>
<g id="a_node17"><a xlink:href="delay_8h.html" target="_top" xlink:title="Delay functionality.">
<polygon fill="white" stroke="black" points="130.935,-56.5 130.935,-75.5 178.935,-75.5 178.935,-56.5 130.935,-56.5"/>
<text text-anchor="middle" x="154.935" y="-63.5" font-family="Helvetica,sans-Serif" font-size="10.00">delay.h</text>
</a>
</g>
</g>
<!-- Node1&#45;&gt;Node17 -->
<g id="edge16" class="edge"><title>Node1&#45;&gt;Node17</title>
<path fill="none" stroke="midnightblue" d="M589.248,-119.617C521.736,-115.81 338.86,-103.574 188.935,-76 188.834,-75.9814 188.732,-75.9626 188.631,-75.9437"/>
<polygon fill="midnightblue" stroke="midnightblue" points="189.492,-72.5491 178.978,-73.8535 188.011,-79.3905 189.492,-72.5491"/>
</g>
<!-- Node18 -->
<g id="node18" class="node"><title>Node18</title>
<g id="a_node18"><a xlink:href="interrupt_8h.html" target="_top" xlink:title="Code to detect and generate interrupts.">
<polygon fill="white" stroke="black" points="1284.94,-56.5 1284.94,-75.5 1344.94,-75.5 1344.94,-56.5 1284.94,-56.5"/>
<text text-anchor="middle" x="1314.94" y="-63.5" font-family="Helvetica,sans-Serif" font-size="10.00">interrupt.h</text>
</a>
</g>
</g>
<!-- Node1&#45;&gt;Node18 -->
<g id="edge19" class="edge"><title>Node1&#45;&gt;Node18</title>
<path fill="none" stroke="midnightblue" d="M642.505,-120.698C730.995,-119.377 1023.83,-112.46 1274.76,-75.9338"/>
<polygon fill="midnightblue" stroke="midnightblue" points="1275.41,-79.3756 1284.79,-74.4539 1274.39,-72.4505 1275.41,-79.3756"/>
</g>
<!-- Node19 -->
<g id="node19" class="node"><title>Node19</title>
<g id="a_node19"><a xlink:href="adc_8h.html" target="_top" xlink:title="Read battery voltage.">
<polygon fill="white" stroke="black" points="15.4352,-56.5 15.4352,-75.5 56.4352,-75.5 56.4352,-56.5 15.4352,-56.5"/>
<text text-anchor="middle" x="35.9352" y="-63.5" font-family="Helvetica,sans-Serif" font-size="10.00">adc.h</text>
</a>
</g>
</g>
<!-- Node1&#45;&gt;Node19 -->
<g id="edge20" class="edge"><title>Node1&#45;&gt;Node19</title>
<path fill="none" stroke="midnightblue" d="M589.34,-120.793C510.693,-119.768 272.424,-113.692 66.54,-75.6677"/>
<polygon fill="midnightblue" stroke="midnightblue" points="66.9256,-72.179 56.4515,-73.7737 65.6339,-79.0588 66.9256,-72.179"/>
</g>
<!-- Node20 -->
<g id="node20" class="node"><title>Node20</title>
<g id="a_node20"><a xlink:href="pinout_8h.html" target="_top" xlink:title="File to keep track of most the pins used, pins for BLE are in own file BLE.h.">
<polygon fill="white" stroke="black" points="1363.44,-56.5 1363.44,-75.5 1414.44,-75.5 1414.44,-56.5 1363.44,-56.5"/>
<text text-anchor="middle" x="1388.94" y="-63.5" font-family="Helvetica,sans-Serif" font-size="10.00">pinout.h</text>
</a>
</g>
</g>
<!-- Node1&#45;&gt;Node20 -->
<g id="edge22" class="edge"><title>Node1&#45;&gt;Node20</title>
<path fill="none" stroke="midnightblue" d="M642.609,-121.203C737.92,-121.545 1070.54,-119.458 1353.03,-75.8113"/>
<polygon fill="midnightblue" stroke="midnightblue" points="1353.72,-79.2461 1363.06,-74.241 1352.64,-72.3304 1353.72,-79.2461"/>
</g>
<!-- Node21 -->
<g id="node21" class="node"><title>Node21</title>
<g id="a_node21"><a xlink:href="uart_8h.html" target="_top" xlink:title="UART communication with BLE.">
<polygon fill="white" stroke="black" points="197.435,-56.5 197.435,-75.5 238.435,-75.5 238.435,-56.5 197.435,-56.5"/>
<text text-anchor="middle" x="217.935" y="-63.5" font-family="Helvetica,sans-Serif" font-size="10.00">uart.h</text>
</a>
</g>
</g>
<!-- Node1&#45;&gt;Node21 -->
<g id="edge25" class="edge"><title>Node1&#45;&gt;Node21</title>
<path fill="none" stroke="midnightblue" d="M589.337,-118.881C529.084,-113.824 377.715,-99.6762 252.935,-76 251.471,-75.7222 249.978,-75.4185 248.473,-75.0961"/>
<polygon fill="midnightblue" stroke="midnightblue" points="249.099,-71.6482 238.564,-72.773 247.501,-78.4634 249.099,-71.6482"/>
</g>
<!-- Node2&#45;&gt;Node3 -->
<g id="edge2" class="edge"><title>Node2&#45;&gt;Node3</title>
<path fill="none" stroke="midnightblue" d="M93.9352,-56.083C93.9352,-49.0059 93.9352,-38.8611 93.9352,-29.9865"/>
<polygon fill="midnightblue" stroke="midnightblue" points="97.4353,-29.751 93.9352,-19.7511 90.4353,-29.7511 97.4353,-29.751"/>
</g>
<!-- Node2&#45;&gt;Node4 -->
<g id="edge3" class="edge"><title>Node2&#45;&gt;Node4</title>
<path fill="none" stroke="midnightblue" d="M109.52,-56.324C124.934,-47.7428 148.747,-34.486 166.645,-24.5224"/>
<polygon fill="midnightblue" stroke="midnightblue" points="168.354,-27.5767 175.389,-19.6545 164.949,-21.4606 168.354,-27.5767"/>
</g>
<!-- Node17&#45;&gt;Node3 -->
<g id="edge17" class="edge"><title>Node17&#45;&gt;Node3</title>
<path fill="none" stroke="midnightblue" d="M145.135,-56.324C136.117,-48.3414 122.529,-36.3128 111.617,-26.6529"/>
<polygon fill="midnightblue" stroke="midnightblue" points="113.722,-23.8416 103.914,-19.8339 109.082,-29.083 113.722,-23.8416"/>
</g>
<!-- Node17&#45;&gt;Node4 -->
<g id="edge18" class="edge"><title>Node17&#45;&gt;Node4</title>
<path fill="none" stroke="midnightblue" d="M160.88,-56.083C165.912,-48.5341 173.272,-37.4948 179.449,-28.2298"/>
<polygon fill="midnightblue" stroke="midnightblue" points="182.466,-30.0131 185.101,-19.7511 176.642,-26.1301 182.466,-30.0131"/>
</g>
<!-- Node19&#45;&gt;Node3 -->
<g id="edge21" class="edge"><title>Node19&#45;&gt;Node3</title>
<path fill="none" stroke="midnightblue" d="M45.2539,-56.324C53.8278,-48.3414 66.7474,-36.3128 77.1228,-26.6529"/>
<polygon fill="midnightblue" stroke="midnightblue" points="79.513,-29.2098 84.4469,-19.8339 74.743,-24.0865 79.513,-29.2098"/>
</g>
<!-- Node21&#45;&gt;Node3 -->
<g id="edge26" class="edge"><title>Node21&#45;&gt;Node3</title>
<path fill="none" stroke="midnightblue" d="M198.287,-56.4435C177.971,-47.5961 146.032,-33.6875 122.837,-23.5865"/>
<polygon fill="midnightblue" stroke="midnightblue" points="124.057,-20.3002 113.491,-19.5164 121.262,-26.7181 124.057,-20.3002"/>
</g>
<!-- Node21&#45;&gt;Node4 -->
<g id="edge27" class="edge"><title>Node21&#45;&gt;Node4</title>
<path fill="none" stroke="midnightblue" d="M213.477,-56.083C209.781,-48.6913 204.412,-37.9533 199.841,-28.8111"/>
<polygon fill="midnightblue" stroke="midnightblue" points="202.913,-27.1301 195.311,-19.7511 196.652,-30.2606 202.913,-27.1301"/>
</g>
</g>
</svg>
