<?xml version="1.0" encoding="UTF-8" standalone="no"?>
<!DOCTYPE svg PUBLIC "-//W3C//DTD SVG 1.1//EN"
 "http://www.w3.org/Graphics/SVG/1.1/DTD/svg11.dtd">
<!-- Generated by graphviz version 2.38.0 (20140413.2041)
 -->
<!-- Title: dbprint/debug_dbprint.h Pages: 1 -->
<svg width="744pt" height="84pt"
 viewBox="0.00 0.00 743.50 84.00" xmlns="http://www.w3.org/2000/svg" xmlns:xlink="http://www.w3.org/1999/xlink">
<g id="graph0" class="graph" transform="scale(1 1) rotate(0) translate(4 80)">
<title>dbprint/debug_dbprint.h</title>
<polygon fill="white" stroke="none" points="-4,4 -4,-80 739.5,-80 739.5,4 -4,4"/>
<!-- Node1 -->
<g id="node1" class="node"><title>Node1</title>
<g id="a_node1"><a xlink:title="Enable or disable printing to UART with dbprint.">
<polygon fill="#bfbfbf" stroke="black" points="256.5,-56.5 256.5,-75.5 374.5,-75.5 374.5,-56.5 256.5,-56.5"/>
<text text-anchor="middle" x="315.5" y="-63.5" font-family="Helvetica,sans-Serif" font-size="10.00">dbprint/debug_dbprint.h</text>
</a>
</g>
</g>
<!-- Node2 -->
<g id="node2" class="node"><title>Node2</title>
<g id="a_node2"><a xlink:href="adc_8c.html" target="_top" xlink:title="Read battery voltage.">
<polygon fill="white" stroke="black" points="0,-0.5 0,-19.5 59,-19.5 59,-0.5 0,-0.5"/>
<text text-anchor="middle" x="29.5" y="-7.5" font-family="Helvetica,sans-Serif" font-size="10.00">adc/adc.c</text>
</a>
</g>
</g>
<!-- Node1&#45;&gt;Node2 -->
<g id="edge1" class="edge"><title>Node1&#45;&gt;Node2</title>
<path fill="none" stroke="midnightblue" d="M253.987,-54.7725C203.696,-46.1867 130.814,-33.2323 67.5,-20 64.8455,-19.4452 62.0927,-18.8441 59.3373,-18.2246"/>
<polygon fill="midnightblue" stroke="midnightblue" points="253.603,-58.2575 264.049,-56.4835 254.777,-51.3566 253.603,-58.2575"/>
</g>
<!-- Node3 -->
<g id="node3" class="node"><title>Node3</title>
<g id="a_node3"><a xlink:href="ble_8c.html" target="_top" xlink:title="Send data via BLE wirelessly.">
<polygon fill="white" stroke="black" points="77,-0.5 77,-19.5 130,-19.5 130,-0.5 77,-0.5"/>
<text text-anchor="middle" x="103.5" y="-7.5" font-family="Helvetica,sans-Serif" font-size="10.00">ble/ble.c</text>
</a>
</g>
</g>
<!-- Node1&#45;&gt;Node3 -->
<g id="edge2" class="edge"><title>Node1&#45;&gt;Node3</title>
<path fill="none" stroke="midnightblue" d="M271.776,-53.9189C235.948,-44.8307 183.933,-31.6167 138.5,-20 135.825,-19.3161 133.036,-18.6015 130.251,-17.8868"/>
<polygon fill="midnightblue" stroke="midnightblue" points="271.337,-57.4183 281.89,-56.4842 273.058,-50.6332 271.337,-57.4183"/>
</g>
<!-- Node4 -->
<g id="node4" class="node"><title>Node4</title>
<g id="a_node4"><a xlink:href="uart_8c.html" target="_top" xlink:title="UART communication with BLE.">
<polygon fill="white" stroke="black" points="148,-0.5 148,-19.5 205,-19.5 205,-0.5 148,-0.5"/>
<text text-anchor="middle" x="176.5" y="-7.5" font-family="Helvetica,sans-Serif" font-size="10.00">ble/uart.c</text>
</a>
</g>
</g>
<!-- Node1&#45;&gt;Node4 -->
<g id="edge3" class="edge"><title>Node1&#45;&gt;Node4</title>
<path fill="none" stroke="midnightblue" d="M284.024,-52.772C257.915,-42.6287 221.461,-28.4669 198.422,-19.5164"/>
<polygon fill="midnightblue" stroke="midnightblue" points="282.886,-56.0847 293.475,-56.4435 285.421,-49.5598 282.886,-56.0847"/>
</g>
<!-- Node5 -->
<g id="node5" class="node"><title>Node5</title>
<g id="a_node5"><a xlink:href="dbprint_8c.html" target="_top" xlink:title="Homebrew println/printf replacement &quot;DeBugPrint&quot;.">
<polygon fill="white" stroke="black" points="223.5,-0.5 223.5,-19.5 309.5,-19.5 309.5,-0.5 223.5,-0.5"/>
<text text-anchor="middle" x="266.5" y="-7.5" font-family="Helvetica,sans-Serif" font-size="10.00">dbprint/dbprint.c</text>
</a>
</g>
</g>
<!-- Node1&#45;&gt;Node5 -->
<g id="edge4" class="edge"><title>Node1&#45;&gt;Node5</title>
<path fill="none" stroke="midnightblue" d="M300.466,-48.4314C291.878,-38.9673 281.457,-27.4827 274.441,-19.7511"/>
<polygon fill="midnightblue" stroke="midnightblue" points="298.097,-51.0293 307.409,-56.083 303.281,-46.3254 298.097,-51.0293"/>
</g>
<!-- Node6 -->
<g id="node6" class="node"><title>Node6</title>
<g id="a_node6"><a xlink:href="delay_8c.html" target="_top" xlink:title="Delay functionality.">
<polygon fill="white" stroke="black" points="327.5,-0.5 327.5,-19.5 401.5,-19.5 401.5,-0.5 327.5,-0.5"/>
<text text-anchor="middle" x="364.5" y="-7.5" font-family="Helvetica,sans-Serif" font-size="10.00">delay/delay.c</text>
</a>
</g>
</g>
<!-- Node1&#45;&gt;Node6 -->
<g id="edge5" class="edge"><title>Node1&#45;&gt;Node6</title>
<path fill="none" stroke="midnightblue" d="M330.534,-48.4314C339.122,-38.9673 349.543,-27.4827 356.559,-19.7511"/>
<polygon fill="midnightblue" stroke="midnightblue" points="327.719,-46.3254 323.591,-56.083 332.903,-51.0293 327.719,-46.3254"/>
</g>
<!-- Node7 -->
<g id="node7" class="node"><title>Node7</title>
<g id="a_node7"><a xlink:href="_i_c_m20948_8c.html" target="_top" xlink:title="Advanced funcions to control and read data from the ICM&#45;20948.">
<polygon fill="white" stroke="black" points="419.5,-0.5 419.5,-19.5 539.5,-19.5 539.5,-0.5 419.5,-0.5"/>
<text text-anchor="middle" x="479.5" y="-7.5" font-family="Helvetica,sans-Serif" font-size="10.00">ICM_20948/ICM20948.c</text>
</a>
</g>
</g>
<!-- Node1&#45;&gt;Node7 -->
<g id="edge6" class="edge"><title>Node1&#45;&gt;Node7</title>
<path fill="none" stroke="midnightblue" d="M351.02,-53.3044C381.922,-43.1294 425.973,-28.6246 453.635,-19.5164"/>
<polygon fill="midnightblue" stroke="midnightblue" points="349.89,-49.9915 341.486,-56.4435 352.079,-56.6404 349.89,-49.9915"/>
</g>
<!-- Node8 -->
<g id="node8" class="node"><title>Node8</title>
<g id="a_node8"><a xlink:href="interrupt_8c.html" target="_top" xlink:title="Code to detect and generate interrupts.">
<polygon fill="white" stroke="black" points="557.5,-0.5 557.5,-19.5 655.5,-19.5 655.5,-0.5 557.5,-0.5"/>
<text text-anchor="middle" x="606.5" y="-7.5" font-family="Helvetica,sans-Serif" font-size="10.00">interrupt/interrupt.c</text>
</a>
</g>
</g>
<!-- Node1&#45;&gt;Node8 -->
<g id="edge7" class="edge"><title>Node1&#45;&gt;Node8</title>
<path fill="none" stroke="midnightblue" d="M371.541,-54.6007C426.536,-44.3953 509.398,-29.0189 560.606,-19.5164"/>
<polygon fill="midnightblue" stroke="midnightblue" points="370.803,-51.1777 361.61,-56.4435 372.081,-58.0602 370.803,-51.1777"/>
</g>
<!-- Node9 -->
<g id="node9" class="node"><title>Node9</title>
<g id="a_node9"><a xlink:href="main_8c.html" target="_top" xlink:title="Code used in master thesis, MAIN FILE.">
<polygon fill="white" stroke="black" points="673.5,-0.5 673.5,-19.5 735.5,-19.5 735.5,-0.5 673.5,-0.5"/>
<text text-anchor="middle" x="704.5" y="-7.5" font-family="Helvetica,sans-Serif" font-size="10.00">src/main.c</text>
</a>
</g>
</g>
<!-- Node1&#45;&gt;Node9 -->
<g id="edge8" class="edge"><title>Node1&#45;&gt;Node9</title>
<path fill="none" stroke="midnightblue" d="M384.836,-57.9839C455.469,-50.3862 568.024,-37.0353 664.5,-20 667.304,-19.5049 670.208,-18.9448 673.113,-18.3521"/>
<polygon fill="midnightblue" stroke="midnightblue" points="384.298,-54.5214 374.726,-59.0629 385.041,-61.4819 384.298,-54.5214"/>
</g>
</g>
</svg>
