<?xml version="1.0" encoding="UTF-8" standalone="no"?>
<!DOCTYPE svg PUBLIC "-//W3C//DTD SVG 1.1//EN"
 "http://www.w3.org/Graphics/SVG/1.1/DTD/svg11.dtd">
<!-- Generated by graphviz version 2.38.0 (20140413.2041)
 -->
<!-- Title: delay/delay.h Pages: 1 -->
<svg width="488pt" height="84pt"
 viewBox="0.00 0.00 487.50 84.00" xmlns="http://www.w3.org/2000/svg" xmlns:xlink="http://www.w3.org/1999/xlink">
<g id="graph0" class="graph" transform="scale(1 1) rotate(0) translate(4 80)">
<title>delay/delay.h</title>
<polygon fill="white" stroke="none" points="-4,4 -4,-80 483.5,-80 483.5,4 -4,4"/>
<!-- Node1 -->
<g id="node1" class="node"><title>Node1</title>
<g id="a_node1"><a xlink:title="Delay functionality.">
<polygon fill="#bfbfbf" stroke="black" points="186.5,-56.5 186.5,-75.5 260.5,-75.5 260.5,-56.5 186.5,-56.5"/>
<text text-anchor="middle" x="223.5" y="-63.5" font-family="Helvetica,sans-Serif" font-size="10.00">delay/delay.h</text>
</a>
</g>
</g>
<!-- Node2 -->
<g id="node2" class="node"><title>Node2</title>
<g id="a_node2"><a xlink:href="ble_8c.html" target="_top" xlink:title="Send data via BLE wirelessly.">
<polygon fill="white" stroke="black" points="0,-0.5 0,-19.5 53,-19.5 53,-0.5 0,-0.5"/>
<text text-anchor="middle" x="26.5" y="-7.5" font-family="Helvetica,sans-Serif" font-size="10.00">ble/ble.c</text>
</a>
</g>
</g>
<!-- Node1&#45;&gt;Node2 -->
<g id="edge1" class="edge"><title>Node1&#45;&gt;Node2</title>
<path fill="none" stroke="midnightblue" d="M182.335,-53.7163C143.479,-43.0653 86.3604,-27.4084 53.1467,-18.3042"/>
<polygon fill="midnightblue" stroke="midnightblue" points="181.715,-57.1754 192.285,-56.4435 183.566,-50.4244 181.715,-57.1754"/>
</g>
<!-- Node3 -->
<g id="node3" class="node"><title>Node3</title>
<g id="a_node3"><a xlink:href="delay_8c.html" target="_top" xlink:title="Delay functionality.">
<polygon fill="white" stroke="black" points="71.5,-0.5 71.5,-19.5 145.5,-19.5 145.5,-0.5 71.5,-0.5"/>
<text text-anchor="middle" x="108.5" y="-7.5" font-family="Helvetica,sans-Serif" font-size="10.00">delay/delay.c</text>
</a>
</g>
</g>
<!-- Node1&#45;&gt;Node3 -->
<g id="edge2" class="edge"><title>Node1&#45;&gt;Node3</title>
<path fill="none" stroke="midnightblue" d="M196.019,-52.096C174.534,-42.0073 145.278,-28.2697 126.637,-19.5164"/>
<polygon fill="midnightblue" stroke="midnightblue" points="194.738,-55.3612 205.278,-56.4435 197.714,-49.025 194.738,-55.3612"/>
</g>
<!-- Node4 -->
<g id="node4" class="node"><title>Node4</title>
<g id="a_node4"><a xlink:href="_i_c_m20948_8c.html" target="_top" xlink:title="Advanced funcions to control and read data from the ICM&#45;20948.">
<polygon fill="white" stroke="black" points="163.5,-0.5 163.5,-19.5 283.5,-19.5 283.5,-0.5 163.5,-0.5"/>
<text text-anchor="middle" x="223.5" y="-7.5" font-family="Helvetica,sans-Serif" font-size="10.00">ICM_20948/ICM20948.c</text>
</a>
</g>
</g>
<!-- Node1&#45;&gt;Node4 -->
<g id="edge3" class="edge"><title>Node1&#45;&gt;Node4</title>
<path fill="none" stroke="midnightblue" d="M223.5,-45.8045C223.5,-36.9102 223.5,-26.7798 223.5,-19.7511"/>
<polygon fill="midnightblue" stroke="midnightblue" points="220,-46.083 223.5,-56.083 227,-46.083 220,-46.083"/>
</g>
<!-- Node5 -->
<g id="node5" class="node"><title>Node5</title>
<g id="a_node5"><a xlink:href="interrupt_8c.html" target="_top" xlink:title="Code to detect and generate interrupts.">
<polygon fill="white" stroke="black" points="301.5,-0.5 301.5,-19.5 399.5,-19.5 399.5,-0.5 301.5,-0.5"/>
<text text-anchor="middle" x="350.5" y="-7.5" font-family="Helvetica,sans-Serif" font-size="10.00">interrupt/interrupt.c</text>
</a>
</g>
</g>
<!-- Node1&#45;&gt;Node5 -->
<g id="edge4" class="edge"><title>Node1&#45;&gt;Node5</title>
<path fill="none" stroke="midnightblue" d="M252.891,-52.503C276.7,-42.3795 309.606,-28.388 330.471,-19.5164"/>
<polygon fill="midnightblue" stroke="midnightblue" points="251.457,-49.3096 243.624,-56.4435 254.196,-55.7515 251.457,-49.3096"/>
</g>
<!-- Node6 -->
<g id="node6" class="node"><title>Node6</title>
<g id="a_node6"><a xlink:href="main_8c.html" target="_top" xlink:title="Code used in master thesis, MAIN FILE.">
<polygon fill="white" stroke="black" points="417.5,-0.5 417.5,-19.5 479.5,-19.5 479.5,-0.5 417.5,-0.5"/>
<text text-anchor="middle" x="448.5" y="-7.5" font-family="Helvetica,sans-Serif" font-size="10.00">src/main.c</text>
</a>
</g>
</g>
<!-- Node1&#45;&gt;Node6 -->
<g id="edge5" class="edge"><title>Node1&#45;&gt;Node6</title>
<path fill="none" stroke="midnightblue" d="M269.048,-54.0686C313.175,-43.478 378.905,-27.7028 417.362,-18.473"/>
<polygon fill="midnightblue" stroke="midnightblue" points="268.059,-50.7064 259.152,-56.4435 269.693,-57.5131 268.059,-50.7064"/>
</g>
</g>
</svg>
