<?xml version="1.0" encoding="UTF-8" standalone="no"?>
<!DOCTYPE svg PUBLIC "-//W3C//DTD SVG 1.1//EN"
 "http://www.w3.org/Graphics/SVG/1.1/DTD/svg11.dtd">
<!-- Generated by graphviz version 2.38.0 (20140413.2041)
 -->
<!-- Title: delay/delay.c Pages: 1 -->
<svg width="629pt" height="140pt"
 viewBox="0.00 0.00 628.50 140.00" xmlns="http://www.w3.org/2000/svg" xmlns:xlink="http://www.w3.org/1999/xlink">
<g id="graph0" class="graph" transform="scale(1 1) rotate(0) translate(4 136)">
<title>delay/delay.c</title>
<polygon fill="white" stroke="none" points="-4,4 -4,-136 624.5,-136 624.5,4 -4,4"/>
<!-- Node1 -->
<g id="node1" class="node"><title>Node1</title>
<g id="a_node1"><a xlink:title="Delay functionality.">
<polygon fill="#bfbfbf" stroke="black" points="256.5,-112.5 256.5,-131.5 330.5,-131.5 330.5,-112.5 256.5,-112.5"/>
<text text-anchor="middle" x="293.5" y="-119.5" font-family="Helvetica,sans-Serif" font-size="10.00">delay/delay.c</text>
</a>
</g>
</g>
<!-- Node2 -->
<g id="node2" class="node"><title>Node2</title>
<g id="a_node2"><a xlink:title=" ">
<polygon fill="white" stroke="#bfbfbf" points="0,-0.5 0,-19.5 49,-19.5 49,-0.5 0,-0.5"/>
<text text-anchor="middle" x="24.5" y="-7.5" font-family="Helvetica,sans-Serif" font-size="10.00">stdint.h</text>
</a>
</g>
</g>
<!-- Node1&#45;&gt;Node2 -->
<g id="edge1" class="edge"><title>Node1&#45;&gt;Node2</title>
<path fill="none" stroke="midnightblue" d="M256.301,-120.633C188.209,-119.087 47.7278,-111.555 17.5,-76 6.61504,-63.1966 10.6627,-43.4602 16.011,-29.0933"/>
<polygon fill="midnightblue" stroke="midnightblue" points="19.2871,-30.3316 19.9403,-19.7569 12.8352,-27.6162 19.2871,-30.3316"/>
</g>
<!-- Node3 -->
<g id="node3" class="node"><title>Node3</title>
<g id="a_node3"><a xlink:title=" ">
<polygon fill="white" stroke="#bfbfbf" points="285.5,-0.5 285.5,-19.5 341.5,-19.5 341.5,-0.5 285.5,-0.5"/>
<text text-anchor="middle" x="313.5" y="-7.5" font-family="Helvetica,sans-Serif" font-size="10.00">stdbool.h</text>
</a>
</g>
</g>
<!-- Node1&#45;&gt;Node3 -->
<g id="edge2" class="edge"><title>Node1&#45;&gt;Node3</title>
<path fill="none" stroke="midnightblue" d="M330.796,-117.767C381.558,-112.506 468.303,-100.16 487.5,-76 525.144,-28.6247 414.118,-15.7778 352.143,-12.2949"/>
<polygon fill="midnightblue" stroke="midnightblue" points="352.082,-8.78744 341.918,-11.7796 351.729,-15.7786 352.082,-8.78744"/>
</g>
<!-- Node4 -->
<g id="node4" class="node"><title>Node4</title>
<g id="a_node4"><a xlink:title=" ">
<polygon fill="white" stroke="#bfbfbf" points="93,-56.5 93,-75.5 164,-75.5 164,-56.5 93,-56.5"/>
<text text-anchor="middle" x="128.5" y="-63.5" font-family="Helvetica,sans-Serif" font-size="10.00">em_device.h</text>
</a>
</g>
</g>
<!-- Node1&#45;&gt;Node4 -->
<g id="edge3" class="edge"><title>Node1&#45;&gt;Node4</title>
<path fill="none" stroke="midnightblue" d="M267.355,-112.444C239.477,-103.32 195.152,-88.8133 164.1,-78.6509"/>
<polygon fill="midnightblue" stroke="midnightblue" points="165.115,-75.3005 154.522,-75.5164 162.938,-81.9533 165.115,-75.3005"/>
</g>
<!-- Node5 -->
<g id="node5" class="node"><title>Node5</title>
<g id="a_node5"><a xlink:title=" ">
<polygon fill="white" stroke="#bfbfbf" points="182.5,-56.5 182.5,-75.5 244.5,-75.5 244.5,-56.5 182.5,-56.5"/>
<text text-anchor="middle" x="213.5" y="-63.5" font-family="Helvetica,sans-Serif" font-size="10.00">em_cmu.h</text>
</a>
</g>
</g>
<!-- Node1&#45;&gt;Node5 -->
<g id="edge4" class="edge"><title>Node1&#45;&gt;Node5</title>
<path fill="none" stroke="midnightblue" d="M280.647,-112.324C268.284,-103.979 249.37,-91.2122 234.763,-81.3524"/>
<polygon fill="midnightblue" stroke="midnightblue" points="236.568,-78.3483 226.321,-75.6545 232.652,-84.1503 236.568,-78.3483"/>
</g>
<!-- Node6 -->
<g id="node6" class="node"><title>Node6</title>
<g id="a_node6"><a xlink:title=" ">
<polygon fill="white" stroke="#bfbfbf" points="262.5,-56.5 262.5,-75.5 324.5,-75.5 324.5,-56.5 262.5,-56.5"/>
<text text-anchor="middle" x="293.5" y="-63.5" font-family="Helvetica,sans-Serif" font-size="10.00">em_emu.h</text>
</a>
</g>
</g>
<!-- Node1&#45;&gt;Node6 -->
<g id="edge5" class="edge"><title>Node1&#45;&gt;Node6</title>
<path fill="none" stroke="midnightblue" d="M293.5,-112.083C293.5,-105.006 293.5,-94.8611 293.5,-85.9865"/>
<polygon fill="midnightblue" stroke="midnightblue" points="297,-85.751 293.5,-75.7511 290,-85.7511 297,-85.751"/>
</g>
<!-- Node7 -->
<g id="node7" class="node"><title>Node7</title>
<g id="a_node7"><a xlink:title=" ">
<polygon fill="white" stroke="#bfbfbf" points="342.5,-56.5 342.5,-75.5 404.5,-75.5 404.5,-56.5 342.5,-56.5"/>
<text text-anchor="middle" x="373.5" y="-63.5" font-family="Helvetica,sans-Serif" font-size="10.00">em_gpio.h</text>
</a>
</g>
</g>
<!-- Node1&#45;&gt;Node7 -->
<g id="edge6" class="edge"><title>Node1&#45;&gt;Node7</title>
<path fill="none" stroke="midnightblue" d="M306.353,-112.324C318.716,-103.979 337.63,-91.2122 352.237,-81.3524"/>
<polygon fill="midnightblue" stroke="midnightblue" points="354.348,-84.1503 360.679,-75.6545 350.432,-78.3483 354.348,-84.1503"/>
</g>
<!-- Node8 -->
<g id="node8" class="node"><title>Node8</title>
<g id="a_node8"><a xlink:title=" ">
<polygon fill="white" stroke="#bfbfbf" points="423,-56.5 423,-75.5 478,-75.5 478,-56.5 423,-56.5"/>
<text text-anchor="middle" x="450.5" y="-63.5" font-family="Helvetica,sans-Serif" font-size="10.00">em_rtc.h</text>
</a>
</g>
</g>
<!-- Node1&#45;&gt;Node8 -->
<g id="edge7" class="edge"><title>Node1&#45;&gt;Node8</title>
<path fill="none" stroke="midnightblue" d="M318.377,-112.444C344.789,-103.359 386.715,-88.9388 416.242,-78.7831"/>
<polygon fill="midnightblue" stroke="midnightblue" points="417.421,-82.0787 425.739,-75.5164 415.145,-75.4593 417.421,-82.0787"/>
</g>
<!-- Node9 -->
<g id="node9" class="node"><title>Node9</title>
<g id="a_node9"><a xlink:href="delay_8h.html" target="_top" xlink:title="Delay functionality.">
<polygon fill="white" stroke="black" points="26.5,-56.5 26.5,-75.5 74.5,-75.5 74.5,-56.5 26.5,-56.5"/>
<text text-anchor="middle" x="50.5" y="-63.5" font-family="Helvetica,sans-Serif" font-size="10.00">delay.h</text>
</a>
</g>
</g>
<!-- Node1&#45;&gt;Node9 -->
<g id="edge8" class="edge"><title>Node1&#45;&gt;Node9</title>
<path fill="none" stroke="midnightblue" d="M256.183,-113.651C216.141,-105.622 150.452,-92.0416 84.7292,-76.198"/>
<polygon fill="midnightblue" stroke="midnightblue" points="85.1544,-72.6996 74.6108,-73.7405 83.5023,-79.5018 85.1544,-72.6996"/>
</g>
<!-- Node10 -->
<g id="node10" class="node"><title>Node10</title>
<g id="a_node10"><a xlink:href="debug__dbprint_8h.html" target="_top" xlink:title="Enable or disable printing to UART with dbprint.">
<polygon fill="white" stroke="black" points="534.5,-56.5 534.5,-75.5 620.5,-75.5 620.5,-56.5 534.5,-56.5"/>
<text text-anchor="middle" x="577.5" y="-63.5" font-family="Helvetica,sans-Serif" font-size="10.00">debug_dbprint.h</text>
</a>
</g>
</g>
<!-- Node1&#45;&gt;Node10 -->
<g id="edge11" class="edge"><title>Node1&#45;&gt;Node10</title>
<path fill="none" stroke="midnightblue" d="M330.628,-113.94C380.027,-104.548 467.684,-87.8805 524.157,-77.1426"/>
<polygon fill="midnightblue" stroke="midnightblue" points="525.153,-80.5161 534.323,-75.2097 523.845,-73.6393 525.153,-80.5161"/>
</g>
<!-- Node9&#45;&gt;Node2 -->
<g id="edge9" class="edge"><title>Node9&#45;&gt;Node2</title>
<path fill="none" stroke="midnightblue" d="M46.2066,-56.083C42.6477,-48.6913 37.4775,-37.9533 33.0757,-28.8111"/>
<polygon fill="midnightblue" stroke="midnightblue" points="36.2052,-27.2427 28.7135,-19.7511 29.8982,-30.2795 36.2052,-27.2427"/>
</g>
<!-- Node9&#45;&gt;Node3 -->
<g id="edge10" class="edge"><title>Node9&#45;&gt;Node3</title>
<path fill="none" stroke="midnightblue" d="M74.5988,-58.2093C77.5881,-57.4315 80.6088,-56.6761 83.5,-56 150.579,-40.3129 229.535,-25.6922 275.316,-17.5891"/>
<polygon fill="midnightblue" stroke="midnightblue" points="276.147,-20.9967 285.389,-15.8167 274.934,-14.1026 276.147,-20.9967"/>
</g>
</g>
</svg>
