<?xml version="1.0" encoding="UTF-8" standalone="no"?>
<!DOCTYPE svg PUBLIC "-//W3C//DTD SVG 1.1//EN"
 "http://www.w3.org/Graphics/SVG/1.1/DTD/svg11.dtd">
<!-- Generated by graphviz version 2.38.0 (20140413.2041)
 -->
<!-- Title: interrupt Pages: 1 -->
<svg width="147pt" height="188pt"
 viewBox="0.00 0.00 146.93 188.00" xmlns="http://www.w3.org/2000/svg" xmlns:xlink="http://www.w3.org/1999/xlink">
<g id="graph0" class="graph" transform="scale(1 1) rotate(0) translate(4 184)">
<title>interrupt</title>
<polygon fill="white" stroke="none" points="-4,4 -4,-184 142.934,-184 142.934,4 -4,4"/>
<!-- dir_f0d072a8baab196d3c972192518927a4 -->
<g id="node1" class="node"><title>dir_f0d072a8baab196d3c972192518927a4</title>
<g id="a_node1"><a xlink:href="dir_f0d072a8baab196d3c972192518927a4.html" target="_top" xlink:title="interrupt">
<polygon fill="#eeeeff" stroke="black" points="126,-180 72,-180 72,-144 126,-144 126,-180"/>
<text text-anchor="middle" x="99" y="-159.5" font-family="Helvetica,sans-Serif" font-size="10.00">interrupt</text>
</a>
</g>
</g>
<!-- dir_cd5c06f81069e8c06c8ba7f93ddccad7 -->
<g id="node2" class="node"><title>dir_cd5c06f81069e8c06c8ba7f93ddccad7</title>
<g id="a_node2"><a xlink:href="dir_cd5c06f81069e8c06c8ba7f93ddccad7.html" target="_top" xlink:title="delay">
<polygon fill="none" stroke="black" points="54,-108 0,-108 0,-72 54,-72 54,-108"/>
<text text-anchor="middle" x="27" y="-87.5" font-family="Helvetica,sans-Serif" font-size="10.00">delay</text>
</a>
</g>
</g>
<!-- dir_f0d072a8baab196d3c972192518927a4&#45;&gt;dir_cd5c06f81069e8c06c8ba7f93ddccad7 -->
<g id="edge2" class="edge"><title>dir_f0d072a8baab196d3c972192518927a4&#45;&gt;dir_cd5c06f81069e8c06c8ba7f93ddccad7</title>
<path fill="none" stroke="black" d="M81.2022,-143.697C72.396,-135.135 61.6179,-124.656 51.9989,-115.304"/>
<polygon fill="black" stroke="black" points="54.2028,-112.566 44.593,-108.104 49.3232,-117.585 54.2028,-112.566"/>
<g id="a_edge2&#45;headlabel"><a xlink:href="dir_000007_000004.html" target="_top" xlink:title="1">
<text text-anchor="middle" x="58.7593" y="-110.536" font-family="Helvetica,sans-Serif" font-size="10.00">1</text>
</a>
</g>
</g>
<!-- dir_bfccd401955b95cf8c75461437045ac0 -->
<g id="node3" class="node"><title>dir_bfccd401955b95cf8c75461437045ac0</title>
<g id="a_node3"><a xlink:href="dir_bfccd401955b95cf8c75461437045ac0.html" target="_top" xlink:title="inc">
<polygon fill="none" stroke="black" points="126,-108 72,-108 72,-72 126,-72 126,-108"/>
<text text-anchor="middle" x="99" y="-87.5" font-family="Helvetica,sans-Serif" font-size="10.00">inc</text>
</a>
</g>
</g>
<!-- dir_f0d072a8baab196d3c972192518927a4&#45;&gt;dir_bfccd401955b95cf8c75461437045ac0 -->
<g id="edge3" class="edge"><title>dir_f0d072a8baab196d3c972192518927a4&#45;&gt;dir_bfccd401955b95cf8c75461437045ac0</title>
<path fill="none" stroke="black" d="M99,-143.697C99,-135.983 99,-126.712 99,-118.112"/>
<polygon fill="black" stroke="black" points="102.5,-118.104 99,-108.104 95.5001,-118.104 102.5,-118.104"/>
<g id="a_edge3&#45;headlabel"><a xlink:href="dir_000007_000006.html" target="_top" xlink:title="1">
<text text-anchor="middle" x="105.339" y="-119.199" font-family="Helvetica,sans-Serif" font-size="10.00">1</text>
</a>
</g>
</g>
<!-- dir_ca5fbc3f6f6667caf4918c667fbe5e47 -->
<g id="node4" class="node"><title>dir_ca5fbc3f6f6667caf4918c667fbe5e47</title>
<g id="a_node4"><a xlink:href="dir_ca5fbc3f6f6667caf4918c667fbe5e47.html" target="_top" xlink:title="dbprint">
<polygon fill="none" stroke="black" points="117,-36 63,-36 63,-0 117,-0 117,-36"/>
<text text-anchor="middle" x="90" y="-15.5" font-family="Helvetica,sans-Serif" font-size="10.00">dbprint</text>
</a>
</g>
</g>
<!-- dir_f0d072a8baab196d3c972192518927a4&#45;&gt;dir_ca5fbc3f6f6667caf4918c667fbe5e47 -->
<g id="edge4" class="edge"><title>dir_f0d072a8baab196d3c972192518927a4&#45;&gt;dir_ca5fbc3f6f6667caf4918c667fbe5e47</title>
<path fill="none" stroke="black" d="M114.61,-143.774C122.373,-134.03 130.946,-121.184 135,-108 139.703,-92.7067 140.516,-87.0191 135,-72 131.216,-61.6962 124.442,-52.0249 117.28,-43.837"/>
<polygon fill="black" stroke="black" points="119.769,-41.3751 110.379,-36.469 114.66,-46.1603 119.769,-41.3751"/>
<g id="a_edge4&#45;headlabel"><a xlink:href="dir_000007_000003.html" target="_top" xlink:title="1">
<text text-anchor="middle" x="124.299" y="-39.5577" font-family="Helvetica,sans-Serif" font-size="10.00">1</text>
</a>
</g>
</g>
<!-- dir_cd5c06f81069e8c06c8ba7f93ddccad7&#45;&gt;dir_ca5fbc3f6f6667caf4918c667fbe5e47 -->
<g id="edge1" class="edge"><title>dir_cd5c06f81069e8c06c8ba7f93ddccad7&#45;&gt;dir_ca5fbc3f6f6667caf4918c667fbe5e47</title>
<path fill="none" stroke="black" d="M42.573,-71.6966C50.2022,-63.2198 59.5228,-52.8636 67.8757,-43.5826"/>
<polygon fill="black" stroke="black" points="70.518,-45.8787 74.6061,-36.1043 65.3149,-41.1959 70.518,-45.8787"/>
<g id="a_edge1&#45;headlabel"><a xlink:href="dir_000004_000003.html" target="_top" xlink:title="1">
<text text-anchor="middle" x="70.2237" y="-47.9499" font-family="Helvetica,sans-Serif" font-size="10.00">1</text>
</a>
</g>
</g>
</g>
</svg>
