<?xml version="1.0" encoding="UTF-8" standalone="no"?>
<!DOCTYPE svg PUBLIC "-//W3C//DTD SVG 1.1//EN"
 "http://www.w3.org/Graphics/SVG/1.1/DTD/svg11.dtd">
<!-- Generated by graphviz version 2.38.0 (20140413.2041)
 -->
<!-- Title: ICM_20948 Pages: 1 -->
<svg width="210pt" height="188pt"
 viewBox="0.00 0.00 210.00 188.00" xmlns="http://www.w3.org/2000/svg" xmlns:xlink="http://www.w3.org/1999/xlink">
<g id="graph0" class="graph" transform="scale(1 1) rotate(0) translate(4 184)">
<title>ICM_20948</title>
<polygon fill="white" stroke="none" points="-4,4 -4,-184 206,-184 206,4 -4,4"/>
<!-- dir_a09558a34147725174ab6a4ec37f0469 -->
<g id="node1" class="node"><title>dir_a09558a34147725174ab6a4ec37f0469</title>
<g id="a_node1"><a xlink:href="dir_a09558a34147725174ab6a4ec37f0469.html" target="_top" xlink:title="ICM_20948">
<polygon fill="#eeeeff" stroke="black" points="133.5,-180 68.5,-180 68.5,-144 133.5,-144 133.5,-180"/>
<text text-anchor="middle" x="101" y="-159.5" font-family="Helvetica,sans-Serif" font-size="10.00">ICM_20948</text>
</a>
</g>
</g>
<!-- dir_cd5c06f81069e8c06c8ba7f93ddccad7 -->
<g id="node2" class="node"><title>dir_cd5c06f81069e8c06c8ba7f93ddccad7</title>
<g id="a_node2"><a xlink:href="dir_cd5c06f81069e8c06c8ba7f93ddccad7.html" target="_top" xlink:title="delay">
<polygon fill="none" stroke="black" points="54,-108 0,-108 0,-72 54,-72 54,-108"/>
<text text-anchor="middle" x="27" y="-87.5" font-family="Helvetica,sans-Serif" font-size="10.00">delay</text>
</a>
</g>
</g>
<!-- dir_a09558a34147725174ab6a4ec37f0469&#45;&gt;dir_cd5c06f81069e8c06c8ba7f93ddccad7 -->
<g id="edge2" class="edge"><title>dir_a09558a34147725174ab6a4ec37f0469&#45;&gt;dir_cd5c06f81069e8c06c8ba7f93ddccad7</title>
<path fill="none" stroke="black" d="M82.7079,-143.697C73.5674,-135.05 62.3599,-124.449 52.4,-115.027"/>
<polygon fill="black" stroke="black" points="54.7516,-112.434 45.0817,-108.104 49.9412,-117.519 54.7516,-112.434"/>
<g id="a_edge2&#45;headlabel"><a xlink:href="dir_000026_000004.html" target="_top" xlink:title="2">
<text text-anchor="middle" x="59.3141" y="-110.341" font-family="Helvetica,sans-Serif" font-size="10.00">2</text>
</a>
</g>
</g>
<!-- dir_bfccd401955b95cf8c75461437045ac0 -->
<g id="node3" class="node"><title>dir_bfccd401955b95cf8c75461437045ac0</title>
<g id="a_node3"><a xlink:href="dir_bfccd401955b95cf8c75461437045ac0.html" target="_top" xlink:title="inc">
<polygon fill="none" stroke="black" points="174,-36 120,-36 120,-0 174,-0 174,-36"/>
<text text-anchor="middle" x="147" y="-15.5" font-family="Helvetica,sans-Serif" font-size="10.00">inc</text>
</a>
</g>
</g>
<!-- dir_a09558a34147725174ab6a4ec37f0469&#45;&gt;dir_bfccd401955b95cf8c75461437045ac0 -->
<g id="edge3" class="edge"><title>dir_a09558a34147725174ab6a4ec37f0469&#45;&gt;dir_bfccd401955b95cf8c75461437045ac0</title>
<path fill="none" stroke="black" d="M106.549,-143.871C114.423,-119.564 128.918,-74.8187 138.249,-46.0132"/>
<polygon fill="black" stroke="black" points="141.679,-46.7812 141.432,-36.1893 135.02,-44.6239 141.679,-46.7812"/>
<g id="a_edge3&#45;headlabel"><a xlink:href="dir_000026_000027.html" target="_top" xlink:title="1">
<text text-anchor="middle" x="143.273" y="-48.5758" font-family="Helvetica,sans-Serif" font-size="10.00">1</text>
</a>
</g>
</g>
<!-- dir_3fd242b123a5c0dc8a99f5f0c1394ff4 -->
<g id="node4" class="node"><title>dir_3fd242b123a5c0dc8a99f5f0c1394ff4</title>
<g id="a_node4"><a xlink:href="dir_3fd242b123a5c0dc8a99f5f0c1394ff4.html" target="_top" xlink:title="Comm">
<polygon fill="none" stroke="black" points="202,-108 148,-108 148,-72 202,-72 202,-108"/>
<text text-anchor="middle" x="175" y="-87.5" font-family="Helvetica,sans-Serif" font-size="10.00">Comm</text>
</a>
</g>
</g>
<!-- dir_a09558a34147725174ab6a4ec37f0469&#45;&gt;dir_3fd242b123a5c0dc8a99f5f0c1394ff4 -->
<g id="edge4" class="edge"><title>dir_a09558a34147725174ab6a4ec37f0469&#45;&gt;dir_3fd242b123a5c0dc8a99f5f0c1394ff4</title>
<path fill="none" stroke="black" d="M119.292,-143.697C128.433,-135.05 139.64,-124.449 149.6,-115.027"/>
<polygon fill="black" stroke="black" points="152.059,-117.519 156.918,-108.104 147.248,-112.434 152.059,-117.519"/>
<g id="a_edge4&#45;headlabel"><a xlink:href="dir_000026_000002.html" target="_top" xlink:title="1">
<text text-anchor="middle" x="151.399" y="-119.552" font-family="Helvetica,sans-Serif" font-size="10.00">1</text>
</a>
</g>
</g>
<!-- dir_ca5fbc3f6f6667caf4918c667fbe5e47 -->
<g id="node5" class="node"><title>dir_ca5fbc3f6f6667caf4918c667fbe5e47</title>
<g id="a_node5"><a xlink:href="dir_ca5fbc3f6f6667caf4918c667fbe5e47.html" target="_top" xlink:title="dbprint">
<polygon fill="none" stroke="black" points="64,-36 10,-36 10,-0 64,-0 64,-36"/>
<text text-anchor="middle" x="37" y="-15.5" font-family="Helvetica,sans-Serif" font-size="10.00">dbprint</text>
</a>
</g>
</g>
<!-- dir_a09558a34147725174ab6a4ec37f0469&#45;&gt;dir_ca5fbc3f6f6667caf4918c667fbe5e47 -->
<g id="edge5" class="edge"><title>dir_a09558a34147725174ab6a4ec37f0469&#45;&gt;dir_ca5fbc3f6f6667caf4918c667fbe5e47</title>
<path fill="none" stroke="black" d="M93.9796,-143.821C86.5459,-125.81 74.3413,-96.7419 63,-72 58.9662,-63.2 54.3697,-53.6788 50.1747,-45.1665"/>
<polygon fill="black" stroke="black" points="53.2433,-43.4763 45.6606,-36.0768 46.9738,-46.5899 53.2433,-43.4763"/>
<g id="a_edge5&#45;headlabel"><a xlink:href="dir_000026_000003.html" target="_top" xlink:title="1">
<text text-anchor="middle" x="57.385" y="-42.9329" font-family="Helvetica,sans-Serif" font-size="10.00">1</text>
</a>
</g>
</g>
<!-- dir_cd5c06f81069e8c06c8ba7f93ddccad7&#45;&gt;dir_ca5fbc3f6f6667caf4918c667fbe5e47 -->
<g id="edge1" class="edge"><title>dir_cd5c06f81069e8c06c8ba7f93ddccad7&#45;&gt;dir_ca5fbc3f6f6667caf4918c667fbe5e47</title>
<path fill="none" stroke="black" d="M29.4719,-71.6966C30.5739,-63.9827 31.8982,-54.7125 33.1268,-46.1124"/>
<polygon fill="black" stroke="black" points="36.607,-46.4988 34.5565,-36.1043 29.6774,-45.5088 36.607,-46.4988"/>
<g id="a_edge1&#45;headlabel"><a xlink:href="dir_000004_000003.html" target="_top" xlink:title="1">
<text text-anchor="middle" x="38.9095" y="-47.9588" font-family="Helvetica,sans-Serif" font-size="10.00">1</text>
</a>
</g>
</g>
<!-- dir_3fd242b123a5c0dc8a99f5f0c1394ff4&#45;&gt;dir_bfccd401955b95cf8c75461437045ac0 -->
<g id="edge6" class="edge"><title>dir_3fd242b123a5c0dc8a99f5f0c1394ff4&#45;&gt;dir_bfccd401955b95cf8c75461437045ac0</title>
<path fill="none" stroke="black" d="M168.079,-71.6966C164.925,-63.8132 161.122,-54.3042 157.619,-45.5464"/>
<polygon fill="black" stroke="black" points="160.805,-44.0892 153.842,-36.1043 154.306,-46.689 160.805,-44.0892"/>
<g id="a_edge6&#45;headlabel"><a xlink:href="dir_000002_000027.html" target="_top" xlink:title="1">
<text text-anchor="middle" x="164.777" y="-43.8723" font-family="Helvetica,sans-Serif" font-size="10.00">1</text>
</a>
</g>
</g>
</g>
</svg>
