<?xml version="1.0" encoding="UTF-8" standalone="no"?>
<!DOCTYPE svg PUBLIC "-//W3C//DTD SVG 1.1//EN"
 "http://www.w3.org/Graphics/SVG/1.1/DTD/svg11.dtd">
<!-- Generated by graphviz version 2.38.0 (20140413.2041)
 -->
<!-- Title: src Pages: 1 -->
<svg width="638pt" height="332pt"
 viewBox="0.00 0.00 637.50 332.00" xmlns="http://www.w3.org/2000/svg" xmlns:xlink="http://www.w3.org/1999/xlink">
<g id="graph0" class="graph" transform="scale(1 1) rotate(0) translate(4 328)">
<title>src</title>
<polygon fill="white" stroke="none" points="-4,4 -4,-328 633.5,-328 633.5,4 -4,4"/>
<!-- dir_68267d1309a1af8e8297ef4c3efbcdba -->
<g id="node1" class="node"><title>dir_68267d1309a1af8e8297ef4c3efbcdba</title>
<g id="a_node1"><a xlink:href="dir_68267d1309a1af8e8297ef4c3efbcdba.html" target="_top" xlink:title="src">
<polygon fill="#eeeeff" stroke="black" points="312.5,-324 258.5,-324 258.5,-288 312.5,-288 312.5,-324"/>
<text text-anchor="middle" x="285.5" y="-303.5" font-family="Helvetica,sans-Serif" font-size="10.00">src</text>
</a>
</g>
</g>
<!-- dir_49d027a29ccac6bed9bc09bcf680ad55 -->
<g id="node2" class="node"><title>dir_49d027a29ccac6bed9bc09bcf680ad55</title>
<g id="a_node2"><a xlink:href="dir_49d027a29ccac6bed9bc09bcf680ad55.html" target="_top" xlink:title="sensorfusion">
<polygon fill="none" stroke="black" points="71,-252 0,-252 0,-216 71,-216 71,-252"/>
<text text-anchor="middle" x="35.5" y="-231.5" font-family="Helvetica,sans-Serif" font-size="10.00">sensorfusion</text>
</a>
</g>
</g>
<!-- dir_68267d1309a1af8e8297ef4c3efbcdba&#45;&gt;dir_49d027a29ccac6bed9bc09bcf680ad55 -->
<g id="edge1" class="edge"><title>dir_68267d1309a1af8e8297ef4c3efbcdba&#45;&gt;dir_49d027a29ccac6bed9bc09bcf680ad55</title>
<path fill="none" stroke="black" d="M258.485,-298.467C219.899,-288.995 146.879,-270.543 85.5,-252 84.0463,-251.561 82.5715,-251.107 81.0843,-250.643"/>
<polygon fill="black" stroke="black" points="81.7744,-247.189 71.1831,-247.465 79.6347,-253.854 81.7744,-247.189"/>
<g id="a_edge1&#45;headlabel"><a xlink:href="dir_000009_000008.html" target="_top" xlink:title="1">
<text text-anchor="middle" x="86.0648" y="-243.084" font-family="Helvetica,sans-Serif" font-size="10.00">1</text>
</a>
</g>
</g>
<!-- dir_4dab8a2dc4741d147a951a94aaa47ae7 -->
<g id="node3" class="node"><title>dir_4dab8a2dc4741d147a951a94aaa47ae7</title>
<g id="a_node3"><a xlink:href="dir_4dab8a2dc4741d147a951a94aaa47ae7.html" target="_top" xlink:title="adc">
<polygon fill="none" stroke="black" points="181.5,-180 127.5,-180 127.5,-144 181.5,-144 181.5,-180"/>
<text text-anchor="middle" x="154.5" y="-159.5" font-family="Helvetica,sans-Serif" font-size="10.00">adc</text>
</a>
</g>
</g>
<!-- dir_68267d1309a1af8e8297ef4c3efbcdba&#45;&gt;dir_4dab8a2dc4741d147a951a94aaa47ae7 -->
<g id="edge2" class="edge"><title>dir_68267d1309a1af8e8297ef4c3efbcdba&#45;&gt;dir_4dab8a2dc4741d147a951a94aaa47ae7</title>
<path fill="none" stroke="black" d="M258.127,-294.192C238.572,-285.317 212.77,-271.099 195.5,-252 179.348,-234.137 168.523,-208.816 162.072,-189.747"/>
<polygon fill="black" stroke="black" points="165.384,-188.615 159.012,-180.151 158.715,-190.741 165.384,-188.615"/>
<g id="a_edge2&#45;headlabel"><a xlink:href="dir_000009_000000.html" target="_top" xlink:title="1">
<text text-anchor="middle" x="169.181" y="-188.677" font-family="Helvetica,sans-Serif" font-size="10.00">1</text>
</a>
</g>
</g>
<!-- dir_cd5c06f81069e8c06c8ba7f93ddccad7 -->
<g id="node4" class="node"><title>dir_cd5c06f81069e8c06c8ba7f93ddccad7</title>
<g id="a_node4"><a xlink:href="dir_cd5c06f81069e8c06c8ba7f93ddccad7.html" target="_top" xlink:title="delay">
<polygon fill="none" stroke="black" points="329.5,-108 275.5,-108 275.5,-72 329.5,-72 329.5,-108"/>
<text text-anchor="middle" x="302.5" y="-87.5" font-family="Helvetica,sans-Serif" font-size="10.00">delay</text>
</a>
</g>
</g>
<!-- dir_68267d1309a1af8e8297ef4c3efbcdba&#45;&gt;dir_cd5c06f81069e8c06c8ba7f93ddccad7 -->
<g id="edge3" class="edge"><title>dir_68267d1309a1af8e8297ef4c3efbcdba&#45;&gt;dir_cd5c06f81069e8c06c8ba7f93ddccad7</title>
<path fill="none" stroke="black" d="M269.89,-287.774C262.127,-278.03 253.554,-265.184 249.5,-252 244.797,-236.707 246.313,-231.679 249.5,-216 256.794,-180.11 274.758,-141.739 287.753,-117.12"/>
<polygon fill="black" stroke="black" points="290.961,-118.544 292.628,-108.081 284.8,-115.221 290.961,-118.544"/>
<g id="a_edge3&#45;headlabel"><a xlink:href="dir_000009_000004.html" target="_top" xlink:title="3">
<text text-anchor="middle" x="291.754" y="-120.556" font-family="Helvetica,sans-Serif" font-size="10.00">3</text>
</a>
</g>
</g>
<!-- dir_a09558a34147725174ab6a4ec37f0469 -->
<g id="node5" class="node"><title>dir_a09558a34147725174ab6a4ec37f0469</title>
<g id="a_node5"><a xlink:href="dir_a09558a34147725174ab6a4ec37f0469.html" target="_top" xlink:title="ICM_20948">
<polygon fill="none" stroke="black" points="504,-252 439,-252 439,-216 504,-216 504,-252"/>
<text text-anchor="middle" x="471.5" y="-231.5" font-family="Helvetica,sans-Serif" font-size="10.00">ICM_20948</text>
</a>
</g>
</g>
<!-- dir_68267d1309a1af8e8297ef4c3efbcdba&#45;&gt;dir_a09558a34147725174ab6a4ec37f0469 -->
<g id="edge4" class="edge"><title>dir_68267d1309a1af8e8297ef4c3efbcdba&#45;&gt;dir_a09558a34147725174ab6a4ec37f0469</title>
<path fill="none" stroke="black" d="M312.546,-294.821C343.122,-283.314 393.294,-264.432 429.091,-250.96"/>
<polygon fill="black" stroke="black" points="430.652,-254.113 438.778,-247.315 428.187,-247.561 430.652,-254.113"/>
<g id="a_edge4&#45;headlabel"><a xlink:href="dir_000009_000005.html" target="_top" xlink:title="1">
<text text-anchor="middle" x="428.288" y="-255.536" font-family="Helvetica,sans-Serif" font-size="10.00">1</text>
</a>
</g>
</g>
<!-- dir_f0d072a8baab196d3c972192518927a4 -->
<g id="node6" class="node"><title>dir_f0d072a8baab196d3c972192518927a4</title>
<g id="a_node6"><a xlink:href="dir_f0d072a8baab196d3c972192518927a4.html" target="_top" xlink:title="interrupt">
<polygon fill="none" stroke="black" points="367.5,-180 313.5,-180 313.5,-144 367.5,-144 367.5,-180"/>
<text text-anchor="middle" x="340.5" y="-159.5" font-family="Helvetica,sans-Serif" font-size="10.00">interrupt</text>
</a>
</g>
</g>
<!-- dir_68267d1309a1af8e8297ef4c3efbcdba&#45;&gt;dir_f0d072a8baab196d3c972192518927a4 -->
<g id="edge5" class="edge"><title>dir_68267d1309a1af8e8297ef4c3efbcdba&#45;&gt;dir_f0d072a8baab196d3c972192518927a4</title>
<path fill="none" stroke="black" d="M299.665,-287.851C307.19,-277.93 315.997,-264.89 321.5,-252 329.913,-232.293 334.745,-208.488 337.428,-190.458"/>
<polygon fill="black" stroke="black" points="340.927,-190.705 338.803,-180.326 333.99,-189.764 340.927,-190.705"/>
<g id="a_edge5&#45;headlabel"><a xlink:href="dir_000009_000007.html" target="_top" xlink:title="1">
<text text-anchor="middle" x="343.257" y="-192.149" font-family="Helvetica,sans-Serif" font-size="10.00">1</text>
</a>
</g>
</g>
<!-- dir_bfccd401955b95cf8c75461437045ac0 -->
<g id="node7" class="node"><title>dir_bfccd401955b95cf8c75461437045ac0</title>
<g id="a_node7"><a xlink:href="dir_bfccd401955b95cf8c75461437045ac0.html" target="_top" xlink:title="inc">
<polygon fill="none" stroke="black" points="553.5,-108 499.5,-108 499.5,-72 553.5,-72 553.5,-108"/>
<text text-anchor="middle" x="526.5" y="-87.5" font-family="Helvetica,sans-Serif" font-size="10.00">inc</text>
</a>
</g>
</g>
<!-- dir_68267d1309a1af8e8297ef4c3efbcdba&#45;&gt;dir_bfccd401955b95cf8c75461437045ac0 -->
<g id="edge6" class="edge"><title>dir_68267d1309a1af8e8297ef4c3efbcdba&#45;&gt;dir_bfccd401955b95cf8c75461437045ac0</title>
<path fill="none" stroke="black" d="M312.917,-302.601C367.661,-297.207 487.495,-282.164 513.5,-252 545.526,-214.851 539.858,-153.31 533.054,-118.048"/>
<polygon fill="black" stroke="black" points="536.426,-117.073 530.946,-108.005 529.575,-118.511 536.426,-117.073"/>
<g id="a_edge6&#45;headlabel"><a xlink:href="dir_000009_000006.html" target="_top" xlink:title="3">
<text text-anchor="middle" x="539.943" y="-117.508" font-family="Helvetica,sans-Serif" font-size="10.00">3</text>
</a>
</g>
</g>
<!-- dir_a1371c6ddf4e4dc3efab314eb122f7e8 -->
<g id="node8" class="node"><title>dir_a1371c6ddf4e4dc3efab314eb122f7e8</title>
<g id="a_node8"><a xlink:href="dir_a1371c6ddf4e4dc3efab314eb122f7e8.html" target="_top" xlink:title="ble">
<polygon fill="none" stroke="black" points="312.5,-252 258.5,-252 258.5,-216 312.5,-216 312.5,-252"/>
<text text-anchor="middle" x="285.5" y="-231.5" font-family="Helvetica,sans-Serif" font-size="10.00">ble</text>
</a>
</g>
</g>
<!-- dir_68267d1309a1af8e8297ef4c3efbcdba&#45;&gt;dir_a1371c6ddf4e4dc3efab314eb122f7e8 -->
<g id="edge7" class="edge"><title>dir_68267d1309a1af8e8297ef4c3efbcdba&#45;&gt;dir_a1371c6ddf4e4dc3efab314eb122f7e8</title>
<path fill="none" stroke="black" d="M285.5,-287.697C285.5,-279.983 285.5,-270.712 285.5,-262.112"/>
<polygon fill="black" stroke="black" points="289,-262.104 285.5,-252.104 282,-262.104 289,-262.104"/>
<g id="a_edge7&#45;headlabel"><a xlink:href="dir_000009_000001.html" target="_top" xlink:title="2">
<text text-anchor="middle" x="291.839" y="-263.199" font-family="Helvetica,sans-Serif" font-size="10.00">2</text>
</a>
</g>
</g>
<!-- dir_3fd242b123a5c0dc8a99f5f0c1394ff4 -->
<g id="node9" class="node"><title>dir_3fd242b123a5c0dc8a99f5f0c1394ff4</title>
<g id="a_node9"><a xlink:href="dir_3fd242b123a5c0dc8a99f5f0c1394ff4.html" target="_top" xlink:title="Comm">
<polygon fill="none" stroke="black" points="629.5,-180 575.5,-180 575.5,-144 629.5,-144 629.5,-180"/>
<text text-anchor="middle" x="602.5" y="-159.5" font-family="Helvetica,sans-Serif" font-size="10.00">Comm</text>
</a>
</g>
</g>
<!-- dir_68267d1309a1af8e8297ef4c3efbcdba&#45;&gt;dir_3fd242b123a5c0dc8a99f5f0c1394ff4 -->
<g id="edge8" class="edge"><title>dir_68267d1309a1af8e8297ef4c3efbcdba&#45;&gt;dir_3fd242b123a5c0dc8a99f5f0c1394ff4</title>
<path fill="none" stroke="black" d="M312.899,-302.899C374.766,-297.665 522.895,-282.235 561.5,-252 580.889,-236.815 591.46,-210.343 596.986,-190.206"/>
<polygon fill="black" stroke="black" points="600.422,-190.895 599.436,-180.346 593.628,-189.207 600.422,-190.895"/>
<g id="a_edge8&#45;headlabel"><a xlink:href="dir_000009_000002.html" target="_top" xlink:title="1">
<text text-anchor="middle" x="602.31" y="-192.568" font-family="Helvetica,sans-Serif" font-size="10.00">1</text>
</a>
</g>
</g>
<!-- dir_ca5fbc3f6f6667caf4918c667fbe5e47 -->
<g id="node10" class="node"><title>dir_ca5fbc3f6f6667caf4918c667fbe5e47</title>
<g id="a_node10"><a xlink:href="dir_ca5fbc3f6f6667caf4918c667fbe5e47.html" target="_top" xlink:title="dbprint">
<polygon fill="none" stroke="black" points="301.5,-36 247.5,-36 247.5,-0 301.5,-0 301.5,-36"/>
<text text-anchor="middle" x="274.5" y="-15.5" font-family="Helvetica,sans-Serif" font-size="10.00">dbprint</text>
</a>
</g>
</g>
<!-- dir_68267d1309a1af8e8297ef4c3efbcdba&#45;&gt;dir_ca5fbc3f6f6667caf4918c667fbe5e47 -->
<g id="edge9" class="edge"><title>dir_68267d1309a1af8e8297ef4c3efbcdba&#45;&gt;dir_ca5fbc3f6f6667caf4918c667fbe5e47</title>
<path fill="none" stroke="black" d="M258.407,-297.14C233.361,-288.89 196.105,-274.027 169.5,-252 139.294,-226.992 130.394,-217.367 118.5,-180 96.9414,-112.267 185.54,-59.2353 238.093,-34.4017"/>
<polygon fill="black" stroke="black" points="239.83,-37.4552 247.452,-30.0957 236.904,-31.096 239.83,-37.4552"/>
<g id="a_edge9&#45;headlabel"><a xlink:href="dir_000009_000003.html" target="_top" xlink:title="1">
<text text-anchor="middle" x="237.752" y="-39.037" font-family="Helvetica,sans-Serif" font-size="10.00">1</text>
</a>
</g>
</g>
<!-- dir_4dab8a2dc4741d147a951a94aaa47ae7&#45;&gt;dir_ca5fbc3f6f6667caf4918c667fbe5e47 -->
<g id="edge10" class="edge"><title>dir_4dab8a2dc4741d147a951a94aaa47ae7&#45;&gt;dir_ca5fbc3f6f6667caf4918c667fbe5e47</title>
<path fill="none" stroke="black" d="M168.975,-143.871C189.967,-119.031 228.996,-72.8464 253.254,-44.1415"/>
<polygon fill="black" stroke="black" points="256.193,-46.0864 259.974,-36.1893 250.846,-41.5681 256.193,-46.0864"/>
<g id="a_edge10&#45;headlabel"><a xlink:href="dir_000000_000003.html" target="_top" xlink:title="1">
<text text-anchor="middle" x="256.041" y="-48.1645" font-family="Helvetica,sans-Serif" font-size="10.00">1</text>
</a>
</g>
</g>
<!-- dir_cd5c06f81069e8c06c8ba7f93ddccad7&#45;&gt;dir_ca5fbc3f6f6667caf4918c667fbe5e47 -->
<g id="edge11" class="edge"><title>dir_cd5c06f81069e8c06c8ba7f93ddccad7&#45;&gt;dir_ca5fbc3f6f6667caf4918c667fbe5e47</title>
<path fill="none" stroke="black" d="M295.579,-71.6966C292.425,-63.8132 288.622,-54.3042 285.119,-45.5464"/>
<polygon fill="black" stroke="black" points="288.305,-44.0892 281.342,-36.1043 281.806,-46.689 288.305,-44.0892"/>
<g id="a_edge11&#45;headlabel"><a xlink:href="dir_000004_000003.html" target="_top" xlink:title="1">
<text text-anchor="middle" x="292.277" y="-43.8723" font-family="Helvetica,sans-Serif" font-size="10.00">1</text>
</a>
</g>
</g>
<!-- dir_a09558a34147725174ab6a4ec37f0469&#45;&gt;dir_cd5c06f81069e8c06c8ba7f93ddccad7 -->
<g id="edge12" class="edge"><title>dir_a09558a34147725174ab6a4ec37f0469&#45;&gt;dir_cd5c06f81069e8c06c8ba7f93ddccad7</title>
<path fill="none" stroke="black" d="M454.612,-215.888C436.082,-197.425 405.152,-167.512 376.5,-144 363.895,-133.656 349.428,-123.04 336.649,-114.052"/>
<polygon fill="black" stroke="black" points="338.323,-110.952 328.115,-108.113 334.324,-116.698 338.323,-110.952"/>
<g id="a_edge12&#45;headlabel"><a xlink:href="dir_000005_000004.html" target="_top" xlink:title="2">
<text text-anchor="middle" x="342.895" y="-108.175" font-family="Helvetica,sans-Serif" font-size="10.00">2</text>
</a>
</g>
</g>
<!-- dir_a09558a34147725174ab6a4ec37f0469&#45;&gt;dir_bfccd401955b95cf8c75461437045ac0 -->
<g id="edge13" class="edge"><title>dir_a09558a34147725174ab6a4ec37f0469&#45;&gt;dir_bfccd401955b95cf8c75461437045ac0</title>
<path fill="none" stroke="black" d="M478.134,-215.871C487.591,-191.457 505.032,-146.426 516.184,-117.635"/>
<polygon fill="black" stroke="black" points="519.494,-118.778 519.842,-108.189 512.967,-116.25 519.494,-118.778"/>
<g id="a_edge13&#45;headlabel"><a xlink:href="dir_000005_000006.html" target="_top" xlink:title="1">
<text text-anchor="middle" x="520.843" y="-120.656" font-family="Helvetica,sans-Serif" font-size="10.00">1</text>
</a>
</g>
</g>
<!-- dir_a09558a34147725174ab6a4ec37f0469&#45;&gt;dir_3fd242b123a5c0dc8a99f5f0c1394ff4 -->
<g id="edge14" class="edge"><title>dir_a09558a34147725174ab6a4ec37f0469&#45;&gt;dir_3fd242b123a5c0dc8a99f5f0c1394ff4</title>
<path fill="none" stroke="black" d="M503.546,-215.876C522.51,-205.743 546.587,-192.877 566.243,-182.374"/>
<polygon fill="black" stroke="black" points="568.041,-185.382 575.211,-177.582 564.742,-179.208 568.041,-185.382"/>
<g id="a_edge14&#45;headlabel"><a xlink:href="dir_000005_000002.html" target="_top" xlink:title="1">
<text text-anchor="middle" x="566.209" y="-187.08" font-family="Helvetica,sans-Serif" font-size="10.00">1</text>
</a>
</g>
</g>
<!-- dir_a09558a34147725174ab6a4ec37f0469&#45;&gt;dir_ca5fbc3f6f6667caf4918c667fbe5e47 -->
<g id="edge15" class="edge"><title>dir_a09558a34147725174ab6a4ec37f0469&#45;&gt;dir_ca5fbc3f6f6667caf4918c667fbe5e47</title>
<path fill="none" stroke="black" d="M462.46,-215.736C445.315,-184.211 405.462,-116.484 357.5,-72 343.458,-58.9767 325.814,-47.2031 310.408,-38.0789"/>
<polygon fill="black" stroke="black" points="312.051,-34.9863 301.64,-33.0234 308.554,-41.0505 312.051,-34.9863"/>
<g id="a_edge15&#45;headlabel"><a xlink:href="dir_000005_000003.html" target="_top" xlink:title="1">
<text text-anchor="middle" x="316.583" y="-31.822" font-family="Helvetica,sans-Serif" font-size="10.00">1</text>
</a>
</g>
</g>
<!-- dir_f0d072a8baab196d3c972192518927a4&#45;&gt;dir_cd5c06f81069e8c06c8ba7f93ddccad7 -->
<g id="edge16" class="edge"><title>dir_f0d072a8baab196d3c972192518927a4&#45;&gt;dir_cd5c06f81069e8c06c8ba7f93ddccad7</title>
<path fill="none" stroke="black" d="M331.107,-143.697C326.735,-135.644 321.443,-125.894 316.605,-116.982"/>
<polygon fill="black" stroke="black" points="319.632,-115.223 311.785,-108.104 313.48,-118.563 319.632,-115.223"/>
<g id="a_edge16&#45;headlabel"><a xlink:href="dir_000007_000004.html" target="_top" xlink:title="1">
<text text-anchor="middle" x="323.842" y="-114.528" font-family="Helvetica,sans-Serif" font-size="10.00">1</text>
</a>
</g>
</g>
<!-- dir_f0d072a8baab196d3c972192518927a4&#45;&gt;dir_bfccd401955b95cf8c75461437045ac0 -->
<g id="edge17" class="edge"><title>dir_f0d072a8baab196d3c972192518927a4&#45;&gt;dir_bfccd401955b95cf8c75461437045ac0</title>
<path fill="none" stroke="black" d="M367.782,-149.498C372.349,-147.627 377.049,-145.735 381.5,-144 418.182,-129.699 460.509,-114.359 489.925,-103.882"/>
<polygon fill="black" stroke="black" points="491.128,-107.169 499.379,-100.524 488.785,-100.573 491.128,-107.169"/>
<g id="a_edge17&#45;headlabel"><a xlink:href="dir_000007_000006.html" target="_top" xlink:title="1">
<text text-anchor="middle" x="488.691" y="-108.548" font-family="Helvetica,sans-Serif" font-size="10.00">1</text>
</a>
</g>
</g>
<!-- dir_f0d072a8baab196d3c972192518927a4&#45;&gt;dir_ca5fbc3f6f6667caf4918c667fbe5e47 -->
<g id="edge18" class="edge"><title>dir_f0d072a8baab196d3c972192518927a4&#45;&gt;dir_ca5fbc3f6f6667caf4918c667fbe5e47</title>
<path fill="none" stroke="black" d="M344.133,-143.959C347.23,-125.291 349.611,-94.9536 338.5,-72 332.289,-59.169 321.338,-48.3469 310.231,-39.8946"/>
<polygon fill="black" stroke="black" points="311.964,-36.8325 301.783,-33.899 307.912,-42.5409 311.964,-36.8325"/>
<g id="a_edge18&#45;headlabel"><a xlink:href="dir_000007_000003.html" target="_top" xlink:title="1">
<text text-anchor="middle" x="316.538" y="-34.0975" font-family="Helvetica,sans-Serif" font-size="10.00">1</text>
</a>
</g>
</g>
<!-- dir_a1371c6ddf4e4dc3efab314eb122f7e8&#45;&gt;dir_4dab8a2dc4741d147a951a94aaa47ae7 -->
<g id="edge19" class="edge"><title>dir_a1371c6ddf4e4dc3efab314eb122f7e8&#45;&gt;dir_4dab8a2dc4741d147a951a94aaa47ae7</title>
<path fill="none" stroke="black" d="M258.357,-218.496C238.684,-207.984 211.884,-193.663 190.436,-182.203"/>
<polygon fill="black" stroke="black" points="192.078,-179.111 181.609,-177.485 188.779,-185.285 192.078,-179.111"/>
<g id="a_edge19&#45;headlabel"><a xlink:href="dir_000001_000000.html" target="_top" xlink:title="1">
<text text-anchor="middle" x="196.586" y="-175.801" font-family="Helvetica,sans-Serif" font-size="10.00">1</text>
</a>
</g>
</g>
<!-- dir_a1371c6ddf4e4dc3efab314eb122f7e8&#45;&gt;dir_cd5c06f81069e8c06c8ba7f93ddccad7 -->
<g id="edge20" class="edge"><title>dir_a1371c6ddf4e4dc3efab314eb122f7e8&#45;&gt;dir_cd5c06f81069e8c06c8ba7f93ddccad7</title>
<path fill="none" stroke="black" d="M287.551,-215.871C290.448,-191.67 295.771,-147.211 299.221,-118.393"/>
<polygon fill="black" stroke="black" points="302.729,-118.534 300.442,-108.189 295.778,-117.702 302.729,-118.534"/>
<g id="a_edge20&#45;headlabel"><a xlink:href="dir_000001_000004.html" target="_top" xlink:title="1">
<text text-anchor="middle" x="305.12" y="-119.941" font-family="Helvetica,sans-Serif" font-size="10.00">1</text>
</a>
</g>
</g>
<!-- dir_a1371c6ddf4e4dc3efab314eb122f7e8&#45;&gt;dir_f0d072a8baab196d3c972192518927a4 -->
<g id="edge21" class="edge"><title>dir_a1371c6ddf4e4dc3efab314eb122f7e8&#45;&gt;dir_f0d072a8baab196d3c972192518927a4</title>
<path fill="none" stroke="black" d="M299.096,-215.697C305.623,-207.389 313.568,-197.277 320.747,-188.141"/>
<polygon fill="black" stroke="black" points="323.635,-190.13 327.061,-180.104 318.131,-185.805 323.635,-190.13"/>
<g id="a_edge21&#45;headlabel"><a xlink:href="dir_000001_000007.html" target="_top" xlink:title="1">
<text text-anchor="middle" x="323.647" y="-192.211" font-family="Helvetica,sans-Serif" font-size="10.00">1</text>
</a>
</g>
</g>
<!-- dir_a1371c6ddf4e4dc3efab314eb122f7e8&#45;&gt;dir_bfccd401955b95cf8c75461437045ac0 -->
<g id="edge22" class="edge"><title>dir_a1371c6ddf4e4dc3efab314eb122f7e8&#45;&gt;dir_bfccd401955b95cf8c75461437045ac0</title>
<path fill="none" stroke="black" d="M312.61,-217.287C330.722,-206.771 355.065,-192.601 376.5,-180 415.534,-157.053 460.145,-130.548 490.5,-112.471"/>
<polygon fill="black" stroke="black" points="492.641,-115.269 499.441,-107.144 489.059,-109.255 492.641,-115.269"/>
<g id="a_edge22&#45;headlabel"><a xlink:href="dir_000001_000006.html" target="_top" xlink:title="2">
<text text-anchor="middle" x="491.006" y="-117.048" font-family="Helvetica,sans-Serif" font-size="10.00">2</text>
</a>
</g>
</g>
<!-- dir_a1371c6ddf4e4dc3efab314eb122f7e8&#45;&gt;dir_ca5fbc3f6f6667caf4918c667fbe5e47 -->
<g id="edge23" class="edge"><title>dir_a1371c6ddf4e4dc3efab314eb122f7e8&#45;&gt;dir_ca5fbc3f6f6667caf4918c667fbe5e47</title>
<path fill="none" stroke="black" d="M281.245,-215.655C274.515,-186.199 262.561,-124.484 266.5,-72 267.137,-63.5179 268.338,-54.3361 269.621,-46.0356"/>
<polygon fill="black" stroke="black" points="273.084,-46.5472 271.252,-36.1119 266.176,-45.412 273.084,-46.5472"/>
<g id="a_edge23&#45;headlabel"><a xlink:href="dir_000001_000003.html" target="_top" xlink:title="2">
<text text-anchor="middle" x="275.302" y="-48.0546" font-family="Helvetica,sans-Serif" font-size="10.00">2</text>
</a>
</g>
</g>
<!-- dir_3fd242b123a5c0dc8a99f5f0c1394ff4&#45;&gt;dir_bfccd401955b95cf8c75461437045ac0 -->
<g id="edge24" class="edge"><title>dir_3fd242b123a5c0dc8a99f5f0c1394ff4&#45;&gt;dir_bfccd401955b95cf8c75461437045ac0</title>
<path fill="none" stroke="black" d="M583.713,-143.697C574.326,-135.05 562.816,-124.449 552.587,-115.027"/>
<polygon fill="black" stroke="black" points="554.797,-112.305 545.07,-108.104 550.055,-117.454 554.797,-112.305"/>
<g id="a_edge24&#45;headlabel"><a xlink:href="dir_000002_000006.html" target="_top" xlink:title="1">
<text text-anchor="middle" x="559.365" y="-110.152" font-family="Helvetica,sans-Serif" font-size="10.00">1</text>
</a>
</g>
</g>
</g>
</svg>
