<?xml version="1.0" encoding="UTF-8" standalone="no"?>
<!DOCTYPE svg PUBLIC "-//W3C//DTD SVG 1.1//EN"
 "http://www.w3.org/Graphics/SVG/1.1/DTD/svg11.dtd">
<!-- Generated by graphviz version 2.38.0 (20140413.2041)
 -->
<!-- Title: ble Pages: 1 -->
<svg width="245pt" height="260pt"
 viewBox="0.00 0.00 245.35 260.00" xmlns="http://www.w3.org/2000/svg" xmlns:xlink="http://www.w3.org/1999/xlink">
<g id="graph0" class="graph" transform="scale(1 1) rotate(0) translate(4 256)">
<title>ble</title>
<polygon fill="white" stroke="none" points="-4,4 -4,-256 241.352,-256 241.352,4 -4,4"/>
<!-- dir_a1371c6ddf4e4dc3efab314eb122f7e8 -->
<g id="node1" class="node"><title>dir_a1371c6ddf4e4dc3efab314eb122f7e8</title>
<g id="a_node1"><a xlink:href="dir_a1371c6ddf4e4dc3efab314eb122f7e8.html" target="_top" xlink:title="ble">
<polygon fill="#eeeeff" stroke="black" points="164,-252 110,-252 110,-216 164,-216 164,-252"/>
<text text-anchor="middle" x="137" y="-231.5" font-family="Helvetica,sans-Serif" font-size="10.00">ble</text>
</a>
</g>
</g>
<!-- dir_4dab8a2dc4741d147a951a94aaa47ae7 -->
<g id="node2" class="node"><title>dir_4dab8a2dc4741d147a951a94aaa47ae7</title>
<g id="a_node2"><a xlink:href="dir_4dab8a2dc4741d147a951a94aaa47ae7.html" target="_top" xlink:title="adc">
<polygon fill="none" stroke="black" points="54,-180 0,-180 0,-144 54,-144 54,-180"/>
<text text-anchor="middle" x="27" y="-159.5" font-family="Helvetica,sans-Serif" font-size="10.00">adc</text>
</a>
</g>
</g>
<!-- dir_a1371c6ddf4e4dc3efab314eb122f7e8&#45;&gt;dir_4dab8a2dc4741d147a951a94aaa47ae7 -->
<g id="edge6" class="edge"><title>dir_a1371c6ddf4e4dc3efab314eb122f7e8&#45;&gt;dir_4dab8a2dc4741d147a951a94aaa47ae7</title>
<path fill="none" stroke="black" d="M110.091,-215.876C95.8416,-206.808 78.1537,-195.552 62.7644,-185.759"/>
<polygon fill="black" stroke="black" points="64.3282,-182.606 54.0125,-180.19 60.57,-188.511 64.3282,-182.606"/>
<g id="a_edge6&#45;headlabel"><a xlink:href="dir_000001_000000.html" target="_top" xlink:title="1">
<text text-anchor="middle" x="68.8851" y="-179.64" font-family="Helvetica,sans-Serif" font-size="10.00">1</text>
</a>
</g>
</g>
<!-- dir_cd5c06f81069e8c06c8ba7f93ddccad7 -->
<g id="node3" class="node"><title>dir_cd5c06f81069e8c06c8ba7f93ddccad7</title>
<g id="a_node3"><a xlink:href="dir_cd5c06f81069e8c06c8ba7f93ddccad7.html" target="_top" xlink:title="delay">
<polygon fill="none" stroke="black" points="109,-108 55,-108 55,-72 109,-72 109,-108"/>
<text text-anchor="middle" x="82" y="-87.5" font-family="Helvetica,sans-Serif" font-size="10.00">delay</text>
</a>
</g>
</g>
<!-- dir_a1371c6ddf4e4dc3efab314eb122f7e8&#45;&gt;dir_cd5c06f81069e8c06c8ba7f93ddccad7 -->
<g id="edge7" class="edge"><title>dir_a1371c6ddf4e4dc3efab314eb122f7e8&#45;&gt;dir_cd5c06f81069e8c06c8ba7f93ddccad7</title>
<path fill="none" stroke="black" d="M122.835,-215.851C115.31,-205.93 106.503,-192.89 101,-180 92.5868,-160.293 87.7553,-136.488 85.0717,-118.458"/>
<polygon fill="black" stroke="black" points="88.5097,-117.764 83.6972,-108.326 81.5733,-118.705 88.5097,-117.764"/>
<g id="a_edge7&#45;headlabel"><a xlink:href="dir_000001_000004.html" target="_top" xlink:title="1">
<text text-anchor="middle" x="91.8063" y="-118.445" font-family="Helvetica,sans-Serif" font-size="10.00">1</text>
</a>
</g>
</g>
<!-- dir_f0d072a8baab196d3c972192518927a4 -->
<g id="node4" class="node"><title>dir_f0d072a8baab196d3c972192518927a4</title>
<g id="a_node4"><a xlink:href="dir_f0d072a8baab196d3c972192518927a4.html" target="_top" xlink:title="interrupt">
<polygon fill="none" stroke="black" points="164,-180 110,-180 110,-144 164,-144 164,-180"/>
<text text-anchor="middle" x="137" y="-159.5" font-family="Helvetica,sans-Serif" font-size="10.00">interrupt</text>
</a>
</g>
</g>
<!-- dir_a1371c6ddf4e4dc3efab314eb122f7e8&#45;&gt;dir_f0d072a8baab196d3c972192518927a4 -->
<g id="edge8" class="edge"><title>dir_a1371c6ddf4e4dc3efab314eb122f7e8&#45;&gt;dir_f0d072a8baab196d3c972192518927a4</title>
<path fill="none" stroke="black" d="M137,-215.697C137,-207.983 137,-198.712 137,-190.112"/>
<polygon fill="black" stroke="black" points="140.5,-190.104 137,-180.104 133.5,-190.104 140.5,-190.104"/>
<g id="a_edge8&#45;headlabel"><a xlink:href="dir_000001_000028.html" target="_top" xlink:title="1">
<text text-anchor="middle" x="143.339" y="-191.199" font-family="Helvetica,sans-Serif" font-size="10.00">1</text>
</a>
</g>
</g>
<!-- dir_bfccd401955b95cf8c75461437045ac0 -->
<g id="node5" class="node"><title>dir_bfccd401955b95cf8c75461437045ac0</title>
<g id="a_node5"><a xlink:href="dir_bfccd401955b95cf8c75461437045ac0.html" target="_top" xlink:title="inc">
<polygon fill="none" stroke="black" points="219,-108 165,-108 165,-72 219,-72 219,-108"/>
<text text-anchor="middle" x="192" y="-87.5" font-family="Helvetica,sans-Serif" font-size="10.00">inc</text>
</a>
</g>
</g>
<!-- dir_a1371c6ddf4e4dc3efab314eb122f7e8&#45;&gt;dir_bfccd401955b95cf8c75461437045ac0 -->
<g id="edge9" class="edge"><title>dir_a1371c6ddf4e4dc3efab314eb122f7e8&#45;&gt;dir_bfccd401955b95cf8c75461437045ac0</title>
<path fill="none" stroke="black" d="M151.165,-215.851C158.69,-205.93 167.497,-192.89 173,-180 181.413,-160.293 186.245,-136.488 188.928,-118.458"/>
<polygon fill="black" stroke="black" points="192.427,-118.705 190.303,-108.326 185.49,-117.764 192.427,-118.705"/>
<g id="a_edge9&#45;headlabel"><a xlink:href="dir_000001_000027.html" target="_top" xlink:title="2">
<text text-anchor="middle" x="194.757" y="-120.149" font-family="Helvetica,sans-Serif" font-size="10.00">2</text>
</a>
</g>
</g>
<!-- dir_ca5fbc3f6f6667caf4918c667fbe5e47 -->
<g id="node6" class="node"><title>dir_ca5fbc3f6f6667caf4918c667fbe5e47</title>
<g id="a_node6"><a xlink:href="dir_ca5fbc3f6f6667caf4918c667fbe5e47.html" target="_top" xlink:title="dbprint">
<polygon fill="none" stroke="black" points="136,-36 82,-36 82,-0 136,-0 136,-36"/>
<text text-anchor="middle" x="109" y="-15.5" font-family="Helvetica,sans-Serif" font-size="10.00">dbprint</text>
</a>
</g>
</g>
<!-- dir_a1371c6ddf4e4dc3efab314eb122f7e8&#45;&gt;dir_ca5fbc3f6f6667caf4918c667fbe5e47 -->
<g id="edge10" class="edge"><title>dir_a1371c6ddf4e4dc3efab314eb122f7e8&#45;&gt;dir_ca5fbc3f6f6667caf4918c667fbe5e47</title>
<path fill="none" stroke="black" d="M159.518,-215.91C196.043,-186.059 260.96,-122.76 228,-72 210.01,-44.2945 173.81,-30.9508 146.036,-24.5995"/>
<polygon fill="black" stroke="black" points="146.737,-21.1705 136.234,-22.5623 145.313,-28.024 146.737,-21.1705"/>
<g id="a_edge10&#45;headlabel"><a xlink:href="dir_000001_000003.html" target="_top" xlink:title="2">
<text text-anchor="middle" x="150.834" y="-16.622" font-family="Helvetica,sans-Serif" font-size="10.00">2</text>
</a>
</g>
</g>
<!-- dir_4dab8a2dc4741d147a951a94aaa47ae7&#45;&gt;dir_ca5fbc3f6f6667caf4918c667fbe5e47 -->
<g id="edge1" class="edge"><title>dir_4dab8a2dc4741d147a951a94aaa47ae7&#45;&gt;dir_ca5fbc3f6f6667caf4918c667fbe5e47</title>
<path fill="none" stroke="black" d="M27.4075,-143.729C28.5645,-124.861 32.5776,-94.3483 46,-72 52.9101,-60.4946 63.2269,-50.2989 73.5215,-42.0001"/>
<polygon fill="black" stroke="black" points="75.8747,-44.6074 81.7074,-35.7625 71.632,-39.0396 75.8747,-44.6074"/>
<g id="a_edge1&#45;headlabel"><a xlink:href="dir_000000_000003.html" target="_top" xlink:title="1">
<text text-anchor="middle" x="74.7364" y="-46.5443" font-family="Helvetica,sans-Serif" font-size="10.00">1</text>
</a>
</g>
</g>
<!-- dir_cd5c06f81069e8c06c8ba7f93ddccad7&#45;&gt;dir_ca5fbc3f6f6667caf4918c667fbe5e47 -->
<g id="edge2" class="edge"><title>dir_cd5c06f81069e8c06c8ba7f93ddccad7&#45;&gt;dir_ca5fbc3f6f6667caf4918c667fbe5e47</title>
<path fill="none" stroke="black" d="M88.6742,-71.6966C91.7149,-63.8132 95.3827,-54.3042 98.7607,-45.5464"/>
<polygon fill="black" stroke="black" points="102.069,-46.6939 102.403,-36.1043 95.5383,-44.1748 102.069,-46.6939"/>
<g id="a_edge2&#45;headlabel"><a xlink:href="dir_000004_000003.html" target="_top" xlink:title="1">
<text text-anchor="middle" x="103.425" y="-48.5695" font-family="Helvetica,sans-Serif" font-size="10.00">1</text>
</a>
</g>
</g>
<!-- dir_f0d072a8baab196d3c972192518927a4&#45;&gt;dir_cd5c06f81069e8c06c8ba7f93ddccad7 -->
<g id="edge3" class="edge"><title>dir_f0d072a8baab196d3c972192518927a4&#45;&gt;dir_cd5c06f81069e8c06c8ba7f93ddccad7</title>
<path fill="none" stroke="black" d="M123.404,-143.697C116.877,-135.389 108.932,-125.277 101.753,-116.141"/>
<polygon fill="black" stroke="black" points="104.369,-113.805 95.4391,-108.104 98.8653,-118.13 104.369,-113.805"/>
<g id="a_edge3&#45;headlabel"><a xlink:href="dir_000028_000004.html" target="_top" xlink:title="1">
<text text-anchor="middle" x="108.823" y="-112.377" font-family="Helvetica,sans-Serif" font-size="10.00">1</text>
</a>
</g>
</g>
<!-- dir_f0d072a8baab196d3c972192518927a4&#45;&gt;dir_bfccd401955b95cf8c75461437045ac0 -->
<g id="edge4" class="edge"><title>dir_f0d072a8baab196d3c972192518927a4&#45;&gt;dir_bfccd401955b95cf8c75461437045ac0</title>
<path fill="none" stroke="black" d="M150.596,-143.697C157.123,-135.389 165.068,-125.277 172.247,-116.141"/>
<polygon fill="black" stroke="black" points="175.135,-118.13 178.561,-108.104 169.631,-113.805 175.135,-118.13"/>
<g id="a_edge4&#45;headlabel"><a xlink:href="dir_000028_000027.html" target="_top" xlink:title="1">
<text text-anchor="middle" x="175.147" y="-120.211" font-family="Helvetica,sans-Serif" font-size="10.00">1</text>
</a>
</g>
</g>
<!-- dir_f0d072a8baab196d3c972192518927a4&#45;&gt;dir_ca5fbc3f6f6667caf4918c667fbe5e47 -->
<g id="edge5" class="edge"><title>dir_f0d072a8baab196d3c972192518927a4&#45;&gt;dir_ca5fbc3f6f6667caf4918c667fbe5e47</title>
<path fill="none" stroke="black" d="M133.623,-143.871C128.829,-119.564 120.007,-74.8187 114.327,-46.0132"/>
<polygon fill="black" stroke="black" points="117.758,-45.3232 112.389,-36.1893 110.89,-46.6775 117.758,-45.3232"/>
<g id="a_edge5&#45;headlabel"><a xlink:href="dir_000028_000003.html" target="_top" xlink:title="1">
<text text-anchor="middle" x="121.239" y="-45.8007" font-family="Helvetica,sans-Serif" font-size="10.00">1</text>
</a>
</g>
</g>
</g>
</svg>
