<?xml version="1.0" encoding="UTF-8" standalone="no"?>
<!DOCTYPE svg PUBLIC "-//W3C//DTD SVG 1.1//EN"
 "http://www.w3.org/Graphics/SVG/1.1/DTD/svg11.dtd">
<!-- Generated by graphviz version 2.38.0 (20140413.2041)
 -->
<!-- Title: interrupt/interrupt.h Pages: 1 -->
<svg width="258pt" height="84pt"
 viewBox="0.00 0.00 257.50 84.00" xmlns="http://www.w3.org/2000/svg" xmlns:xlink="http://www.w3.org/1999/xlink">
<g id="graph0" class="graph" transform="scale(1 1) rotate(0) translate(4 80)">
<title>interrupt/interrupt.h</title>
<polygon fill="white" stroke="none" points="-4,4 -4,-80 253.5,-80 253.5,4 -4,4"/>
<!-- Node1 -->
<g id="node1" class="node"><title>Node1</title>
<g id="a_node1"><a xlink:title=" ">
<polygon fill="#bfbfbf" stroke="black" points="71.5,-56.5 71.5,-75.5 169.5,-75.5 169.5,-56.5 71.5,-56.5"/>
<text text-anchor="middle" x="120.5" y="-63.5" font-family="Helvetica,sans-Serif" font-size="10.00">interrupt/interrupt.h</text>
</a>
</g>
</g>
<!-- Node2 -->
<g id="node2" class="node"><title>Node2</title>
<g id="a_node2"><a xlink:href="ble_8c.html" target="_top" xlink:title="Send data via BLE wirelessly.">
<polygon fill="white" stroke="black" points="0,-0.5 0,-19.5 53,-19.5 53,-0.5 0,-0.5"/>
<text text-anchor="middle" x="26.5" y="-7.5" font-family="Helvetica,sans-Serif" font-size="10.00">ble/ble.c</text>
</a>
</g>
</g>
<!-- Node1&#45;&gt;Node2 -->
<g id="edge1" class="edge"><title>Node1&#45;&gt;Node2</title>
<path fill="none" stroke="midnightblue" d="M96.4384,-51.1774C79.1411,-41.2407 56.3523,-28.1492 41.5652,-19.6545"/>
<polygon fill="midnightblue" stroke="midnightblue" points="94.9828,-54.3775 105.397,-56.324 98.4697,-48.3078 94.9828,-54.3775"/>
</g>
<!-- Node3 -->
<g id="node3" class="node"><title>Node3</title>
<g id="a_node3"><a xlink:href="interrupt_8c.html" target="_top" xlink:title="Code to detect and generate interrupts.">
<polygon fill="white" stroke="black" points="71.5,-0.5 71.5,-19.5 169.5,-19.5 169.5,-0.5 71.5,-0.5"/>
<text text-anchor="middle" x="120.5" y="-7.5" font-family="Helvetica,sans-Serif" font-size="10.00">interrupt/interrupt.c</text>
</a>
</g>
</g>
<!-- Node1&#45;&gt;Node3 -->
<g id="edge2" class="edge"><title>Node1&#45;&gt;Node3</title>
<path fill="none" stroke="midnightblue" d="M120.5,-45.8045C120.5,-36.9102 120.5,-26.7798 120.5,-19.7511"/>
<polygon fill="midnightblue" stroke="midnightblue" points="117,-46.083 120.5,-56.083 124,-46.083 117,-46.083"/>
</g>
<!-- Node4 -->
<g id="node4" class="node"><title>Node4</title>
<g id="a_node4"><a xlink:href="main_8c.html" target="_top" xlink:title="Code used in master thesis, MAIN FILE.">
<polygon fill="white" stroke="black" points="187.5,-0.5 187.5,-19.5 249.5,-19.5 249.5,-0.5 187.5,-0.5"/>
<text text-anchor="middle" x="218.5" y="-7.5" font-family="Helvetica,sans-Serif" font-size="10.00">src/main.c</text>
</a>
</g>
</g>
<!-- Node1&#45;&gt;Node4 -->
<g id="edge3" class="edge"><title>Node1&#45;&gt;Node4</title>
<path fill="none" stroke="midnightblue" d="M145.086,-51.4526C163.178,-41.4835 187.235,-28.2279 202.794,-19.6545"/>
<polygon fill="midnightblue" stroke="midnightblue" points="143.315,-48.4324 136.245,-56.324 146.693,-54.5633 143.315,-48.4324"/>
</g>
</g>
</svg>
