<?xml version="1.0" encoding="UTF-8" standalone="no"?>
<!DOCTYPE svg PUBLIC "-//W3C//DTD SVG 1.1//EN"
 "http://www.w3.org/Graphics/SVG/1.1/DTD/svg11.dtd">
<!-- Generated by graphviz version 2.38.0 (20140413.2041)
 -->
<!-- Title: interrupt/interrupt.c Pages: 1 -->
<svg width="899pt" height="140pt"
 viewBox="0.00 0.00 898.50 140.00" xmlns="http://www.w3.org/2000/svg" xmlns:xlink="http://www.w3.org/1999/xlink">
<g id="graph0" class="graph" transform="scale(1 1) rotate(0) translate(4 136)">
<title>interrupt/interrupt.c</title>
<polygon fill="white" stroke="none" points="-4,4 -4,-136 894.5,-136 894.5,4 -4,4"/>
<!-- Node1 -->
<g id="node1" class="node"><title>Node1</title>
<g id="a_node1"><a xlink:title="Code to detect and generate interrupts.">
<polygon fill="#bfbfbf" stroke="black" points="383,-112.5 383,-131.5 481,-131.5 481,-112.5 383,-112.5"/>
<text text-anchor="middle" x="432" y="-119.5" font-family="Helvetica,sans-Serif" font-size="10.00">interrupt/interrupt.c</text>
</a>
</g>
</g>
<!-- Node2 -->
<g id="node2" class="node"><title>Node2</title>
<g id="a_node2"><a xlink:href="interrupt_8h.html" target="_top" xlink:title="Code to detect and generate interrupts.">
<polygon fill="white" stroke="black" points="0,-56.5 0,-75.5 60,-75.5 60,-56.5 0,-56.5"/>
<text text-anchor="middle" x="30" y="-63.5" font-family="Helvetica,sans-Serif" font-size="10.00">interrupt.h</text>
</a>
</g>
</g>
<!-- Node1&#45;&gt;Node2 -->
<g id="edge1" class="edge"><title>Node1&#45;&gt;Node2</title>
<path fill="none" stroke="midnightblue" d="M382.884,-116.431C313.057,-109.586 181.212,-95.3761 70,-76 69.8992,-75.9824 69.7983,-75.9648 69.6972,-75.9471"/>
<polygon fill="midnightblue" stroke="midnightblue" points="70.5587,-72.5486 60.0778,-74.0981 69.2373,-79.4228 70.5587,-72.5486"/>
</g>
<!-- Node3 -->
<g id="node3" class="node"><title>Node3</title>
<g id="a_node3"><a xlink:href="pinout_8h.html" target="_top" xlink:title="File to keep track of most the pins used, pins for BLE are in own file BLE.h.">
<polygon fill="white" stroke="black" points="78.5,-56.5 78.5,-75.5 129.5,-75.5 129.5,-56.5 78.5,-56.5"/>
<text text-anchor="middle" x="104" y="-63.5" font-family="Helvetica,sans-Serif" font-size="10.00">pinout.h</text>
</a>
</g>
</g>
<!-- Node1&#45;&gt;Node3 -->
<g id="edge2" class="edge"><title>Node1&#45;&gt;Node3</title>
<path fill="none" stroke="midnightblue" d="M382.744,-114.955C326.362,-107.697 231.075,-94.4041 139.536,-75.9222"/>
<polygon fill="midnightblue" stroke="midnightblue" points="140.044,-72.4539 129.546,-73.8813 138.643,-79.3123 140.044,-72.4539"/>
</g>
<!-- Node4 -->
<g id="node4" class="node"><title>Node4</title>
<g id="a_node4"><a xlink:href="debug__dbprint_8h.html" target="_top" xlink:title="Enable or disable printing to UART with dbprint.">
<polygon fill="white" stroke="black" points="148,-56.5 148,-75.5 234,-75.5 234,-56.5 148,-56.5"/>
<text text-anchor="middle" x="191" y="-63.5" font-family="Helvetica,sans-Serif" font-size="10.00">debug_dbprint.h</text>
</a>
</g>
</g>
<!-- Node1&#45;&gt;Node4 -->
<g id="edge3" class="edge"><title>Node1&#45;&gt;Node4</title>
<path fill="none" stroke="midnightblue" d="M393.813,-112.444C351.859,-103.043 284.406,-87.9291 238.929,-77.7393"/>
<polygon fill="midnightblue" stroke="midnightblue" points="239.532,-74.2876 229.009,-75.5164 238.001,-81.1183 239.532,-74.2876"/>
</g>
<!-- Node5 -->
<g id="node5" class="node"><title>Node5</title>
<g id="a_node5"><a xlink:href="delay_8h.html" target="_top" xlink:title="Delay functionality.">
<polygon fill="white" stroke="black" points="290,-56.5 290,-75.5 338,-75.5 338,-56.5 290,-56.5"/>
<text text-anchor="middle" x="314" y="-63.5" font-family="Helvetica,sans-Serif" font-size="10.00">delay.h</text>
</a>
</g>
</g>
<!-- Node1&#45;&gt;Node5 -->
<g id="edge4" class="edge"><title>Node1&#45;&gt;Node5</title>
<path fill="none" stroke="midnightblue" d="M413.303,-112.444C394.056,-103.636 363.848,-89.8116 341.8,-79.722"/>
<polygon fill="midnightblue" stroke="midnightblue" points="343.16,-76.4951 332.61,-75.5164 340.247,-82.8603 343.16,-76.4951"/>
</g>
<!-- Node6 -->
<g id="node6" class="node"><title>Node6</title>
<g id="a_node6"><a xlink:title=" ">
<polygon fill="white" stroke="#bfbfbf" points="237.5,-0.5 237.5,-19.5 286.5,-19.5 286.5,-0.5 237.5,-0.5"/>
<text text-anchor="middle" x="262" y="-7.5" font-family="Helvetica,sans-Serif" font-size="10.00">stdint.h</text>
</a>
</g>
</g>
<!-- Node1&#45;&gt;Node6 -->
<g id="edge14" class="edge"><title>Node1&#45;&gt;Node6</title>
<path fill="none" stroke="midnightblue" d="M382.656,-118.238C349.725,-113.828 307.719,-102.86 281,-76 268.962,-63.8983 264.467,-44.6163 262.831,-30.1909"/>
<polygon fill="midnightblue" stroke="midnightblue" points="266.296,-29.5968 262.043,-19.8932 259.316,-30.1312 266.296,-29.5968"/>
</g>
<!-- Node8 -->
<g id="node8" class="node"><title>Node8</title>
<g id="a_node8"><a xlink:title=" ">
<polygon fill="white" stroke="#bfbfbf" points="356.5,-56.5 356.5,-75.5 421.5,-75.5 421.5,-56.5 356.5,-56.5"/>
<text text-anchor="middle" x="389" y="-63.5" font-family="Helvetica,sans-Serif" font-size="10.00">em_usart.h</text>
</a>
</g>
</g>
<!-- Node1&#45;&gt;Node8 -->
<g id="edge7" class="edge"><title>Node1&#45;&gt;Node8</title>
<path fill="none" stroke="midnightblue" d="M424.899,-112.083C418.763,-104.377 409.73,-93.0333 402.261,-83.6531"/>
<polygon fill="midnightblue" stroke="midnightblue" points="404.936,-81.3936 395.968,-75.7511 399.46,-85.7542 404.936,-81.3936"/>
</g>
<!-- Node9 -->
<g id="node9" class="node"><title>Node9</title>
<g id="a_node9"><a xlink:title=" ">
<polygon fill="white" stroke="#bfbfbf" points="439.5,-56.5 439.5,-75.5 510.5,-75.5 510.5,-56.5 439.5,-56.5"/>
<text text-anchor="middle" x="475" y="-63.5" font-family="Helvetica,sans-Serif" font-size="10.00">em_device.h</text>
</a>
</g>
</g>
<!-- Node1&#45;&gt;Node9 -->
<g id="edge8" class="edge"><title>Node1&#45;&gt;Node9</title>
<path fill="none" stroke="midnightblue" d="M439.101,-112.083C445.237,-104.377 454.27,-93.0333 461.739,-83.6531"/>
<polygon fill="midnightblue" stroke="midnightblue" points="464.54,-85.7542 468.032,-75.7511 459.064,-81.3936 464.54,-85.7542"/>
</g>
<!-- Node10 -->
<g id="node10" class="node"><title>Node10</title>
<g id="a_node10"><a xlink:title=" ">
<polygon fill="white" stroke="#bfbfbf" points="529,-56.5 529,-75.5 591,-75.5 591,-56.5 529,-56.5"/>
<text text-anchor="middle" x="560" y="-63.5" font-family="Helvetica,sans-Serif" font-size="10.00">em_chip.h</text>
</a>
</g>
</g>
<!-- Node1&#45;&gt;Node10 -->
<g id="edge9" class="edge"><title>Node1&#45;&gt;Node10</title>
<path fill="none" stroke="midnightblue" d="M452.282,-112.444C473.347,-103.557 506.517,-89.5632 530.486,-79.4514"/>
<polygon fill="midnightblue" stroke="midnightblue" points="531.96,-82.6283 539.813,-75.5164 529.239,-76.1787 531.96,-82.6283"/>
</g>
<!-- Node11 -->
<g id="node11" class="node"><title>Node11</title>
<g id="a_node11"><a xlink:title=" ">
<polygon fill="white" stroke="#bfbfbf" points="609,-56.5 609,-75.5 671,-75.5 671,-56.5 609,-56.5"/>
<text text-anchor="middle" x="640" y="-63.5" font-family="Helvetica,sans-Serif" font-size="10.00">em_cmu.h</text>
</a>
</g>
</g>
<!-- Node1&#45;&gt;Node11 -->
<g id="edge10" class="edge"><title>Node1&#45;&gt;Node11</title>
<path fill="none" stroke="midnightblue" d="M464.958,-112.444C501.314,-103.005 559.856,-87.8067 599.109,-77.6158"/>
<polygon fill="midnightblue" stroke="midnightblue" points="600.095,-80.9761 608.895,-75.0755 598.336,-74.2007 600.095,-80.9761"/>
</g>
<!-- Node12 -->
<g id="node12" class="node"><title>Node12</title>
<g id="a_node12"><a xlink:title=" ">
<polygon fill="white" stroke="#bfbfbf" points="689,-56.5 689,-75.5 751,-75.5 751,-56.5 689,-56.5"/>
<text text-anchor="middle" x="720" y="-63.5" font-family="Helvetica,sans-Serif" font-size="10.00">em_emu.h</text>
</a>
</g>
</g>
<!-- Node1&#45;&gt;Node12 -->
<g id="edge11" class="edge"><title>Node1&#45;&gt;Node12</title>
<path fill="none" stroke="midnightblue" d="M481.054,-112.722C529.014,-104.489 604.353,-91.1858 678.593,-76.224"/>
<polygon fill="midnightblue" stroke="midnightblue" points="679.478,-79.6158 688.584,-74.199 678.088,-72.7553 679.478,-79.6158"/>
</g>
<!-- Node13 -->
<g id="node13" class="node"><title>Node13</title>
<g id="a_node13"><a xlink:title=" ">
<polygon fill="white" stroke="#bfbfbf" points="769,-56.5 769,-75.5 831,-75.5 831,-56.5 769,-56.5"/>
<text text-anchor="middle" x="800" y="-63.5" font-family="Helvetica,sans-Serif" font-size="10.00">em_gpio.h</text>
</a>
</g>
</g>
<!-- Node1&#45;&gt;Node13 -->
<g id="edge12" class="edge"><title>Node1&#45;&gt;Node13</title>
<path fill="none" stroke="midnightblue" d="M481.107,-115.582C543.414,-108.417 654.374,-94.6827 758.55,-76.1375"/>
<polygon fill="midnightblue" stroke="midnightblue" points="759.386,-79.5433 768.608,-74.3278 758.147,-72.6539 759.386,-79.5433"/>
</g>
<!-- Node14 -->
<g id="node14" class="node"><title>Node14</title>
<g id="a_node14"><a xlink:title=" ">
<polygon fill="white" stroke="#bfbfbf" points="849.5,-56.5 849.5,-75.5 890.5,-75.5 890.5,-56.5 849.5,-56.5"/>
<text text-anchor="middle" x="870" y="-63.5" font-family="Helvetica,sans-Serif" font-size="10.00">bsp.h</text>
</a>
</g>
</g>
<!-- Node1&#45;&gt;Node14 -->
<g id="edge13" class="edge"><title>Node1&#45;&gt;Node14</title>
<path fill="none" stroke="midnightblue" d="M481.117,-118.469C556.327,-113.964 704.566,-102.601 839.374,-75.7411"/>
<polygon fill="midnightblue" stroke="midnightblue" points="840.363,-79.1119 849.468,-73.6953 838.972,-72.2514 840.363,-79.1119"/>
</g>
<!-- Node5&#45;&gt;Node6 -->
<g id="edge5" class="edge"><title>Node5&#45;&gt;Node6</title>
<path fill="none" stroke="midnightblue" d="M305.413,-56.083C297.841,-48.2195 286.622,-36.5688 277.486,-27.0813"/>
<polygon fill="midnightblue" stroke="midnightblue" points="279.885,-24.5266 270.427,-19.7511 274.842,-29.3821 279.885,-24.5266"/>
</g>
<!-- Node7 -->
<g id="node7" class="node"><title>Node7</title>
<g id="a_node7"><a xlink:title=" ">
<polygon fill="white" stroke="#bfbfbf" points="305,-0.5 305,-19.5 361,-19.5 361,-0.5 305,-0.5"/>
<text text-anchor="middle" x="333" y="-7.5" font-family="Helvetica,sans-Serif" font-size="10.00">stdbool.h</text>
</a>
</g>
</g>
<!-- Node5&#45;&gt;Node7 -->
<g id="edge6" class="edge"><title>Node5&#45;&gt;Node7</title>
<path fill="none" stroke="midnightblue" d="M317.137,-56.083C319.683,-48.8486 323.356,-38.4087 326.527,-29.3968"/>
<polygon fill="midnightblue" stroke="midnightblue" points="329.903,-30.3459 329.921,-19.7511 323.3,-28.0225 329.903,-30.3459"/>
</g>
</g>
</svg>
