<?xml version="1.0" encoding="UTF-8" standalone="no"?>
<!DOCTYPE svg PUBLIC "-//W3C//DTD SVG 1.1//EN"
 "http://www.w3.org/Graphics/SVG/1.1/DTD/svg11.dtd">
<!-- Generated by graphviz version 2.38.0 (20140413.2041)
 -->
<!-- Title: src/main.c Pages: 1 -->
<svg width="2203pt" height="140pt"
 viewBox="0.00 0.00 2202.50 140.00" xmlns="http://www.w3.org/2000/svg" xmlns:xlink="http://www.w3.org/1999/xlink">
<g id="graph0" class="graph" transform="scale(1 1) rotate(0) translate(4 136)">
<title>src/main.c</title>
<polygon fill="white" stroke="none" points="-4,4 -4,-136 2198.5,-136 2198.5,4 -4,4"/>
<!-- Node1 -->
<g id="node1" class="node"><title>Node1</title>
<g id="a_node1"><a xlink:title="Code used in master thesis, MAIN FILE.">
<polygon fill="#bfbfbf" stroke="black" points="949.501,-112.5 949.501,-131.5 1011.5,-131.5 1011.5,-112.5 949.501,-112.5"/>
<text text-anchor="middle" x="980.501" y="-119.5" font-family="Helvetica,sans-Serif" font-size="10.00">src/main.c</text>
</a>
</g>
</g>
<!-- Node2 -->
<g id="node2" class="node"><title>Node2</title>
<g id="a_node2"><a xlink:href="adc_8h.html" target="_top" xlink:title="Read battery voltage.">
<polygon fill="white" stroke="black" points="14.0006,-56.5 14.0006,-75.5 55.0006,-75.5 55.0006,-56.5 14.0006,-56.5"/>
<text text-anchor="middle" x="34.5006" y="-63.5" font-family="Helvetica,sans-Serif" font-size="10.00">adc.h</text>
</a>
</g>
</g>
<!-- Node1&#45;&gt;Node2 -->
<g id="edge1" class="edge"><title>Node1&#45;&gt;Node2</title>
<path fill="none" stroke="midnightblue" d="M949.379,-120.483C812.204,-118.051 260.136,-106.629 65.4306,-75.6342"/>
<polygon fill="midnightblue" stroke="midnightblue" points="65.766,-72.1419 55.3269,-73.9516 64.6161,-79.0468 65.766,-72.1419"/>
</g>
<!-- Node3 -->
<g id="node3" class="node"><title>Node3</title>
<g id="a_node3"><a xlink:title=" ">
<polygon fill="white" stroke="#bfbfbf" points="240.001,-0.5 240.001,-19.5 289.001,-19.5 289.001,-0.5 240.001,-0.5"/>
<text text-anchor="middle" x="264.501" y="-7.5" font-family="Helvetica,sans-Serif" font-size="10.00">stdint.h</text>
</a>
</g>
</g>
<!-- Node1&#45;&gt;Node3 -->
<g id="edge39" class="edge"><title>Node1&#45;&gt;Node3</title>
<path fill="none" stroke="midnightblue" d="M949.493,-120.76C786.8,-119.352 37.906,-110.981 4.50057,-76 -1.63837,-69.5715 -1.22383,-62.8003 4.50057,-56 32.9353,-22.2212 165.97,-13.7978 229.954,-11.6975"/>
<polygon fill="midnightblue" stroke="midnightblue" points="230.076,-15.1956 239.968,-11.4023 229.87,-8.19862 230.076,-15.1956"/>
</g>
<!-- Node4 -->
<g id="node4" class="node"><title>Node4</title>
<g id="a_node4"><a xlink:title=" ">
<polygon fill="white" stroke="#bfbfbf" points="645.501,-56.5 645.501,-75.5 721.501,-75.5 721.501,-56.5 645.501,-56.5"/>
<text text-anchor="middle" x="683.501" y="-63.5" font-family="Helvetica,sans-Serif" font-size="10.00">em_system.h</text>
</a>
</g>
</g>
<!-- Node1&#45;&gt;Node4 -->
<g id="edge3" class="edge"><title>Node1&#45;&gt;Node4</title>
<path fill="none" stroke="midnightblue" d="M949.434,-115.453C904.097,-107.343 816.886,-91.6883 731.838,-76.0516"/>
<polygon fill="midnightblue" stroke="midnightblue" points="732.217,-72.5627 721.748,-74.1949 730.95,-79.4471 732.217,-72.5627"/>
</g>
<!-- Node5 -->
<g id="node5" class="node"><title>Node5</title>
<g id="a_node5"><a xlink:title=" ">
<polygon fill="white" stroke="#bfbfbf" points="740.001,-56.5 740.001,-75.5 811.001,-75.5 811.001,-56.5 740.001,-56.5"/>
<text text-anchor="middle" x="775.501" y="-63.5" font-family="Helvetica,sans-Serif" font-size="10.00">em_device.h</text>
</a>
</g>
</g>
<!-- Node1&#45;&gt;Node5 -->
<g id="edge4" class="edge"><title>Node1&#45;&gt;Node5</title>
<path fill="none" stroke="midnightblue" d="M949.365,-112.799C914.229,-103.543 856.882,-88.4372 817.73,-78.124"/>
<polygon fill="midnightblue" stroke="midnightblue" points="818.508,-74.7095 807.946,-75.5467 816.725,-81.4786 818.508,-74.7095"/>
</g>
<!-- Node6 -->
<g id="node6" class="node"><title>Node6</title>
<g id="a_node6"><a xlink:title=" ">
<polygon fill="white" stroke="#bfbfbf" points="829.501,-56.5 829.501,-75.5 891.501,-75.5 891.501,-56.5 829.501,-56.5"/>
<text text-anchor="middle" x="860.501" y="-63.5" font-family="Helvetica,sans-Serif" font-size="10.00">em_chip.h</text>
</a>
</g>
</g>
<!-- Node1&#45;&gt;Node6 -->
<g id="edge5" class="edge"><title>Node1&#45;&gt;Node6</title>
<path fill="none" stroke="midnightblue" d="M961.486,-112.444C941.913,-103.636 911.193,-89.8116 888.772,-79.722"/>
<polygon fill="midnightblue" stroke="midnightblue" points="889.981,-76.4284 879.426,-75.5164 887.109,-82.8119 889.981,-76.4284"/>
</g>
<!-- Node7 -->
<g id="node7" class="node"><title>Node7</title>
<g id="a_node7"><a xlink:title=" ">
<polygon fill="white" stroke="#bfbfbf" points="909.501,-56.5 909.501,-75.5 971.501,-75.5 971.501,-56.5 909.501,-56.5"/>
<text text-anchor="middle" x="940.501" y="-63.5" font-family="Helvetica,sans-Serif" font-size="10.00">em_cmu.h</text>
</a>
</g>
</g>
<!-- Node1&#45;&gt;Node7 -->
<g id="edge6" class="edge"><title>Node1&#45;&gt;Node7</title>
<path fill="none" stroke="midnightblue" d="M973.895,-112.083C968.245,-104.455 959.956,-93.2645 953.049,-83.9408"/>
<polygon fill="midnightblue" stroke="midnightblue" points="955.748,-81.7034 946.983,-75.7511 950.123,-85.87 955.748,-81.7034"/>
</g>
<!-- Node8 -->
<g id="node8" class="node"><title>Node8</title>
<g id="a_node8"><a xlink:title=" ">
<polygon fill="white" stroke="#bfbfbf" points="989.501,-56.5 989.501,-75.5 1051.5,-75.5 1051.5,-56.5 989.501,-56.5"/>
<text text-anchor="middle" x="1020.5" y="-63.5" font-family="Helvetica,sans-Serif" font-size="10.00">em_emu.h</text>
</a>
</g>
</g>
<!-- Node1&#45;&gt;Node8 -->
<g id="edge7" class="edge"><title>Node1&#45;&gt;Node8</title>
<path fill="none" stroke="midnightblue" d="M987.106,-112.083C992.756,-104.455 1001.05,-93.2645 1007.95,-83.9408"/>
<polygon fill="midnightblue" stroke="midnightblue" points="1010.88,-85.87 1014.02,-75.7511 1005.25,-81.7034 1010.88,-85.87"/>
</g>
<!-- Node9 -->
<g id="node9" class="node"><title>Node9</title>
<g id="a_node9"><a xlink:title=" ">
<polygon fill="white" stroke="#bfbfbf" points="1069.5,-56.5 1069.5,-75.5 1131.5,-75.5 1131.5,-56.5 1069.5,-56.5"/>
<text text-anchor="middle" x="1100.5" y="-63.5" font-family="Helvetica,sans-Serif" font-size="10.00">em_gpio.h</text>
</a>
</g>
</g>
<!-- Node1&#45;&gt;Node9 -->
<g id="edge8" class="edge"><title>Node1&#45;&gt;Node9</title>
<path fill="none" stroke="midnightblue" d="M999.515,-112.444C1019.09,-103.636 1049.81,-89.8116 1072.23,-79.722"/>
<polygon fill="midnightblue" stroke="midnightblue" points="1073.89,-82.8119 1081.58,-75.5164 1071.02,-76.4284 1073.89,-82.8119"/>
</g>
<!-- Node10 -->
<g id="node10" class="node"><title>Node10</title>
<g id="a_node10"><a xlink:title=" ">
<polygon fill="white" stroke="#bfbfbf" points="1150,-56.5 1150,-75.5 1215,-75.5 1215,-56.5 1150,-56.5"/>
<text text-anchor="middle" x="1182.5" y="-63.5" font-family="Helvetica,sans-Serif" font-size="10.00">em_usart.h</text>
</a>
</g>
</g>
<!-- Node1&#45;&gt;Node10 -->
<g id="edge9" class="edge"><title>Node1&#45;&gt;Node10</title>
<path fill="none" stroke="midnightblue" d="M1011.62,-112.681C1046.26,-103.42 1102.42,-88.408 1140.83,-78.1388"/>
<polygon fill="midnightblue" stroke="midnightblue" points="1141.92,-81.4708 1150.68,-75.5069 1140.11,-74.7083 1141.92,-81.4708"/>
</g>
<!-- Node11 -->
<g id="node11" class="node"><title>Node11</title>
<g id="a_node11"><a xlink:title=" ">
<polygon fill="white" stroke="#bfbfbf" points="1233,-56.5 1233,-75.5 1288,-75.5 1288,-56.5 1233,-56.5"/>
<text text-anchor="middle" x="1260.5" y="-63.5" font-family="Helvetica,sans-Serif" font-size="10.00">em_rtc.h</text>
</a>
</g>
</g>
<!-- Node1&#45;&gt;Node11 -->
<g id="edge10" class="edge"><title>Node1&#45;&gt;Node11</title>
<path fill="none" stroke="midnightblue" d="M1011.82,-115.869C1056.56,-108.4 1141.54,-93.695 1222.75,-76.286"/>
<polygon fill="midnightblue" stroke="midnightblue" points="1223.6,-79.6838 1232.63,-74.1499 1222.12,-72.8419 1223.6,-79.6838"/>
</g>
<!-- Node12 -->
<g id="node12" class="node"><title>Node12</title>
<g id="a_node12"><a xlink:title=" ">
<polygon fill="white" stroke="#bfbfbf" points="1306,-56.5 1306,-75.5 1365,-75.5 1365,-56.5 1306,-56.5"/>
<text text-anchor="middle" x="1335.5" y="-63.5" font-family="Helvetica,sans-Serif" font-size="10.00">em_adc.h</text>
</a>
</g>
</g>
<!-- Node1&#45;&gt;Node12 -->
<g id="edge11" class="edge"><title>Node1&#45;&gt;Node12</title>
<path fill="none" stroke="midnightblue" d="M1011.7,-117.532C1067.05,-111.173 1186.2,-96.5542 1295.79,-76.1931"/>
<polygon fill="midnightblue" stroke="midnightblue" points="1296.5,-79.6205 1305.69,-74.3339 1295.21,-72.7409 1296.5,-79.6205"/>
</g>
<!-- Node13 -->
<g id="node13" class="node"><title>Node13</title>
<g id="a_node13"><a xlink:title=" ">
<polygon fill="white" stroke="#bfbfbf" points="1383,-56.5 1383,-75.5 1442,-75.5 1442,-56.5 1383,-56.5"/>
<text text-anchor="middle" x="1412.5" y="-63.5" font-family="Helvetica,sans-Serif" font-size="10.00">rtcdriver.h</text>
</a>
</g>
</g>
<!-- Node1&#45;&gt;Node13 -->
<g id="edge12" class="edge"><title>Node1&#45;&gt;Node13</title>
<path fill="none" stroke="midnightblue" d="M1011.58,-118.714C1076.81,-113.647 1232.85,-100.109 1372.66,-76.1545"/>
<polygon fill="midnightblue" stroke="midnightblue" points="1373.45,-79.5709 1382.7,-74.4117 1372.25,-72.6741 1373.45,-79.5709"/>
</g>
<!-- Node14 -->
<g id="node14" class="node"><title>Node14</title>
<g id="a_node14"><a xlink:title=" ">
<polygon fill="white" stroke="#bfbfbf" points="1460.5,-56.5 1460.5,-75.5 1522.5,-75.5 1522.5,-56.5 1460.5,-56.5"/>
<text text-anchor="middle" x="1491.5" y="-63.5" font-family="Helvetica,sans-Serif" font-size="10.00">em_core.h</text>
</a>
</g>
</g>
<!-- Node1&#45;&gt;Node14 -->
<g id="edge13" class="edge"><title>Node1&#45;&gt;Node14</title>
<path fill="none" stroke="midnightblue" d="M1011.53,-119.392C1085.71,-115.259 1279.27,-102.772 1450.2,-76.0248"/>
<polygon fill="midnightblue" stroke="midnightblue" points="1450.8,-79.4736 1460.13,-74.451 1449.71,-72.56 1450.8,-79.4736"/>
</g>
<!-- Node15 -->
<g id="node15" class="node"><title>Node15</title>
<g id="a_node15"><a xlink:href="debug__dbprint_8h.html" target="_top" xlink:title="Enable or disable printing to UART with dbprint.">
<polygon fill="white" stroke="black" points="1540.5,-56.5 1540.5,-75.5 1626.5,-75.5 1626.5,-56.5 1540.5,-56.5"/>
<text text-anchor="middle" x="1583.5" y="-63.5" font-family="Helvetica,sans-Serif" font-size="10.00">debug_dbprint.h</text>
</a>
</g>
</g>
<!-- Node1&#45;&gt;Node15 -->
<g id="edge14" class="edge"><title>Node1&#45;&gt;Node15</title>
<path fill="none" stroke="midnightblue" d="M1011.67,-119.439C1094.44,-115.084 1326.76,-101.5 1530.43,-76.0253"/>
<polygon fill="midnightblue" stroke="midnightblue" points="1530.93,-79.49 1540.42,-74.7641 1530.06,-72.5452 1530.93,-79.49"/>
</g>
<!-- Node16 -->
<g id="node16" class="node"><title>Node16</title>
<g id="a_node16"><a xlink:href="delay_8h.html" target="_top" xlink:title="Delay functionality.">
<polygon fill="white" stroke="black" points="417.501,-56.5 417.501,-75.5 465.501,-75.5 465.501,-56.5 417.501,-56.5"/>
<text text-anchor="middle" x="441.501" y="-63.5" font-family="Helvetica,sans-Serif" font-size="10.00">delay.h</text>
</a>
</g>
</g>
<!-- Node1&#45;&gt;Node16 -->
<g id="edge15" class="edge"><title>Node1&#45;&gt;Node16</title>
<path fill="none" stroke="midnightblue" d="M949.228,-120.059C869.615,-117.266 653.008,-107.169 475.501,-76 475.399,-75.9822 475.297,-75.9642 475.196,-75.9461"/>
<polygon fill="midnightblue" stroke="midnightblue" points="476.042,-72.5478 465.534,-73.9024 474.593,-79.3962 476.042,-72.5478"/>
</g>
<!-- Node17 -->
<g id="node17" class="node"><title>Node17</title>
<g id="a_node17"><a xlink:title=" ">
<polygon fill="white" stroke="#bfbfbf" points="381.501,-0.5 381.501,-19.5 437.501,-19.5 437.501,-0.5 381.501,-0.5"/>
<text text-anchor="middle" x="409.501" y="-7.5" font-family="Helvetica,sans-Serif" font-size="10.00">stdbool.h</text>
</a>
</g>
</g>
<!-- Node1&#45;&gt;Node17 -->
<g id="edge40" class="edge"><title>Node1&#45;&gt;Node17</title>
<path fill="none" stroke="midnightblue" d="M949.307,-121.285C880.826,-121.098 712.809,-116.188 579.501,-76 560.85,-70.3775 558.425,-63.6282 540.501,-56 509.697,-42.8902 473.655,-30.7311 447.182,-22.3657"/>
<polygon fill="midnightblue" stroke="midnightblue" points="448.125,-18.9932 437.536,-19.3512 446.037,-25.6746 448.125,-18.9932"/>
</g>
<!-- Node18 -->
<g id="node18" class="node"><title>Node18</title>
<g id="a_node18"><a xlink:href="_i_c_m20948_8h.html" target="_top" xlink:title="Advanced funcions to control and read data from the ICM&#45;20948.">
<polygon fill="white" stroke="black" points="159.501,-56.5 159.501,-75.5 227.501,-75.5 227.501,-56.5 159.501,-56.5"/>
<text text-anchor="middle" x="193.501" y="-63.5" font-family="Helvetica,sans-Serif" font-size="10.00">ICM20948.h</text>
</a>
</g>
</g>
<!-- Node1&#45;&gt;Node18 -->
<g id="edge18" class="edge"><title>Node1&#45;&gt;Node18</title>
<path fill="none" stroke="midnightblue" d="M949.157,-120.737C847.663,-119.542 518.794,-112.979 237.67,-75.9555"/>
<polygon fill="midnightblue" stroke="midnightblue" points="238.065,-72.4773 227.69,-74.6256 237.14,-79.4159 238.065,-72.4773"/>
</g>
<!-- Node19 -->
<g id="node19" class="node"><title>Node19</title>
<g id="a_node19"><a xlink:href="interrupt_8h.html" target="_top" xlink:title="Code to detect and generate interrupts.">
<polygon fill="white" stroke="black" points="1644.5,-56.5 1644.5,-75.5 1704.5,-75.5 1704.5,-56.5 1644.5,-56.5"/>
<text text-anchor="middle" x="1674.5" y="-63.5" font-family="Helvetica,sans-Serif" font-size="10.00">interrupt.h</text>
</a>
</g>
</g>
<!-- Node1&#45;&gt;Node19 -->
<g id="edge21" class="edge"><title>Node1&#45;&gt;Node19</title>
<path fill="none" stroke="midnightblue" d="M1011.71,-120.604C1104.92,-119.052 1389.41,-111.641 1634.2,-75.9528"/>
<polygon fill="midnightblue" stroke="midnightblue" points="1634.98,-79.3764 1644.36,-74.4524 1633.95,-72.4516 1634.98,-79.3764"/>
</g>
<!-- Node20 -->
<g id="node20" class="node"><title>Node20</title>
<g id="a_node20"><a xlink:href="ble_8h.html" target="_top" xlink:title="Send data via BLE wirelessly.">
<polygon fill="white" stroke="black" points="245.501,-56.5 245.501,-75.5 283.501,-75.5 283.501,-56.5 245.501,-56.5"/>
<text text-anchor="middle" x="264.501" y="-63.5" font-family="Helvetica,sans-Serif" font-size="10.00">ble.h</text>
</a>
</g>
</g>
<!-- Node1&#45;&gt;Node20 -->
<g id="edge22" class="edge"><title>Node1&#45;&gt;Node20</title>
<path fill="none" stroke="midnightblue" d="M949.367,-121.551C851.738,-122.729 543.245,-122.263 293.501,-76 293.4,-75.9814 293.3,-75.9626 293.199,-75.9435"/>
<polygon fill="midnightblue" stroke="midnightblue" points="294.227,-72.5912 283.685,-73.6464 292.584,-79.3957 294.227,-72.5912"/>
</g>
<!-- Node21 -->
<g id="node21" class="node"><title>Node21</title>
<g id="a_node21"><a xlink:href="uart_8h.html" target="_top" xlink:title="UART communication with BLE.">
<polygon fill="white" stroke="black" points="302.001,-56.5 302.001,-75.5 343.001,-75.5 343.001,-56.5 302.001,-56.5"/>
<text text-anchor="middle" x="322.501" y="-63.5" font-family="Helvetica,sans-Serif" font-size="10.00">uart.h</text>
</a>
</g>
</g>
<!-- Node1&#45;&gt;Node21 -->
<g id="edge25" class="edge"><title>Node1&#45;&gt;Node21</title>
<path fill="none" stroke="midnightblue" d="M949.485,-121.177C858.853,-121.188 586.67,-117.635 353.054,-75.6355"/>
<polygon fill="midnightblue" stroke="midnightblue" points="353.478,-72.1551 343.012,-73.8018 352.22,-79.0412 353.478,-72.1551"/>
</g>
<!-- Node22 -->
<g id="node22" class="node"><title>Node22</title>
<g id="a_node22"><a xlink:href="timer_8h.html" target="_top" xlink:title="millis and micros functionality">
<polygon fill="white" stroke="black" points="484.001,-56.5 484.001,-75.5 531.001,-75.5 531.001,-56.5 484.001,-56.5"/>
<text text-anchor="middle" x="507.501" y="-63.5" font-family="Helvetica,sans-Serif" font-size="10.00">timer.h</text>
</a>
</g>
</g>
<!-- Node1&#45;&gt;Node22 -->
<g id="edge28" class="edge"><title>Node1&#45;&gt;Node22</title>
<path fill="none" stroke="midnightblue" d="M949.46,-119.174C877.864,-114.661 695.776,-101.459 545.501,-76 544.038,-75.7523 542.549,-75.4812 541.047,-75.1925"/>
<polygon fill="midnightblue" stroke="midnightblue" points="541.628,-71.7382 531.121,-73.0939 540.18,-78.5868 541.628,-71.7382"/>
</g>
<!-- Node24 -->
<g id="node24" class="node"><title>Node24</title>
<g id="a_node24"><a xlink:href="datatypes_8h.html" target="_top" xlink:title="Datatypes.">
<polygon fill="white" stroke="black" points="73.5006,-56.5 73.5006,-75.5 141.501,-75.5 141.501,-56.5 73.5006,-56.5"/>
<text text-anchor="middle" x="107.501" y="-63.5" font-family="Helvetica,sans-Serif" font-size="10.00">datatypes.h</text>
</a>
</g>
</g>
<!-- Node1&#45;&gt;Node24 -->
<g id="edge32" class="edge"><title>Node1&#45;&gt;Node24</title>
<path fill="none" stroke="midnightblue" d="M949.443,-121.015C840.904,-120.71 468.404,-116.665 151.976,-75.9834"/>
<polygon fill="midnightblue" stroke="midnightblue" points="152.056,-72.4644 141.688,-74.6451 151.153,-79.4059 152.056,-72.4644"/>
</g>
<!-- Node25 -->
<g id="node25" class="node"><title>Node25</title>
<g id="a_node25"><a xlink:href="util_8h.html" target="_top" xlink:title="Handy functions.">
<polygon fill="white" stroke="black" points="361.501,-56.5 361.501,-75.5 399.501,-75.5 399.501,-56.5 361.501,-56.5"/>
<text text-anchor="middle" x="380.501" y="-63.5" font-family="Helvetica,sans-Serif" font-size="10.00">util.h</text>
</a>
</g>
</g>
<!-- Node1&#45;&gt;Node25 -->
<g id="edge34" class="edge"><title>Node1&#45;&gt;Node25</title>
<path fill="none" stroke="midnightblue" d="M949.465,-121.077C864.293,-120.76 619.823,-116.288 409.609,-75.7525"/>
<polygon fill="midnightblue" stroke="midnightblue" points="410.112,-72.2846 399.626,-73.7949 408.765,-79.1538 410.112,-72.2846"/>
</g>
<!-- Node26 -->
<g id="node26" class="node"><title>Node26</title>
<g id="a_node26"><a xlink:href="rtcdrv__config_8h.html" target="_top" xlink:title="RTC timer config file.">
<polygon fill="white" stroke="black" points="1723,-56.5 1723,-75.5 1802,-75.5 1802,-56.5 1723,-56.5"/>
<text text-anchor="middle" x="1762.5" y="-63.5" font-family="Helvetica,sans-Serif" font-size="10.00">rtcdrv_config.h</text>
</a>
</g>
</g>
<!-- Node1&#45;&gt;Node26 -->
<g id="edge37" class="edge"><title>Node1&#45;&gt;Node26</title>
<path fill="none" stroke="midnightblue" d="M1011.7,-120.426C1111.95,-118.299 1434.97,-109.25 1712.71,-75.9267"/>
<polygon fill="midnightblue" stroke="midnightblue" points="1713.48,-79.359 1722.98,-74.6801 1712.63,-72.41 1713.48,-79.359"/>
</g>
<!-- Node27 -->
<g id="node27" class="node"><title>Node27</title>
<g id="a_node27"><a xlink:href="pinout_8h.html" target="_top" xlink:title="File to keep track of most the pins used, pins for BLE are in own file BLE.h.">
<polygon fill="white" stroke="black" points="1820,-56.5 1820,-75.5 1871,-75.5 1871,-56.5 1820,-56.5"/>
<text text-anchor="middle" x="1845.5" y="-63.5" font-family="Helvetica,sans-Serif" font-size="10.00">pinout.h</text>
</a>
</g>
</g>
<!-- Node1&#45;&gt;Node27 -->
<g id="edge38" class="edge"><title>Node1&#45;&gt;Node27</title>
<path fill="none" stroke="midnightblue" d="M1011.75,-120.164C1140.85,-116.582 1633.64,-101.6 1810.09,-75.8604"/>
<polygon fill="midnightblue" stroke="midnightblue" points="1810.64,-79.3163 1820,-74.3493 1809.59,-72.3963 1810.64,-79.3163"/>
</g>
<!-- Node28 -->
<g id="node28" class="node"><title>Node28</title>
<g id="a_node28"><a xlink:href="_i2_c_8h.html" target="_top" xlink:title="I2C function to read&#45;write the I2C bus, based on DRAMCO code.">
<polygon fill="white" stroke="black" points="588.001,-56.5 588.001,-75.5 627.001,-75.5 627.001,-56.5 588.001,-56.5"/>
<text text-anchor="middle" x="607.501" y="-63.5" font-family="Helvetica,sans-Serif" font-size="10.00">I2C.h</text>
</a>
</g>
</g>
<!-- Node1&#45;&gt;Node28 -->
<g id="edge41" class="edge"><title>Node1&#45;&gt;Node28</title>
<path fill="none" stroke="midnightblue" d="M949.359,-118.719C890.229,-114.006 757.59,-101.599 636.819,-75.6937"/>
<polygon fill="midnightblue" stroke="midnightblue" points="637.551,-72.2712 627.035,-73.5592 636.059,-79.1103 637.551,-72.2712"/>
</g>
<!-- Node29 -->
<g id="node29" class="node"><title>Node29</title>
<g id="a_node29"><a xlink:href="_madgwick_a_h_r_s_8h.html" target="_top" xlink:title="Sensor fusion.">
<polygon fill="white" stroke="black" points="1889,-56.5 1889,-75.5 1984,-75.5 1984,-56.5 1889,-56.5"/>
<text text-anchor="middle" x="1936.5" y="-63.5" font-family="Helvetica,sans-Serif" font-size="10.00">MadgwickAHRS.h</text>
</a>
</g>
</g>
<!-- Node1&#45;&gt;Node29 -->
<g id="edge43" class="edge"><title>Node1&#45;&gt;Node29</title>
<path fill="none" stroke="midnightblue" d="M1011.68,-120.675C1126.06,-119.223 1533.46,-111.771 1878.94,-76.0531"/>
<polygon fill="midnightblue" stroke="midnightblue" points="1879.31,-79.5343 1888.89,-75.0152 1878.58,-72.5721 1879.31,-79.5343"/>
</g>
<!-- Node30 -->
<g id="node30" class="node"><title>Node30</title>
<g id="a_node30"><a xlink:title=" ">
<polygon fill="white" stroke="#bfbfbf" points="2002,-56.5 2002,-75.5 2049,-75.5 2049,-56.5 2002,-56.5"/>
<text text-anchor="middle" x="2025.5" y="-63.5" font-family="Helvetica,sans-Serif" font-size="10.00">math.h</text>
</a>
</g>
</g>
<!-- Node1&#45;&gt;Node30 -->
<g id="edge44" class="edge"><title>Node1&#45;&gt;Node30</title>
<path fill="none" stroke="midnightblue" d="M1011.87,-120.577C1158.48,-118.451 1777.75,-107.821 1991.98,-75.8385"/>
<polygon fill="midnightblue" stroke="midnightblue" points="1992.53,-79.2953 2001.87,-74.2993 1991.45,-72.3785 1992.53,-79.2953"/>
</g>
<!-- Node31 -->
<g id="node31" class="node"><title>Node31</title>
<g id="a_node31"><a xlink:title=" ">
<polygon fill="white" stroke="#bfbfbf" points="2067,-56.5 2067,-75.5 2108,-75.5 2108,-56.5 2067,-56.5"/>
<text text-anchor="middle" x="2087.5" y="-63.5" font-family="Helvetica,sans-Serif" font-size="10.00">bsp.h</text>
</a>
</g>
</g>
<!-- Node1&#45;&gt;Node31 -->
<g id="edge45" class="edge"><title>Node1&#45;&gt;Node31</title>
<path fill="none" stroke="midnightblue" d="M1011.56,-120.788C1163.37,-119.588 1828.78,-112.408 2056.56,-75.8529"/>
<polygon fill="midnightblue" stroke="midnightblue" points="2057.47,-79.2503 2066.75,-74.1466 2056.31,-72.3464 2057.47,-79.2503"/>
</g>
<!-- Node32 -->
<g id="node32" class="node"><title>Node32</title>
<g id="a_node32"><a xlink:title=" ">
<polygon fill="white" stroke="#bfbfbf" points="2126.5,-56.5 2126.5,-75.5 2194.5,-75.5 2194.5,-56.5 2126.5,-56.5"/>
<text text-anchor="middle" x="2160.5" y="-63.5" font-family="Helvetica,sans-Serif" font-size="10.00">bsp_trace.h</text>
</a>
</g>
</g>
<!-- Node1&#45;&gt;Node32 -->
<g id="edge46" class="edge"><title>Node1&#45;&gt;Node32</title>
<path fill="none" stroke="midnightblue" d="M1011.61,-120.471C1168.46,-117.698 1874.22,-103.939 2116.18,-75.9075"/>
<polygon fill="midnightblue" stroke="midnightblue" points="2116.81,-79.3577 2126.32,-74.6908 2115.97,-72.4076 2116.81,-79.3577"/>
</g>
<!-- Node2&#45;&gt;Node3 -->
<g id="edge2" class="edge"><title>Node2&#45;&gt;Node3</title>
<path fill="none" stroke="midnightblue" d="M55.1037,-58.6119C58.2415,-57.6991 61.4498,-56.7998 64.5006,-56 122.018,-40.9216 189.644,-26.3581 229.687,-18.0595"/>
<polygon fill="midnightblue" stroke="midnightblue" points="230.646,-21.4354 239.734,-15.9889 229.233,-14.5794 230.646,-21.4354"/>
</g>
<!-- Node16&#45;&gt;Node3 -->
<g id="edge16" class="edge"><title>Node16&#45;&gt;Node3</title>
<path fill="none" stroke="midnightblue" d="M417.261,-57.6048C386.583,-48.2455 333.555,-32.0674 298.751,-21.4492"/>
<polygon fill="midnightblue" stroke="midnightblue" points="299.602,-18.0497 289.016,-18.4792 297.559,-24.745 299.602,-18.0497"/>
</g>
<!-- Node16&#45;&gt;Node17 -->
<g id="edge17" class="edge"><title>Node16&#45;&gt;Node17</title>
<path fill="none" stroke="midnightblue" d="M436.216,-56.083C431.79,-48.6127 425.337,-37.7244 419.883,-28.5199"/>
<polygon fill="midnightblue" stroke="midnightblue" points="422.795,-26.5697 414.686,-19.7511 416.773,-30.1383 422.795,-26.5697"/>
</g>
<!-- Node18&#45;&gt;Node3 -->
<g id="edge19" class="edge"><title>Node18&#45;&gt;Node3</title>
<path fill="none" stroke="midnightblue" d="M204.908,-56.324C215.609,-48.1849 231.841,-35.8395 244.663,-26.0874"/>
<polygon fill="midnightblue" stroke="midnightblue" points="247.045,-28.6734 252.886,-19.8339 242.807,-23.1018 247.045,-28.6734"/>
</g>
<!-- Node18&#45;&gt;Node17 -->
<g id="edge20" class="edge"><title>Node18&#45;&gt;Node17</title>
<path fill="none" stroke="midnightblue" d="M227.726,-56.4435C266.876,-46.656 330.801,-30.6748 371.475,-20.5064"/>
<polygon fill="midnightblue" stroke="midnightblue" points="372.433,-23.8746 381.286,-18.0537 370.735,-17.0836 372.433,-23.8746"/>
</g>
<!-- Node20&#45;&gt;Node3 -->
<g id="edge23" class="edge"><title>Node20&#45;&gt;Node3</title>
<path fill="none" stroke="midnightblue" d="M264.501,-56.083C264.501,-49.0059 264.501,-38.8611 264.501,-29.9865"/>
<polygon fill="midnightblue" stroke="midnightblue" points="268.001,-29.751 264.501,-19.7511 261.001,-29.7511 268.001,-29.751"/>
</g>
<!-- Node20&#45;&gt;Node17 -->
<g id="edge24" class="edge"><title>Node20&#45;&gt;Node17</title>
<path fill="none" stroke="midnightblue" d="M283.755,-57.8292C307.461,-49.0009 348.093,-33.869 376.743,-23.1994"/>
<polygon fill="midnightblue" stroke="midnightblue" points="378.18,-26.3992 386.329,-19.6293 375.737,-19.8394 378.18,-26.3992"/>
</g>
<!-- Node21&#45;&gt;Node3 -->
<g id="edge26" class="edge"><title>Node21&#45;&gt;Node3</title>
<path fill="none" stroke="midnightblue" d="M313.182,-56.324C304.608,-48.3414 291.688,-36.3128 281.313,-26.6529"/>
<polygon fill="midnightblue" stroke="midnightblue" points="283.693,-24.0865 273.989,-19.8339 278.923,-29.2098 283.693,-24.0865"/>
</g>
<!-- Node21&#45;&gt;Node17 -->
<g id="edge27" class="edge"><title>Node21&#45;&gt;Node17</title>
<path fill="none" stroke="midnightblue" d="M336.479,-56.324C350.05,-47.9002 370.881,-34.9709 386.826,-25.0741"/>
<polygon fill="midnightblue" stroke="midnightblue" points="388.907,-27.9019 395.557,-19.6545 385.215,-21.9544 388.907,-27.9019"/>
</g>
<!-- Node22&#45;&gt;Node3 -->
<g id="edge29" class="edge"><title>Node22&#45;&gt;Node3</title>
<path fill="none" stroke="midnightblue" d="M483.748,-58.3539C480.644,-57.5348 477.501,-56.73 474.501,-56 413.047,-41.0477 340.834,-26.1535 299.1,-17.805"/>
<polygon fill="midnightblue" stroke="midnightblue" points="299.663,-14.3484 289.172,-15.8275 298.295,-21.2136 299.663,-14.3484"/>
</g>
<!-- Node22&#45;&gt;Node17 -->
<g id="edge30" class="edge"><title>Node22&#45;&gt;Node17</title>
<path fill="none" stroke="midnightblue" d="M491.755,-56.324C476.182,-47.7428 452.123,-34.486 434.041,-24.5224"/>
<polygon fill="midnightblue" stroke="midnightblue" points="435.654,-21.4152 425.207,-19.6545 432.276,-27.546 435.654,-21.4152"/>
</g>
<!-- Node23 -->
<g id="node23" class="node"><title>Node23</title>
<g id="a_node23"><a xlink:title=" ">
<polygon fill="white" stroke="#bfbfbf" points="484.501,-0.5 484.501,-19.5 530.501,-19.5 530.501,-0.5 484.501,-0.5"/>
<text text-anchor="middle" x="507.501" y="-7.5" font-family="Helvetica,sans-Serif" font-size="10.00">stdio.h</text>
</a>
</g>
</g>
<!-- Node22&#45;&gt;Node23 -->
<g id="edge31" class="edge"><title>Node22&#45;&gt;Node23</title>
<path fill="none" stroke="midnightblue" d="M507.501,-56.083C507.501,-49.0059 507.501,-38.8611 507.501,-29.9865"/>
<polygon fill="midnightblue" stroke="midnightblue" points="511.001,-29.751 507.501,-19.7511 504.001,-29.7511 511.001,-29.751"/>
</g>
<!-- Node24&#45;&gt;Node3 -->
<g id="edge33" class="edge"><title>Node24&#45;&gt;Node3</title>
<path fill="none" stroke="midnightblue" d="M132.378,-56.4435C158.868,-47.3324 200.962,-32.8539 230.502,-22.6936"/>
<polygon fill="midnightblue" stroke="midnightblue" points="231.68,-25.9898 239.998,-19.4275 229.404,-19.3704 231.68,-25.9898"/>
</g>
<!-- Node25&#45;&gt;Node3 -->
<g id="edge35" class="edge"><title>Node25&#45;&gt;Node3</title>
<path fill="none" stroke="midnightblue" d="M362.12,-56.4435C343.284,-47.6751 313.769,-33.9355 292.121,-23.8579"/>
<polygon fill="midnightblue" stroke="midnightblue" points="293.338,-20.5637 282.795,-19.5164 290.384,-26.9098 293.338,-20.5637"/>
</g>
<!-- Node25&#45;&gt;Node17 -->
<g id="edge36" class="edge"><title>Node25&#45;&gt;Node17</title>
<path fill="none" stroke="midnightblue" d="M385.289,-56.083C389.259,-48.6913 395.026,-37.9533 399.935,-28.8111"/>
<polygon fill="midnightblue" stroke="midnightblue" points="403.153,-30.217 404.801,-19.7511 396.986,-26.9051 403.153,-30.217"/>
</g>
<!-- Node28&#45;&gt;Node17 -->
<g id="edge42" class="edge"><title>Node28&#45;&gt;Node17</title>
<path fill="none" stroke="midnightblue" d="M587.792,-59.6249C555.17,-50.728 489.4,-32.7907 447.506,-21.3651"/>
<polygon fill="midnightblue" stroke="midnightblue" points="448.231,-17.935 437.662,-18.6804 446.389,-24.6884 448.231,-17.935"/>
</g>
</g>
</svg>
