<?xml version="1.0" encoding="UTF-8" standalone="no"?>
<!DOCTYPE svg PUBLIC "-//W3C//DTD SVG 1.1//EN"
 "http://www.w3.org/Graphics/SVG/1.1/DTD/svg11.dtd">
<!-- Generated by graphviz version 2.38.0 (20140413.2041)
 -->
<!-- Title: inc/pinout.h Pages: 1 -->
<svg width="632pt" height="84pt"
 viewBox="0.00 0.00 631.50 84.00" xmlns="http://www.w3.org/2000/svg" xmlns:xlink="http://www.w3.org/1999/xlink">
<g id="graph0" class="graph" transform="scale(1 1) rotate(0) translate(4 80)">
<title>inc/pinout.h</title>
<polygon fill="white" stroke="none" points="-4,4 -4,-80 627.5,-80 627.5,4 -4,4"/>
<!-- Node1 -->
<g id="node1" class="node"><title>Node1</title>
<g id="a_node1"><a xlink:title="File to keep track of most the pins used, pins for BLE are in own file BLE.h.">
<polygon fill="#bfbfbf" stroke="black" points="262,-56.5 262,-75.5 329,-75.5 329,-56.5 262,-56.5"/>
<text text-anchor="middle" x="295.5" y="-63.5" font-family="Helvetica,sans-Serif" font-size="10.00">inc/pinout.h</text>
</a>
</g>
</g>
<!-- Node2 -->
<g id="node2" class="node"><title>Node2</title>
<g id="a_node2"><a xlink:href="ble_8c.html" target="_top" xlink:title="Send data via BLE wirelessly.">
<polygon fill="white" stroke="black" points="0,-0.5 0,-19.5 53,-19.5 53,-0.5 0,-0.5"/>
<text text-anchor="middle" x="26.5" y="-7.5" font-family="Helvetica,sans-Serif" font-size="10.00">ble/ble.c</text>
</a>
</g>
</g>
<!-- Node1&#45;&gt;Node2 -->
<g id="edge1" class="edge"><title>Node1&#45;&gt;Node2</title>
<path fill="none" stroke="midnightblue" d="M251.777,-57.4239C204.644,-49.0631 127.497,-34.8165 61.5,-20 58.8065,-19.3953 56.0049,-18.7326 53.212,-18.0497"/>
<polygon fill="midnightblue" stroke="midnightblue" points="251.195,-60.8752 261.652,-59.1672 252.412,-53.9818 251.195,-60.8752"/>
</g>
<!-- Node3 -->
<g id="node3" class="node"><title>Node3</title>
<g id="a_node3"><a xlink:href="uart_8c.html" target="_top" xlink:title="UART communication with BLE.">
<polygon fill="white" stroke="black" points="71,-0.5 71,-19.5 128,-19.5 128,-0.5 71,-0.5"/>
<text text-anchor="middle" x="99.5" y="-7.5" font-family="Helvetica,sans-Serif" font-size="10.00">ble/uart.c</text>
</a>
</g>
</g>
<!-- Node1&#45;&gt;Node3 -->
<g id="edge2" class="edge"><title>Node1&#45;&gt;Node3</title>
<path fill="none" stroke="midnightblue" d="M254.749,-53.7727C216.917,-43.3497 161.557,-28.0972 128.18,-18.9015"/>
<polygon fill="midnightblue" stroke="midnightblue" points="253.873,-57.1616 264.443,-56.4435 255.732,-50.413 253.873,-57.1616"/>
</g>
<!-- Node4 -->
<g id="node4" class="node"><title>Node4</title>
<g id="a_node4"><a xlink:href="_i2_c_8c.html" target="_top" xlink:title="I2C function to read&#45;write the I2C bus, based on DRAMCO code.">
<polygon fill="white" stroke="black" points="146,-0.5 146,-19.5 217,-19.5 217,-0.5 146,-0.5"/>
<text text-anchor="middle" x="181.5" y="-7.5" font-family="Helvetica,sans-Serif" font-size="10.00">Comm/I2C.c</text>
</a>
</g>
</g>
<!-- Node1&#45;&gt;Node4 -->
<g id="edge3" class="edge"><title>Node1&#45;&gt;Node4</title>
<path fill="none" stroke="midnightblue" d="M268.258,-52.096C246.96,-42.0073 217.958,-28.2697 199.479,-19.5164"/>
<polygon fill="midnightblue" stroke="midnightblue" points="266.901,-55.3257 277.436,-56.4435 269.897,-48.9995 266.901,-55.3257"/>
</g>
<!-- Node5 -->
<g id="node5" class="node"><title>Node5</title>
<g id="a_node5"><a xlink:href="_i_c_m20948_8c.html" target="_top" xlink:title="Advanced funcions to control and read data from the ICM&#45;20948.">
<polygon fill="white" stroke="black" points="235.5,-0.5 235.5,-19.5 355.5,-19.5 355.5,-0.5 235.5,-0.5"/>
<text text-anchor="middle" x="295.5" y="-7.5" font-family="Helvetica,sans-Serif" font-size="10.00">ICM_20948/ICM20948.c</text>
</a>
</g>
</g>
<!-- Node1&#45;&gt;Node5 -->
<g id="edge4" class="edge"><title>Node1&#45;&gt;Node5</title>
<path fill="none" stroke="midnightblue" d="M295.5,-45.8045C295.5,-36.9102 295.5,-26.7798 295.5,-19.7511"/>
<polygon fill="midnightblue" stroke="midnightblue" points="292,-46.083 295.5,-56.083 299,-46.083 292,-46.083"/>
</g>
<!-- Node6 -->
<g id="node6" class="node"><title>Node6</title>
<g id="a_node6"><a xlink:href="util_8c.html" target="_top" xlink:title="Handy functions.">
<polygon fill="white" stroke="black" points="374,-0.5 374,-19.5 427,-19.5 427,-0.5 374,-0.5"/>
<text text-anchor="middle" x="400.5" y="-7.5" font-family="Helvetica,sans-Serif" font-size="10.00">inc/util.c</text>
</a>
</g>
</g>
<!-- Node1&#45;&gt;Node6 -->
<g id="edge5" class="edge"><title>Node1&#45;&gt;Node6</title>
<path fill="none" stroke="midnightblue" d="M321.31,-51.7261C340.753,-41.7271 366.848,-28.3065 383.672,-19.6545"/>
<polygon fill="midnightblue" stroke="midnightblue" points="319.662,-48.6379 312.37,-56.324 322.864,-54.8629 319.662,-48.6379"/>
</g>
<!-- Node7 -->
<g id="node7" class="node"><title>Node7</title>
<g id="a_node7"><a xlink:href="interrupt_8c.html" target="_top" xlink:title="Code to detect and generate interrupts.">
<polygon fill="white" stroke="black" points="445.5,-0.5 445.5,-19.5 543.5,-19.5 543.5,-0.5 445.5,-0.5"/>
<text text-anchor="middle" x="494.5" y="-7.5" font-family="Helvetica,sans-Serif" font-size="10.00">interrupt/interrupt.c</text>
</a>
</g>
</g>
<!-- Node1&#45;&gt;Node7 -->
<g id="edge6" class="edge"><title>Node1&#45;&gt;Node7</title>
<path fill="none" stroke="midnightblue" d="M337.148,-53.6986C374.706,-43.507 429.114,-28.7429 463.115,-19.5164"/>
<polygon fill="midnightblue" stroke="midnightblue" points="335.767,-50.4468 327.032,-56.4435 337.6,-57.2025 335.767,-50.4468"/>
</g>
<!-- Node8 -->
<g id="node8" class="node"><title>Node8</title>
<g id="a_node8"><a xlink:href="main_8c.html" target="_top" xlink:title="Code used in master thesis, MAIN FILE.">
<polygon fill="white" stroke="black" points="561.5,-0.5 561.5,-19.5 623.5,-19.5 623.5,-0.5 561.5,-0.5"/>
<text text-anchor="middle" x="592.5" y="-7.5" font-family="Helvetica,sans-Serif" font-size="10.00">src/main.c</text>
</a>
</g>
</g>
<!-- Node1&#45;&gt;Node8 -->
<g id="edge7" class="edge"><title>Node1&#45;&gt;Node8</title>
<path fill="none" stroke="midnightblue" d="M339.337,-57.9819C390.589,-49.6246 477.909,-34.9129 552.5,-20 555.292,-19.4418 558.188,-18.8383 561.087,-18.2173"/>
<polygon fill="midnightblue" stroke="midnightblue" points="338.583,-54.5584 329.274,-59.6167 339.706,-61.4678 338.583,-54.5584"/>
</g>
</g>
</svg>
