<?xml version="1.0" encoding="UTF-8" standalone="no"?>
<!DOCTYPE svg PUBLIC "-//W3C//DTD SVG 1.1//EN"
 "http://www.w3.org/Graphics/SVG/1.1/DTD/svg11.dtd">
<!-- Generated by graphviz version 2.38.0 (20140413.2041)
 -->
<!-- Title: delay/timer.h Pages: 1 -->
<svg width="300pt" height="84pt"
 viewBox="0.00 0.00 299.50 84.00" xmlns="http://www.w3.org/2000/svg" xmlns:xlink="http://www.w3.org/1999/xlink">
<g id="graph0" class="graph" transform="scale(1 1) rotate(0) translate(4 80)">
<title>delay/timer.h</title>
<polygon fill="white" stroke="none" points="-4,4 -4,-80 295.5,-80 295.5,4 -4,4"/>
<!-- Node1 -->
<g id="node1" class="node"><title>Node1</title>
<g id="a_node1"><a xlink:title=" ">
<polygon fill="#bfbfbf" stroke="black" points="115,-56.5 115,-75.5 188,-75.5 188,-56.5 115,-56.5"/>
<text text-anchor="middle" x="151.5" y="-63.5" font-family="Helvetica,sans-Serif" font-size="10.00">delay/timer.h</text>
</a>
</g>
</g>
<!-- Node2 -->
<g id="node2" class="node"><title>Node2</title>
<g id="a_node2"><a xlink:href="timer_8c.html" target="_top" xlink:title=" ">
<polygon fill="white" stroke="black" points="0,-0.5 0,-19.5 73,-19.5 73,-0.5 0,-0.5"/>
<text text-anchor="middle" x="36.5" y="-7.5" font-family="Helvetica,sans-Serif" font-size="10.00">delay/timer.c</text>
</a>
</g>
</g>
<!-- Node1&#45;&gt;Node2 -->
<g id="edge1" class="edge"><title>Node1&#45;&gt;Node2</title>
<path fill="none" stroke="midnightblue" d="M124.019,-52.096C102.534,-42.0073 73.2781,-28.2697 54.6368,-19.5164"/>
<polygon fill="midnightblue" stroke="midnightblue" points="122.738,-55.3612 133.278,-56.4435 125.714,-49.025 122.738,-55.3612"/>
</g>
<!-- Node3 -->
<g id="node3" class="node"><title>Node3</title>
<g id="a_node3"><a xlink:href="_i_c_m20948_8c.html" target="_top" xlink:title="Advanced funcions to control and read data from the ICM&#45;20948.">
<polygon fill="white" stroke="black" points="91.5,-0.5 91.5,-19.5 211.5,-19.5 211.5,-0.5 91.5,-0.5"/>
<text text-anchor="middle" x="151.5" y="-7.5" font-family="Helvetica,sans-Serif" font-size="10.00">ICM_20948/ICM20948.c</text>
</a>
</g>
</g>
<!-- Node1&#45;&gt;Node3 -->
<g id="edge2" class="edge"><title>Node1&#45;&gt;Node3</title>
<path fill="none" stroke="midnightblue" d="M151.5,-45.8045C151.5,-36.9102 151.5,-26.7798 151.5,-19.7511"/>
<polygon fill="midnightblue" stroke="midnightblue" points="148,-46.083 151.5,-56.083 155,-46.083 148,-46.083"/>
</g>
<!-- Node4 -->
<g id="node4" class="node"><title>Node4</title>
<g id="a_node4"><a xlink:href="main_8c.html" target="_top" xlink:title="Code used in master thesis, MAIN FILE.">
<polygon fill="white" stroke="black" points="229.5,-0.5 229.5,-19.5 291.5,-19.5 291.5,-0.5 229.5,-0.5"/>
<text text-anchor="middle" x="260.5" y="-7.5" font-family="Helvetica,sans-Serif" font-size="10.00">src/main.c</text>
</a>
</g>
</g>
<!-- Node1&#45;&gt;Node4 -->
<g id="edge3" class="edge"><title>Node1&#45;&gt;Node4</title>
<path fill="none" stroke="midnightblue" d="M178.019,-51.8622C198.23,-41.8492 225.487,-28.3458 243.031,-19.6545"/>
<polygon fill="midnightblue" stroke="midnightblue" points="176.42,-48.7485 169.013,-56.324 179.527,-55.0209 176.42,-48.7485"/>
</g>
</g>
</svg>
