<?xml version="1.0" encoding="UTF-8" standalone="no"?>
<!DOCTYPE svg PUBLIC "-//W3C//DTD SVG 1.1//EN"
 "http://www.w3.org/Graphics/SVG/1.1/DTD/svg11.dtd">
<!-- Generated by graphviz version 2.38.0 (20140413.2041)
 -->
<!-- Title: delay/timer.c Pages: 1 -->
<svg width="432pt" height="140pt"
 viewBox="0.00 0.00 432.00 140.00" xmlns="http://www.w3.org/2000/svg" xmlns:xlink="http://www.w3.org/1999/xlink">
<g id="graph0" class="graph" transform="scale(1 1) rotate(0) translate(4 136)">
<title>delay/timer.c</title>
<polygon fill="white" stroke="none" points="-4,4 -4,-136 428,-136 428,4 -4,4"/>
<!-- Node1 -->
<g id="node1" class="node"><title>Node1</title>
<g id="a_node1"><a xlink:title="millis and micros functionality">
<polygon fill="#bfbfbf" stroke="black" points="130,-112.5 130,-131.5 203,-131.5 203,-112.5 130,-112.5"/>
<text text-anchor="middle" x="166.5" y="-119.5" font-family="Helvetica,sans-Serif" font-size="10.00">delay/timer.c</text>
</a>
</g>
</g>
<!-- Node2 -->
<g id="node2" class="node"><title>Node2</title>
<g id="a_node2"><a xlink:href="timer_8h.html" target="_top" xlink:title="millis and micros functionality">
<polygon fill="white" stroke="black" points="91,-56.5 91,-75.5 138,-75.5 138,-56.5 91,-56.5"/>
<text text-anchor="middle" x="114.5" y="-63.5" font-family="Helvetica,sans-Serif" font-size="10.00">timer.h</text>
</a>
</g>
</g>
<!-- Node1&#45;&gt;Node2 -->
<g id="edge1" class="edge"><title>Node1&#45;&gt;Node2</title>
<path fill="none" stroke="midnightblue" d="M157.913,-112.083C150.341,-104.22 139.122,-92.5688 129.986,-83.0813"/>
<polygon fill="midnightblue" stroke="midnightblue" points="132.385,-80.5266 122.927,-75.7511 127.342,-85.3821 132.385,-80.5266"/>
</g>
<!-- Node3 -->
<g id="node3" class="node"><title>Node3</title>
<g id="a_node3"><a xlink:title=" ">
<polygon fill="white" stroke="#bfbfbf" points="0,-0.5 0,-19.5 49,-19.5 49,-0.5 0,-0.5"/>
<text text-anchor="middle" x="24.5" y="-7.5" font-family="Helvetica,sans-Serif" font-size="10.00">stdint.h</text>
</a>
</g>
</g>
<!-- Node1&#45;&gt;Node3 -->
<g id="edge8" class="edge"><title>Node1&#45;&gt;Node3</title>
<path fill="none" stroke="midnightblue" d="M140.952,-112.423C121.138,-104.923 93.7345,-92.6238 73.5,-76 57.1754,-62.5884 43.2066,-42.6737 34.4094,-28.4251"/>
<polygon fill="midnightblue" stroke="midnightblue" points="37.2941,-26.428 29.1798,-19.6156 31.2748,-30.0012 37.2941,-26.428"/>
</g>
<!-- Node4 -->
<g id="node4" class="node"><title>Node4</title>
<g id="a_node4"><a xlink:title=" ">
<polygon fill="white" stroke="#bfbfbf" points="67.5,-0.5 67.5,-19.5 123.5,-19.5 123.5,-0.5 67.5,-0.5"/>
<text text-anchor="middle" x="95.5" y="-7.5" font-family="Helvetica,sans-Serif" font-size="10.00">stdbool.h</text>
</a>
</g>
</g>
<!-- Node1&#45;&gt;Node4 -->
<g id="edge9" class="edge"><title>Node1&#45;&gt;Node4</title>
<path fill="none" stroke="midnightblue" d="M132.701,-112.388C114.107,-105.735 92.6103,-94.4531 81.5,-76 72.7799,-61.5167 78.6189,-42.3316 85.2129,-28.5644"/>
<polygon fill="midnightblue" stroke="midnightblue" points="88.3521,-30.1155 89.9504,-19.642 82.1695,-26.8328 88.3521,-30.1155"/>
</g>
<!-- Node5 -->
<g id="node5" class="node"><title>Node5</title>
<g id="a_node5"><a xlink:title=" ">
<polygon fill="white" stroke="#bfbfbf" points="142.5,-0.5 142.5,-19.5 188.5,-19.5 188.5,-0.5 142.5,-0.5"/>
<text text-anchor="middle" x="165.5" y="-7.5" font-family="Helvetica,sans-Serif" font-size="10.00">stdio.h</text>
</a>
</g>
</g>
<!-- Node1&#45;&gt;Node5 -->
<g id="edge10" class="edge"><title>Node1&#45;&gt;Node5</title>
<path fill="none" stroke="midnightblue" d="M166.422,-112.368C166.26,-94.617 165.888,-53.6664 165.669,-29.5974"/>
<polygon fill="midnightblue" stroke="midnightblue" points="169.169,-29.5592 165.578,-19.5914 162.169,-29.6229 169.169,-29.5592"/>
</g>
<!-- Node6 -->
<g id="node6" class="node"><title>Node6</title>
<g id="a_node6"><a xlink:title=" ">
<polygon fill="white" stroke="#bfbfbf" points="195,-56.5 195,-75.5 250,-75.5 250,-56.5 195,-56.5"/>
<text text-anchor="middle" x="222.5" y="-63.5" font-family="Helvetica,sans-Serif" font-size="10.00">em_rtc.h</text>
</a>
</g>
</g>
<!-- Node1&#45;&gt;Node6 -->
<g id="edge5" class="edge"><title>Node1&#45;&gt;Node6</title>
<path fill="none" stroke="midnightblue" d="M175.497,-112.324C183.694,-104.42 196.006,-92.5482 205.972,-82.9377"/>
<polygon fill="midnightblue" stroke="midnightblue" points="208.57,-85.2947 213.339,-75.8339 203.711,-80.2558 208.57,-85.2947"/>
</g>
<!-- Node7 -->
<g id="node7" class="node"><title>Node7</title>
<g id="a_node7"><a xlink:title=" ">
<polygon fill="white" stroke="#bfbfbf" points="268,-56.5 268,-75.5 327,-75.5 327,-56.5 268,-56.5"/>
<text text-anchor="middle" x="297.5" y="-63.5" font-family="Helvetica,sans-Serif" font-size="10.00">rtcdriver.h</text>
</a>
</g>
</g>
<!-- Node1&#45;&gt;Node7 -->
<g id="edge6" class="edge"><title>Node1&#45;&gt;Node7</title>
<path fill="none" stroke="midnightblue" d="M187.257,-112.444C208.816,-103.557 242.763,-89.5632 267.294,-79.4514"/>
<polygon fill="midnightblue" stroke="midnightblue" points="268.928,-82.5634 276.84,-75.5164 266.261,-76.0917 268.928,-82.5634"/>
</g>
<!-- Node8 -->
<g id="node8" class="node"><title>Node8</title>
<g id="a_node8"><a xlink:href="rtcdrv__config_8h.html" target="_top" xlink:title="RTC timer config file.">
<polygon fill="white" stroke="black" points="345,-56.5 345,-75.5 424,-75.5 424,-56.5 345,-56.5"/>
<text text-anchor="middle" x="384.5" y="-63.5" font-family="Helvetica,sans-Serif" font-size="10.00">rtcdrv_config.h</text>
</a>
</g>
</g>
<!-- Node1&#45;&gt;Node8 -->
<g id="edge7" class="edge"><title>Node1&#45;&gt;Node8</title>
<path fill="none" stroke="midnightblue" d="M201.043,-112.444C238.753,-103.102 299.24,-88.1194 340.365,-77.9326"/>
<polygon fill="midnightblue" stroke="midnightblue" points="341.254,-81.3182 350.119,-75.5164 339.571,-74.5236 341.254,-81.3182"/>
</g>
<!-- Node2&#45;&gt;Node3 -->
<g id="edge2" class="edge"><title>Node2&#45;&gt;Node3</title>
<path fill="none" stroke="midnightblue" d="M100.04,-56.324C86.0004,-47.9002 64.4515,-34.9709 47.9569,-25.0741"/>
<polygon fill="midnightblue" stroke="midnightblue" points="49.2999,-21.7983 38.9242,-19.6545 45.6984,-27.8007 49.2999,-21.7983"/>
</g>
<!-- Node2&#45;&gt;Node4 -->
<g id="edge3" class="edge"><title>Node2&#45;&gt;Node4</title>
<path fill="none" stroke="midnightblue" d="M111.363,-56.083C108.817,-48.8486 105.144,-38.4087 101.973,-29.3968"/>
<polygon fill="midnightblue" stroke="midnightblue" points="105.2,-28.0225 98.5791,-19.7511 98.5966,-30.3459 105.2,-28.0225"/>
</g>
<!-- Node2&#45;&gt;Node5 -->
<g id="edge4" class="edge"><title>Node2&#45;&gt;Node5</title>
<path fill="none" stroke="midnightblue" d="M122.922,-56.083C130.348,-48.2195 141.352,-36.5688 150.312,-27.0813"/>
<polygon fill="midnightblue" stroke="midnightblue" points="152.913,-29.4244 157.235,-19.7511 147.824,-24.618 152.913,-29.4244"/>
</g>
</g>
</svg>
