<?xml version="1.0" encoding="UTF-8" standalone="no"?>
<!DOCTYPE svg PUBLIC "-//W3C//DTD SVG 1.1//EN"
 "http://www.w3.org/Graphics/SVG/1.1/DTD/svg11.dtd">
<!-- Generated by graphviz version 2.38.0 (20140413.2041)
 -->
<!-- Title: ble/uart.c Pages: 1 -->
<svg width="850pt" height="140pt"
 viewBox="0.00 0.00 849.50 140.00" xmlns="http://www.w3.org/2000/svg" xmlns:xlink="http://www.w3.org/1999/xlink">
<g id="graph0" class="graph" transform="scale(1 1) rotate(0) translate(4 136)">
<title>ble/uart.c</title>
<polygon fill="white" stroke="none" points="-4,4 -4,-136 845.5,-136 845.5,4 -4,4"/>
<!-- Node1 -->
<g id="node1" class="node"><title>Node1</title>
<g id="a_node1"><a xlink:title="UART communication with BLE.">
<polygon fill="#bfbfbf" stroke="black" points="328,-112.5 328,-131.5 385,-131.5 385,-112.5 328,-112.5"/>
<text text-anchor="middle" x="356.5" y="-119.5" font-family="Helvetica,sans-Serif" font-size="10.00">ble/uart.c</text>
</a>
</g>
</g>
<!-- Node2 -->
<g id="node2" class="node"><title>Node2</title>
<g id="a_node2"><a xlink:href="uart_8h.html" target="_top" xlink:title="UART communication with BLE.">
<polygon fill="white" stroke="black" points="17,-56.5 17,-75.5 58,-75.5 58,-56.5 17,-56.5"/>
<text text-anchor="middle" x="37.5" y="-63.5" font-family="Helvetica,sans-Serif" font-size="10.00">uart.h</text>
</a>
</g>
</g>
<!-- Node1&#45;&gt;Node2 -->
<g id="edge1" class="edge"><title>Node1&#45;&gt;Node2</title>
<path fill="none" stroke="midnightblue" d="M327.951,-117.871C277.436,-112.052 168.901,-98.2859 67.8152,-75.7774"/>
<polygon fill="midnightblue" stroke="midnightblue" points="68.5838,-72.3629 58.0582,-73.5719 67.0404,-79.1907 68.5838,-72.3629"/>
</g>
<!-- Node3 -->
<g id="node3" class="node"><title>Node3</title>
<g id="a_node3"><a xlink:title=" ">
<polygon fill="white" stroke="#bfbfbf" points="0,-0.5 0,-19.5 49,-19.5 49,-0.5 0,-0.5"/>
<text text-anchor="middle" x="24.5" y="-7.5" font-family="Helvetica,sans-Serif" font-size="10.00">stdint.h</text>
</a>
</g>
</g>
<!-- Node1&#45;&gt;Node3 -->
<g id="edge11" class="edge"><title>Node1&#45;&gt;Node3</title>
<path fill="none" stroke="midnightblue" d="M327.946,-119.447C248.38,-114.831 28.6039,-99.9997 7.5,-76 -4.12595,-62.7788 3.86709,-42.5522 12.3859,-28.177"/>
<polygon fill="midnightblue" stroke="midnightblue" points="15.3709,-30.0065 17.859,-19.7079 9.49169,-26.2071 15.3709,-30.0065"/>
</g>
<!-- Node5 -->
<g id="node5" class="node"><title>Node5</title>
<g id="a_node5"><a xlink:title=" ">
<polygon fill="white" stroke="#bfbfbf" points="133,-56.5 133,-75.5 198,-75.5 198,-56.5 133,-56.5"/>
<text text-anchor="middle" x="165.5" y="-63.5" font-family="Helvetica,sans-Serif" font-size="10.00">em_usart.h</text>
</a>
</g>
</g>
<!-- Node1&#45;&gt;Node5 -->
<g id="edge4" class="edge"><title>Node1&#45;&gt;Node5</title>
<path fill="none" stroke="midnightblue" d="M327.905,-112.916C295.468,-103.745 242.336,-88.7231 205.727,-78.3731"/>
<polygon fill="midnightblue" stroke="midnightblue" points="206.446,-74.9392 195.871,-75.5865 204.541,-81.6752 206.446,-74.9392"/>
</g>
<!-- Node6 -->
<g id="node6" class="node"><title>Node6</title>
<g id="a_node6"><a xlink:href="pinout_8h.html" target="_top" xlink:title="File to keep track of most the pins used, pins for BLE are in own file BLE.h.">
<polygon fill="white" stroke="black" points="216,-56.5 216,-75.5 267,-75.5 267,-56.5 216,-56.5"/>
<text text-anchor="middle" x="241.5" y="-63.5" font-family="Helvetica,sans-Serif" font-size="10.00">pinout.h</text>
</a>
</g>
</g>
<!-- Node1&#45;&gt;Node6 -->
<g id="edge5" class="edge"><title>Node1&#45;&gt;Node6</title>
<path fill="none" stroke="midnightblue" d="M338.278,-112.444C319.604,-103.675 290.344,-89.9355 268.883,-79.8579"/>
<polygon fill="midnightblue" stroke="midnightblue" points="270.176,-76.5988 259.637,-75.5164 267.201,-82.935 270.176,-76.5988"/>
</g>
<!-- Node7 -->
<g id="node7" class="node"><title>Node7</title>
<g id="a_node7"><a xlink:title=" ">
<polygon fill="white" stroke="#bfbfbf" points="285.5,-56.5 285.5,-75.5 347.5,-75.5 347.5,-56.5 285.5,-56.5"/>
<text text-anchor="middle" x="316.5" y="-63.5" font-family="Helvetica,sans-Serif" font-size="10.00">em_cmu.h</text>
</a>
</g>
</g>
<!-- Node1&#45;&gt;Node7 -->
<g id="edge6" class="edge"><title>Node1&#45;&gt;Node7</title>
<path fill="none" stroke="midnightblue" d="M349.895,-112.083C344.245,-104.455 335.955,-93.2645 329.049,-83.9408"/>
<polygon fill="midnightblue" stroke="midnightblue" points="331.747,-81.7034 322.982,-75.7511 326.122,-85.87 331.747,-81.7034"/>
</g>
<!-- Node8 -->
<g id="node8" class="node"><title>Node8</title>
<g id="a_node8"><a xlink:title=" ">
<polygon fill="white" stroke="#bfbfbf" points="365.5,-56.5 365.5,-75.5 427.5,-75.5 427.5,-56.5 365.5,-56.5"/>
<text text-anchor="middle" x="396.5" y="-63.5" font-family="Helvetica,sans-Serif" font-size="10.00">em_gpio.h</text>
</a>
</g>
</g>
<!-- Node1&#45;&gt;Node8 -->
<g id="edge7" class="edge"><title>Node1&#45;&gt;Node8</title>
<path fill="none" stroke="midnightblue" d="M363.105,-112.083C368.755,-104.455 377.045,-93.2645 383.951,-83.9408"/>
<polygon fill="midnightblue" stroke="midnightblue" points="386.878,-85.87 390.018,-75.7511 381.253,-81.7034 386.878,-85.87"/>
</g>
<!-- Node9 -->
<g id="node9" class="node"><title>Node9</title>
<g id="a_node9"><a xlink:href="ble_8h.html" target="_top" xlink:title="Send data via BLE wirelessly.">
<polygon fill="white" stroke="black" points="76.5,-56.5 76.5,-75.5 114.5,-75.5 114.5,-56.5 76.5,-56.5"/>
<text text-anchor="middle" x="95.5" y="-63.5" font-family="Helvetica,sans-Serif" font-size="10.00">ble.h</text>
</a>
</g>
</g>
<!-- Node1&#45;&gt;Node9 -->
<g id="edge8" class="edge"><title>Node1&#45;&gt;Node9</title>
<path fill="none" stroke="midnightblue" d="M327.705,-116.457C283.628,-109.268 196.919,-94.2029 124.5,-76 124.401,-75.9751 124.302,-75.9501 124.202,-75.9249"/>
<polygon fill="midnightblue" stroke="midnightblue" points="125.332,-72.6063 114.76,-73.2994 123.457,-79.3504 125.332,-72.6063"/>
</g>
<!-- Node10 -->
<g id="node10" class="node"><title>Node10</title>
<g id="a_node10"><a xlink:title=" ">
<polygon fill="white" stroke="#bfbfbf" points="446,-56.5 446,-75.5 517,-75.5 517,-56.5 446,-56.5"/>
<text text-anchor="middle" x="481.5" y="-63.5" font-family="Helvetica,sans-Serif" font-size="10.00">em_device.h</text>
</a>
</g>
</g>
<!-- Node1&#45;&gt;Node10 -->
<g id="edge12" class="edge"><title>Node1&#45;&gt;Node10</title>
<path fill="none" stroke="midnightblue" d="M376.307,-112.444C396.787,-103.596 428.983,-89.6875 452.365,-79.5865"/>
<polygon fill="midnightblue" stroke="midnightblue" points="453.994,-82.6953 461.786,-75.5164 451.218,-76.2692 453.994,-82.6953"/>
</g>
<!-- Node11 -->
<g id="node11" class="node"><title>Node11</title>
<g id="a_node11"><a xlink:title=" ">
<polygon fill="white" stroke="#bfbfbf" points="535.5,-56.5 535.5,-75.5 597.5,-75.5 597.5,-56.5 535.5,-56.5"/>
<text text-anchor="middle" x="566.5" y="-63.5" font-family="Helvetica,sans-Serif" font-size="10.00">em_chip.h</text>
</a>
</g>
</g>
<!-- Node1&#45;&gt;Node11 -->
<g id="edge13" class="edge"><title>Node1&#45;&gt;Node11</title>
<path fill="none" stroke="midnightblue" d="M385.259,-113.605C421.581,-104.265 484.309,-88.1348 525.606,-77.5157"/>
<polygon fill="midnightblue" stroke="midnightblue" points="526.543,-80.8885 535.357,-75.0083 524.8,-74.1091 526.543,-80.8885"/>
</g>
<!-- Node12 -->
<g id="node12" class="node"><title>Node12</title>
<g id="a_node12"><a xlink:title=" ">
<polygon fill="white" stroke="#bfbfbf" points="615.5,-56.5 615.5,-75.5 677.5,-75.5 677.5,-56.5 615.5,-56.5"/>
<text text-anchor="middle" x="646.5" y="-63.5" font-family="Helvetica,sans-Serif" font-size="10.00">em_emu.h</text>
</a>
</g>
</g>
<!-- Node1&#45;&gt;Node12 -->
<g id="edge14" class="edge"><title>Node1&#45;&gt;Node12</title>
<path fill="none" stroke="midnightblue" d="M385.071,-116.271C429.861,-108.767 519.556,-93.3824 605.203,-76.1977"/>
<polygon fill="midnightblue" stroke="midnightblue" points="605.975,-79.6126 615.085,-74.2032 604.59,-72.751 605.975,-79.6126"/>
</g>
<!-- Node13 -->
<g id="node13" class="node"><title>Node13</title>
<g id="a_node13"><a xlink:title=" ">
<polygon fill="white" stroke="#bfbfbf" points="696,-56.5 696,-75.5 737,-75.5 737,-56.5 696,-56.5"/>
<text text-anchor="middle" x="716.5" y="-63.5" font-family="Helvetica,sans-Serif" font-size="10.00">bsp.h</text>
</a>
</g>
</g>
<!-- Node1&#45;&gt;Node13 -->
<g id="edge15" class="edge"><title>Node1&#45;&gt;Node13</title>
<path fill="none" stroke="midnightblue" d="M385.011,-118.622C440.943,-113.635 569.047,-100.627 686.109,-75.7505"/>
<polygon fill="midnightblue" stroke="midnightblue" points="686.918,-79.1565 695.953,-73.6242 685.44,-72.3143 686.918,-79.1565"/>
</g>
<!-- Node14 -->
<g id="node14" class="node"><title>Node14</title>
<g id="a_node14"><a xlink:href="debug__dbprint_8h.html" target="_top" xlink:title="Enable or disable printing to UART with dbprint.">
<polygon fill="white" stroke="black" points="755.5,-56.5 755.5,-75.5 841.5,-75.5 841.5,-56.5 755.5,-56.5"/>
<text text-anchor="middle" x="798.5" y="-63.5" font-family="Helvetica,sans-Serif" font-size="10.00">debug_dbprint.h</text>
</a>
</g>
</g>
<!-- Node1&#45;&gt;Node14 -->
<g id="edge16" class="edge"><title>Node1&#45;&gt;Node14</title>
<path fill="none" stroke="midnightblue" d="M385.439,-118.226C448.726,-112.038 604.391,-96.1629 745.282,-76.1041"/>
<polygon fill="midnightblue" stroke="midnightblue" points="745.998,-79.5374 755.4,-74.6527 745.004,-72.6083 745.998,-79.5374"/>
</g>
<!-- Node2&#45;&gt;Node3 -->
<g id="edge2" class="edge"><title>Node2&#45;&gt;Node3</title>
<path fill="none" stroke="midnightblue" d="M35.3533,-56.083C33.6306,-48.9272 31.1529,-38.6353 28.9997,-29.6911"/>
<polygon fill="midnightblue" stroke="midnightblue" points="32.3501,-28.6541 26.6067,-19.7511 25.5446,-30.2925 32.3501,-28.6541"/>
</g>
<!-- Node4 -->
<g id="node4" class="node"><title>Node4</title>
<g id="a_node4"><a xlink:title=" ">
<polygon fill="white" stroke="#bfbfbf" points="67.5,-0.5 67.5,-19.5 123.5,-19.5 123.5,-0.5 67.5,-0.5"/>
<text text-anchor="middle" x="95.5" y="-7.5" font-family="Helvetica,sans-Serif" font-size="10.00">stdbool.h</text>
</a>
</g>
</g>
<!-- Node2&#45;&gt;Node4 -->
<g id="edge3" class="edge"><title>Node2&#45;&gt;Node4</title>
<path fill="none" stroke="midnightblue" d="M46.8187,-56.324C55.3926,-48.3414 68.3122,-36.3128 78.6876,-26.6529"/>
<polygon fill="midnightblue" stroke="midnightblue" points="81.0777,-29.2098 86.0117,-19.8339 76.3078,-24.0865 81.0777,-29.2098"/>
</g>
<!-- Node9&#45;&gt;Node3 -->
<g id="edge9" class="edge"><title>Node9&#45;&gt;Node3</title>
<path fill="none" stroke="midnightblue" d="M84.0926,-56.324C73.3912,-48.1849 57.1593,-35.8395 44.3372,-26.0874"/>
<polygon fill="midnightblue" stroke="midnightblue" points="46.1932,-23.1018 36.1149,-19.8339 41.9556,-28.6734 46.1932,-23.1018"/>
</g>
<!-- Node9&#45;&gt;Node4 -->
<g id="edge10" class="edge"><title>Node9&#45;&gt;Node4</title>
<path fill="none" stroke="midnightblue" d="M95.5,-56.083C95.5,-49.0059 95.5,-38.8611 95.5,-29.9865"/>
<polygon fill="midnightblue" stroke="midnightblue" points="99.0001,-29.751 95.5,-19.7511 92.0001,-29.7511 99.0001,-29.751"/>
</g>
</g>
</svg>
