<?xml version="1.0" encoding="UTF-8" standalone="no"?>
<!DOCTYPE svg PUBLIC "-//W3C//DTD SVG 1.1//EN"
 "http://www.w3.org/Graphics/SVG/1.1/DTD/svg11.dtd">
<!-- Generated by graphviz version 2.38.0 (20140413.2041)
 -->
<!-- Title: inc/util.c Pages: 1 -->
<svg width="280pt" height="140pt"
 viewBox="0.00 0.00 280.00 140.00" xmlns="http://www.w3.org/2000/svg" xmlns:xlink="http://www.w3.org/1999/xlink">
<g id="graph0" class="graph" transform="scale(1 1) rotate(0) translate(4 136)">
<title>inc/util.c</title>
<polygon fill="white" stroke="none" points="-4,4 -4,-136 276,-136 276,4 -4,4"/>
<!-- Node1 -->
<g id="node1" class="node"><title>Node1</title>
<g id="a_node1"><a xlink:title="Handy functions.">
<polygon fill="#bfbfbf" stroke="black" points="86,-112.5 86,-131.5 139,-131.5 139,-112.5 86,-112.5"/>
<text text-anchor="middle" x="112.5" y="-119.5" font-family="Helvetica,sans-Serif" font-size="10.00">inc/util.c</text>
</a>
</g>
</g>
<!-- Node2 -->
<g id="node2" class="node"><title>Node2</title>
<g id="a_node2"><a xlink:href="util_8h.html" target="_top" xlink:title="Handy functions.">
<polygon fill="white" stroke="black" points="46.5,-56.5 46.5,-75.5 84.5,-75.5 84.5,-56.5 46.5,-56.5"/>
<text text-anchor="middle" x="65.5" y="-63.5" font-family="Helvetica,sans-Serif" font-size="10.00">util.h</text>
</a>
</g>
</g>
<!-- Node1&#45;&gt;Node2 -->
<g id="edge1" class="edge"><title>Node1&#45;&gt;Node2</title>
<path fill="none" stroke="midnightblue" d="M104.739,-112.083C97.9632,-104.298 87.9568,-92.8015 79.7449,-83.3665"/>
<polygon fill="midnightblue" stroke="midnightblue" points="82.322,-80.9963 73.1167,-75.7511 77.0419,-85.592 82.322,-80.9963"/>
</g>
<!-- Node3 -->
<g id="node3" class="node"><title>Node3</title>
<g id="a_node3"><a xlink:title=" ">
<polygon fill="white" stroke="#bfbfbf" points="0,-0.5 0,-19.5 49,-19.5 49,-0.5 0,-0.5"/>
<text text-anchor="middle" x="24.5" y="-7.5" font-family="Helvetica,sans-Serif" font-size="10.00">stdint.h</text>
</a>
</g>
</g>
<!-- Node1&#45;&gt;Node3 -->
<g id="edge5" class="edge"><title>Node1&#45;&gt;Node3</title>
<path fill="none" stroke="midnightblue" d="M87.8011,-112.359C71.0284,-105.206 49.746,-93.3772 37.5,-76 28.074,-62.6244 25.1084,-44.0551 24.3345,-30.1876"/>
<polygon fill="midnightblue" stroke="midnightblue" points="27.8265,-29.7822 24.1063,-19.862 20.8282,-29.937 27.8265,-29.7822"/>
</g>
<!-- Node4 -->
<g id="node4" class="node"><title>Node4</title>
<g id="a_node4"><a xlink:title=" ">
<polygon fill="white" stroke="#bfbfbf" points="78.5,-0.5 78.5,-19.5 134.5,-19.5 134.5,-0.5 78.5,-0.5"/>
<text text-anchor="middle" x="106.5" y="-7.5" font-family="Helvetica,sans-Serif" font-size="10.00">stdbool.h</text>
</a>
</g>
</g>
<!-- Node1&#45;&gt;Node4 -->
<g id="edge4" class="edge"><title>Node1&#45;&gt;Node4</title>
<path fill="none" stroke="midnightblue" d="M112.029,-112.368C111.061,-94.617 108.827,-53.6664 107.514,-29.5974"/>
<polygon fill="midnightblue" stroke="midnightblue" points="111.008,-29.3859 106.969,-19.5914 104.019,-29.7672 111.008,-29.3859"/>
</g>
<!-- Node5 -->
<g id="node5" class="node"><title>Node5</title>
<g id="a_node5"><a xlink:title=" ">
<polygon fill="white" stroke="#bfbfbf" points="140.5,-56.5 140.5,-75.5 202.5,-75.5 202.5,-56.5 140.5,-56.5"/>
<text text-anchor="middle" x="171.5" y="-63.5" font-family="Helvetica,sans-Serif" font-size="10.00">em_gpio.h</text>
</a>
</g>
</g>
<!-- Node1&#45;&gt;Node5 -->
<g id="edge6" class="edge"><title>Node1&#45;&gt;Node5</title>
<path fill="none" stroke="midnightblue" d="M121.979,-112.324C130.701,-104.341 143.843,-92.3128 154.398,-82.6529"/>
<polygon fill="midnightblue" stroke="midnightblue" points="156.834,-85.1674 161.848,-75.8339 152.108,-80.0036 156.834,-85.1674"/>
</g>
<!-- Node6 -->
<g id="node6" class="node"><title>Node6</title>
<g id="a_node6"><a xlink:href="pinout_8h.html" target="_top" xlink:title="File to keep track of most the pins used, pins for BLE are in own file BLE.h.">
<polygon fill="white" stroke="black" points="221,-56.5 221,-75.5 272,-75.5 272,-56.5 221,-56.5"/>
<text text-anchor="middle" x="246.5" y="-63.5" font-family="Helvetica,sans-Serif" font-size="10.00">pinout.h</text>
</a>
</g>
</g>
<!-- Node1&#45;&gt;Node6 -->
<g id="edge7" class="edge"><title>Node1&#45;&gt;Node6</title>
<path fill="none" stroke="midnightblue" d="M133.733,-112.444C155.884,-103.517 190.819,-89.4387 215.936,-79.3168"/>
<polygon fill="midnightblue" stroke="midnightblue" points="217.4,-82.5006 225.367,-75.5164 214.783,-76.0079 217.4,-82.5006"/>
</g>
<!-- Node2&#45;&gt;Node3 -->
<g id="edge2" class="edge"><title>Node2&#45;&gt;Node3</title>
<path fill="none" stroke="midnightblue" d="M58.7297,-56.083C52.9384,-48.4554 44.4415,-37.2645 37.3625,-27.9408"/>
<polygon fill="midnightblue" stroke="midnightblue" points="39.979,-25.5991 31.1443,-19.7511 34.4039,-29.8321 39.979,-25.5991"/>
</g>
<!-- Node2&#45;&gt;Node4 -->
<g id="edge3" class="edge"><title>Node2&#45;&gt;Node4</title>
<path fill="none" stroke="midnightblue" d="M72.2703,-56.083C78.0616,-48.4554 86.5585,-37.2645 93.6375,-27.9408"/>
<polygon fill="midnightblue" stroke="midnightblue" points="96.5961,-29.8321 99.8557,-19.7511 91.021,-25.5991 96.5961,-29.8321"/>
</g>
</g>
</svg>
